<?xml version="1.0" ?><!DOCTYPE svg  PUBLIC '-//W3C//DTD SVG 1.1//EN'  'http://www.w3.org/Graphics/SVG/1.1/DTD/svg11.dtd'><svg xmlns="http://www.w3.org/2000/svg" width="644.000" height="457.000" viewBox="19.000 72.000 644.000 457.000"><polygon points="95.0,202.65263157894736 84.70651872499295,202.1101896547939 85.66224973421569,207.01799753999174" fill="#808080" fill-rule="evenodd" stroke-linejoin="round"/><path d="M47.0,212.0 95.0,202.65263157894736" stroke="#808080" fill="none"/><path d="M42.0,440.0 47.0,212.0" stroke="#808080" fill="none"/><path d="M95.0,446.1681034482759 42.0,440.0" stroke="#808080" fill="none"/><polygon points="95.0,196.40952380952382 84.86463988634392,194.532165195271 85.17357231653742,199.52261214455066" fill="#808080" fill-rule="evenodd" stroke-linejoin="round"/><path d="M37.0,200.0 95.0,196.40952380952382" stroke="#808080" fill="none"/><path d="M31.0,452.0 37.0,200.0" stroke="#808080" fill="none"/><path d="M95.0,452.755905511811 31.0,452.0" stroke="#808080" fill="none"/><polygon points="143.23333333333332,212.0 141.40406054392955,222.1441491048755 146.39298633321258,221.81155405225667" fill="#808080" fill-rule="evenodd" stroke-linejoin="round"/><path d="M144.76666666666665,235.0 143.23333333333332,212.0" stroke="#808080" fill="none"/><path d="M158.0,453.5 390.0,453.5" stroke="#000" fill="none"/><path d="M158.0,413.5 390.0,413.5" stroke="#000" fill="none"/><path d="M390.0,453.5 474.0,453.5" stroke="#000" fill="none"/><path d="M390.0,413.5 474.0,413.5" stroke="#000" fill="none"/><path d="M154.0,373.5 390.0,373.5" stroke="#000" fill="none"/><path d="M154.0,333.5 390.0,333.5" stroke="#000" fill="none"/><path d="M390.0,313.5 478.0,313.5" stroke="#000" fill="none"/><path d="M390.0,373.5 602.0,373.5" stroke="#000" fill="none"/><path d="M390.0,337.5 600.0,337.5" stroke="#000" fill="none"/><path d="M390.0,294.5 606.0,294.5" stroke="#000" fill="none"/><path d="M390.0,273.5 466.0,273.5" stroke="#000" fill="none"/><path d="M302.0,313.5 390.0,313.5" stroke="#000" fill="none"/><path d="M162.0,293.5 390.0,293.5" stroke="#000" fill="none"/><path d="M306.0,273.5 390.0,273.5" stroke="#000" fill="none"/><path d="M146.0,253.5 390.0,253.5" stroke="#000" fill="none"/><path d="M306.0,213.5 390.0,213.5" stroke="#000" fill="none"/><path d="M390.0,253.5 602.0,253.5" stroke="#000" fill="none"/><path d="M390.0,233.5 466.0,233.5" stroke="#000" fill="none"/><path d="M142.0,193.5 390.0,193.5" stroke="#000" fill="none"/><path d="M390.0,213.5 606.0,213.5" stroke="#000" fill="none"/><path d="M390.0,193.5 466.0,193.5" stroke="#000" fill="none"/><path d="M390.0,84.0 390.0,517.0" stroke="#000" fill="none"/><rect x="241.0" y="84.0" width="92.0" height="27.0" stroke="#000" fill="#fff"/><text x="287.0" y="103" fill="#000" stroke-width="0.0" text-anchor="middle" font-family="DejaVu Sans Mono" font-size="10.0pt">msp430-cpu</text><polygon points="390.0,134.0 408.0,147.5 408.0,174.5 390.0,188.0 372.0,174.5 372.0,147.5" stroke="#000" fill="#fff" fill-rule="evenodd" stroke-linejoin="round"/><text x="390.0" y="166" fill="#000" stroke-width="0.0" text-anchor="middle" font-family="DejaVu Sans Mono" font-size="10.0pt">bus</text><rect x="420.0" y="180.0" width="92.0" height="27.0" stroke="#000" fill="#fff"/><text x="466.0" y="199" fill="#000" stroke-width="0.0" text-anchor="middle" font-family="DejaVu Sans Mono" font-size="10.0pt">MSP430_BCM</text><rect x="560.0" y="200.0" width="92.0" height="27.0" stroke="#000" fill="#fff"/><text x="606.0" y="219" fill="#000" stroke-width="0.0" text-anchor="middle" font-family="DejaVu Sans Mono" font-size="10.0pt">MSP430_DMA</text><rect x="100.0" y="180.0" width="84.0" height="27.0" stroke="#000" fill="#fff"/><text x="142.0" y="199" fill="#000" stroke-width="0.0" text-anchor="middle" font-family="DejaVu Sans Mono" font-size="10.0pt">MSP430_IC</text><rect x="420.0" y="220.0" width="92.0" height="27.0" stroke="#000" fill="#fff"/><text x="466.0" y="239" fill="#000" stroke-width="0.0" text-anchor="middle" font-family="DejaVu Sans Mono" font-size="10.0pt">MSP430_FMC</text><rect x="560.0" y="240.0" width="84.0" height="27.0" stroke="#000" fill="#fff"/><text x="602.0" y="259" fill="#000" stroke-width="0.0" text-anchor="middle" font-family="DejaVu Sans Mono" font-size="10.0pt">MSP430_IO</text><rect x="260.0" y="200.0" width="92.0" height="27.0" stroke="#000" fill="#fff"/><text x="306.0" y="219" fill="#000" stroke-width="0.0" text-anchor="middle" font-family="DejaVu Sans Mono" font-size="10.0pt">MSP430_SVS</text><rect x="100.0" y="240.0" width="92.0" height="27.0" stroke="#000" fill="#fff"/><text x="146.0" y="259" fill="#000" stroke-width="0.0" text-anchor="middle" font-family="DejaVu Sans Mono" font-size="10.0pt">MSP430_WDT</text><rect x="260.0" y="260.0" width="92.0" height="27.0" stroke="#000" fill="#fff"/><text x="306.0" y="279" fill="#000" stroke-width="0.0" text-anchor="middle" font-family="DejaVu Sans Mono" font-size="10.0pt">msp430_hwm</text><rect x="100.0" y="280.0" width="124.0" height="27.0" stroke="#000" fill="#fff"/><text x="162.0" y="299" fill="#000" stroke-width="0.0" text-anchor="middle" font-family="DejaVu Sans Mono" font-size="10.0pt">MSP430_TIMER_A</text><rect x="240.0" y="300.0" width="124.0" height="27.0" stroke="#000" fill="#fff"/><text x="302.0" y="319" fill="#000" stroke-width="0.0" text-anchor="middle" font-family="DejaVu Sans Mono" font-size="10.0pt">MSP430_TIMER_B</text><rect x="420.0" y="260.0" width="92.0" height="27.0" stroke="#000" fill="#fff"/><text x="466.0" y="279" fill="#000" stroke-width="0.0" text-anchor="middle" font-family="DejaVu Sans Mono" font-size="10.0pt">MSP430_USI</text><rect x="564.0" y="281.0" width="84.0" height="27.0" stroke="#000" fill="#fff"/><text x="606.0" y="300" fill="#000" stroke-width="0.0" text-anchor="middle" font-family="DejaVu Sans Mono" font-size="10.0pt">MSP430_OA</text><rect x="558.0" y="324.0" width="84.0" height="27.0" stroke="#000" fill="#fff"/><text x="600.0" y="343" fill="#000" stroke-width="0.0" text-anchor="middle" font-family="DejaVu Sans Mono" font-size="10.0pt">MSP430_OA</text><rect x="560.0" y="360.0" width="84.0" height="27.0" stroke="#000" fill="#fff"/><text x="602.0" y="379" fill="#000" stroke-width="0.0" text-anchor="middle" font-family="DejaVu Sans Mono" font-size="10.0pt">MSP430_OA</text><rect x="420.0" y="300.0" width="116.0" height="27.0" stroke="#000" fill="#fff"/><text x="478.0" y="319" fill="#000" stroke-width="0.0" text-anchor="middle" font-family="DejaVu Sans Mono" font-size="10.0pt">MSP430_COMP_A</text><rect x="100.0" y="320.0" width="108.0" height="27.0" stroke="#000" fill="#fff"/><text x="154.0" y="339" fill="#000" stroke-width="0.0" text-anchor="middle" font-family="DejaVu Sans Mono" font-size="10.0pt">MSP430_ADC10</text><rect x="100.0" y="360.0" width="108.0" height="27.0" stroke="#000" fill="#fff"/><text x="154.0" y="379" fill="#000" stroke-width="0.0" text-anchor="middle" font-family="DejaVu Sans Mono" font-size="10.0pt">MSP430_ADC12</text><rect x="420.0" y="400.0" width="108.0" height="27.0" stroke="#000" fill="#fff"/><text x="474.0" y="419" fill="#000" stroke-width="0.0" text-anchor="middle" font-family="DejaVu Sans Mono" font-size="10.0pt">MSP430_DAC12</text><rect x="420.0" y="440.0" width="108.0" height="27.0" stroke="#000" fill="#fff"/><text x="474.0" y="459" fill="#000" stroke-width="0.0" text-anchor="middle" font-family="DejaVu Sans Mono" font-size="10.0pt">MSP430_DAC12</text><rect x="100.0" y="400.0" width="116.0" height="27.0" stroke="#000" fill="#fff"/><text x="158.0" y="419" fill="#000" stroke-width="0.0" text-anchor="middle" font-family="DejaVu Sans Mono" font-size="10.0pt">MSP430_SD16_A</text><rect x="100.0" y="440.0" width="116.0" height="27.0" stroke="#000" fill="#fff"/><text x="158.0" y="459" fill="#000" stroke-width="0.0" text-anchor="middle" font-family="DejaVu Sans Mono" font-size="10.0pt">MSP430_USCI_A</text></svg>