<?xml version="1.0" encoding="UTF-8" standalone="no"?>
<!-- Created with Inkscape (http://www.inkscape.org/) -->

<svg
   xmlns:dc="http://purl.org/dc/elements/1.1/"
   xmlns:cc="http://creativecommons.org/ns#"
   xmlns:rdf="http://www.w3.org/1999/02/22-rdf-syntax-ns#"
   xmlns:svg="http://www.w3.org/2000/svg"
   xmlns="http://www.w3.org/2000/svg"
   xmlns:xlink="http://www.w3.org/1999/xlink"
   xmlns:sodipodi="http://sodipodi.sourceforge.net/DTD/sodipodi-0.dtd"
   xmlns:inkscape="http://www.inkscape.org/namespaces/inkscape"
   width="111.71874"
   height="111.12498"
   id="svg2"
   version="1.1"
   inkscape:version="0.91 r13725"
   sodipodi:docname="logo.svg">
  <defs
     id="defs4">
    <linearGradient
       id="linearGradient4686">
      <stop
         style="stop-color:#000000;stop-opacity:1;"
         offset="0"
         id="stop4688" />
      <stop
         id="stop3956"
         offset="0.75"
         style="stop-color:#000000;stop-opacity:0.87843138;" />
      <stop
         style="stop-color:#ffffff;stop-opacity:0.43921569;"
         offset="0.75"
         id="stop3958" />
      <stop
         id="stop3960"
         offset="0.88"
         style="stop-color:#181818;stop-opacity:1;" />
      <stop
         style="stop-color:#242424;stop-opacity:1;"
         offset="0.88"
         id="stop3962" />
      <stop
         style="stop-color:#000000;stop-opacity:1;"
         offset="1"
         id="stop4690" />
    </linearGradient>
    <linearGradient
       id="linearGradient4467">
      <stop
         style="stop-color:#000000;stop-opacity:1;"
         offset="0"
         id="stop4469" />
      <stop
         style="stop-color:#000000;stop-opacity:0.8974359;"
         offset="1"
         id="stop4471" />
    </linearGradient>
    <linearGradient
       id="linearGradient4431">
      <stop
         style="stop-color:#ffffff;stop-opacity:1;"
         offset="0"
         id="stop4433" />
      <stop
         style="stop-color:#ffffff;stop-opacity:0;"
         offset="1"
         id="stop4435" />
    </linearGradient>
    <linearGradient
       id="linearGradient4466">
      <stop
         style="stop-color:#ffffff;stop-opacity:1;"
         offset="0"
         id="stop4468" />
      <stop
         style="stop-color:#ffffff;stop-opacity:0;"
         offset="1"
         id="stop4470" />
    </linearGradient>
    <linearGradient
       id="linearGradient4321">
      <stop
         style="stop-color:#ff6702;stop-opacity:1;"
         offset="0"
         id="stop4323" />
      <stop
         style="stop-color:#ff9a55;stop-opacity:1;"
         offset="1"
         id="stop4325" />
    </linearGradient>
    <linearGradient
       id="linearGradient4283">
      <stop
         style="stop-color:#000000;stop-opacity:1;"
         offset="0"
         id="stop4285" />
      <stop
         style="stop-color:#000000;stop-opacity:0;"
         offset="1"
         id="stop4287" />
    </linearGradient>
    <linearGradient
       id="linearGradient4251">
      <stop
         style="stop-color:#000000;stop-opacity:1;"
         offset="0"
         id="stop4253" />
      <stop
         style="stop-color:#000000;stop-opacity:0;"
         offset="1"
         id="stop4255" />
    </linearGradient>
    <linearGradient
       id="linearGradient4007">
      <stop
         style="stop-color:#ff6600;stop-opacity:1;"
         offset="0"
         id="stop4009" />
      <stop
         style="stop-color:#ff9148;stop-opacity:1;"
         offset="1"
         id="stop4011" />
    </linearGradient>
    <linearGradient
       id="linearGradient3999">
      <stop
         style="stop-color:#fff7f2;stop-opacity:1;"
         offset="0"
         id="stop4001" />
      <stop
         style="stop-color:#ffffff;stop-opacity:0;"
         offset="1"
         id="stop4003" />
    </linearGradient>
    <linearGradient
       id="linearGradient3890">
      <stop
         style="stop-color:#ffffff;stop-opacity:1;"
         offset="0"
         id="stop3892" />
      <stop
         style="stop-color:#ffffff;stop-opacity:0;"
         offset="1"
         id="stop3894" />
    </linearGradient>
    <linearGradient
       id="linearGradient3880">
      <stop
         style="stop-color:#eb7400;stop-opacity:1;"
         offset="0"
         id="stop3882" />
      <stop
         style="stop-color:#f7b06a;stop-opacity:1;"
         offset="1"
         id="stop3884" />
    </linearGradient>
    <linearGradient
       id="linearGradient4011">
      <stop
         style="stop-color:#042dc8;stop-opacity:1;"
         offset="0"
         id="stop4013" />
      <stop
         style="stop-color:#4260d5;stop-opacity:1;"
         offset="1"
         id="stop4015" />
    </linearGradient>
    <linearGradient
       id="linearGradient3879">
      <stop
         style="stop-color:#ffffff;stop-opacity:0.90598291;"
         offset="0"
         id="stop3881" />
      <stop
         style="stop-color:#ffffff;stop-opacity:0;"
         offset="1"
         id="stop3883" />
    </linearGradient>
    <linearGradient
       id="linearGradient3869">
      <stop
         style="stop-color:#c95000;stop-opacity:1;"
         offset="0"
         id="stop3871" />
      <stop
         style="stop-color:#ff9e5e;stop-opacity:1;"
         offset="1"
         id="stop3873" />
    </linearGradient>
    <linearGradient
       id="linearGradient3861">
      <stop
         style="stop-color:#f06000;stop-opacity:1;"
         offset="0"
         id="stop3863" />
      <stop
         style="stop-color:#ffccaa;stop-opacity:1;"
         offset="1"
         id="stop3865" />
    </linearGradient>
    <linearGradient
       id="linearGradient3826">
      <stop
         style="stop-color:#ff6600;stop-opacity:1;"
         offset="0"
         id="stop3828" />
      <stop
         style="stop-color:#ff893b;stop-opacity:1;"
         offset="1"
         id="stop3830" />
    </linearGradient>
    <linearGradient
       id="linearGradient3879-6">
      <stop
         style="stop-color:#ffffff;stop-opacity:0.90598291;"
         offset="0"
         id="stop3881-4" />
      <stop
         style="stop-color:#ffffff;stop-opacity:0;"
         offset="1"
         id="stop3883-7" />
    </linearGradient>
    <linearGradient
       id="linearGradient3869-5">
      <stop
         style="stop-color:#c95000;stop-opacity:1;"
         offset="0"
         id="stop3871-9" />
      <stop
         style="stop-color:#ff9e5e;stop-opacity:1;"
         offset="1"
         id="stop3873-4" />
    </linearGradient>
    <linearGradient
       inkscape:collect="always"
       xlink:href="#linearGradient3879-4"
       id="linearGradient3885-6"
       x1="76.025352"
       y1="124.8497"
       x2="75.874107"
       y2="143.03978"
       gradientUnits="userSpaceOnUse" />
    <linearGradient
       id="linearGradient3879-4">
      <stop
         style="stop-color:#ffffff;stop-opacity:0.93162394;"
         offset="0"
         id="stop3881-6" />
      <stop
         style="stop-color:#ffffff;stop-opacity:0;"
         offset="1"
         id="stop3883-74" />
    </linearGradient>
    <linearGradient
       id="linearGradient3869-2">
      <stop
         style="stop-color:#c95000;stop-opacity:1;"
         offset="0"
         id="stop3871-99" />
      <stop
         style="stop-color:#ff9e5e;stop-opacity:1;"
         offset="1"
         id="stop3873-6" />
    </linearGradient>
    <radialGradient
       inkscape:collect="always"
       xlink:href="#linearGradient4011"
       id="radialGradient4017"
       cx="66.639"
       cy="93.096375"
       fx="66.639"
       fy="93.096375"
       r="11.515625"
       gradientTransform="matrix(0.23244854,1.600893,-1.0124495,0.14700695,145.40424,-26.300303)"
       gradientUnits="userSpaceOnUse" />
    <linearGradient
       inkscape:collect="always"
       xlink:href="#linearGradient3879-4-7"
       id="linearGradient3885-6-2"
       x1="76.025352"
       y1="124.8497"
       x2="75.874107"
       y2="143.03978"
       gradientUnits="userSpaceOnUse" />
    <linearGradient
       id="linearGradient3879-4-7">
      <stop
         style="stop-color:#ffffff;stop-opacity:0.93162394;"
         offset="0"
         id="stop3881-6-7" />
      <stop
         style="stop-color:#ffffff;stop-opacity:0;"
         offset="1"
         id="stop3883-74-6" />
    </linearGradient>
    <radialGradient
       inkscape:collect="always"
       xlink:href="#linearGradient4011-5"
       id="radialGradient4017-7"
       cx="66.639"
       cy="93.096375"
       fx="66.639"
       fy="93.096375"
       r="11.515625"
       gradientTransform="matrix(0.99779178,6.8718773,-4.3459674,0.6310314,452.75975,-225.98471)"
       gradientUnits="userSpaceOnUse" />
    <linearGradient
       id="linearGradient4011-5">
      <stop
         style="stop-color:#042dc8;stop-opacity:1;"
         offset="0"
         id="stop4013-1" />
      <stop
         style="stop-color:#4260d5;stop-opacity:1;"
         offset="1"
         id="stop4015-3" />
    </linearGradient>
    <linearGradient
       inkscape:collect="always"
       xlink:href="#linearGradient3879-4-75"
       id="linearGradient3885-6-8"
       x1="76.025352"
       y1="124.8497"
       x2="75.874107"
       y2="143.03978"
       gradientUnits="userSpaceOnUse" />
    <linearGradient
       id="linearGradient3879-4-75">
      <stop
         style="stop-color:#ffffff;stop-opacity:0.93162394;"
         offset="0"
         id="stop3881-6-1" />
      <stop
         style="stop-color:#ffffff;stop-opacity:0;"
         offset="1"
         id="stop3883-74-4" />
    </linearGradient>
    <radialGradient
       inkscape:collect="always"
       xlink:href="#linearGradient4011-0"
       id="radialGradient4017-5"
       cx="66.639"
       cy="93.096375"
       fx="66.639"
       fy="93.096375"
       r="11.515625"
       gradientTransform="matrix(0.23244854,1.600893,-1.0124495,0.14700695,146.34996,53.681728)"
       gradientUnits="userSpaceOnUse" />
    <linearGradient
       id="linearGradient4011-0">
      <stop
         style="stop-color:#042dc8;stop-opacity:1;"
         offset="0"
         id="stop4013-4" />
      <stop
         style="stop-color:#4260d5;stop-opacity:1;"
         offset="1"
         id="stop4015-0" />
    </linearGradient>
    <linearGradient
       inkscape:collect="always"
       xlink:href="#linearGradient4011-0"
       id="linearGradient4117"
       x1="107.03001"
       y1="189.72537"
       x2="107.18476"
       y2="173.47537"
       gradientUnits="userSpaceOnUse" />
    <linearGradient
       inkscape:collect="always"
       xlink:href="#linearGradient3879-4-7-2"
       id="linearGradient3885-6-2-8"
       x1="76.025352"
       y1="124.8497"
       x2="75.874107"
       y2="143.03978"
       gradientUnits="userSpaceOnUse" />
    <linearGradient
       id="linearGradient3879-4-7-2">
      <stop
         style="stop-color:#ffffff;stop-opacity:0.93162394;"
         offset="0"
         id="stop3881-6-7-9" />
      <stop
         style="stop-color:#ffffff;stop-opacity:0;"
         offset="1"
         id="stop3883-74-6-9" />
    </linearGradient>
    <radialGradient
       inkscape:collect="always"
       xlink:href="#linearGradient4011-5-1"
       id="radialGradient4017-7-9"
       cx="66.639"
       cy="93.096375"
       fx="66.639"
       fy="93.096375"
       r="11.515625"
       gradientTransform="matrix(0.99779178,6.8718773,-4.3459674,0.6310314,448.94742,-406.99277)"
       gradientUnits="userSpaceOnUse" />
    <linearGradient
       id="linearGradient4011-5-1">
      <stop
         style="stop-color:#042dc8;stop-opacity:1;"
         offset="0"
         id="stop4013-1-9" />
      <stop
         style="stop-color:#4260d5;stop-opacity:1;"
         offset="1"
         id="stop4015-3-8" />
    </linearGradient>
    <linearGradient
       inkscape:collect="always"
       xlink:href="#linearGradient3879-4-7-2-7"
       id="linearGradient3885-6-2-8-0"
       x1="76.025352"
       y1="124.8497"
       x2="75.874107"
       y2="143.03978"
       gradientUnits="userSpaceOnUse" />
    <linearGradient
       id="linearGradient3879-4-7-2-7">
      <stop
         style="stop-color:#ffffff;stop-opacity:0.93162394;"
         offset="0"
         id="stop3881-6-7-9-3" />
      <stop
         style="stop-color:#ffffff;stop-opacity:0;"
         offset="1"
         id="stop3883-74-6-9-6" />
    </linearGradient>
    <radialGradient
       inkscape:collect="always"
       xlink:href="#linearGradient4011-5-1-5"
       id="radialGradient4017-7-9-5"
       cx="66.639"
       cy="93.096375"
       fx="66.639"
       fy="93.096375"
       r="11.515625"
       gradientTransform="matrix(0.55965334,3.8543806,-2.4376181,0.3539404,454.75182,-145.44353)"
       gradientUnits="userSpaceOnUse" />
    <linearGradient
       id="linearGradient4011-5-1-5">
      <stop
         style="stop-color:#042dc8;stop-opacity:1;"
         offset="0"
         id="stop4013-1-9-6" />
      <stop
         style="stop-color:#4260d5;stop-opacity:1;"
         offset="1"
         id="stop4015-3-8-9" />
    </linearGradient>
    <linearGradient
       inkscape:collect="always"
       xlink:href="#linearGradient3879-4-7-2-4"
       id="linearGradient3885-6-2-8-4"
       x1="76.025352"
       y1="124.8497"
       x2="75.874107"
       y2="143.03978"
       gradientUnits="userSpaceOnUse" />
    <linearGradient
       id="linearGradient3879-4-7-2-4">
      <stop
         style="stop-color:#ffffff;stop-opacity:0.93162394;"
         offset="0"
         id="stop3881-6-7-9-9" />
      <stop
         style="stop-color:#ffffff;stop-opacity:0;"
         offset="1"
         id="stop3883-74-6-9-3" />
    </linearGradient>
    <radialGradient
       inkscape:collect="always"
       xlink:href="#linearGradient4011-5-1-7"
       id="radialGradient4017-7-9-7"
       cx="66.639"
       cy="93.096375"
       fx="66.639"
       fy="93.096375"
       r="11.515625"
       gradientTransform="matrix(0.26837158,1.8482981,-1.1689154,0.16972569,466.57614,26.180822)"
       gradientUnits="userSpaceOnUse" />
    <linearGradient
       id="linearGradient4011-5-1-7">
      <stop
         style="stop-color:#042dc8;stop-opacity:1;"
         offset="0"
         id="stop4013-1-9-1" />
      <stop
         style="stop-color:#4260d5;stop-opacity:1;"
         offset="1"
         id="stop4015-3-8-5" />
    </linearGradient>
    <linearGradient
       id="linearGradient3879-4-7-2-0">
      <stop
         style="stop-color:#ffffff;stop-opacity:0.93162394;"
         offset="0"
         id="stop3881-6-7-9-7" />
      <stop
         style="stop-color:#ffffff;stop-opacity:0;"
         offset="1"
         id="stop3883-74-6-9-8" />
    </linearGradient>
    <linearGradient
       id="linearGradient4011-5-1-55">
      <stop
         style="stop-color:#000a30;stop-opacity:1;"
         offset="0"
         id="stop4013-1-9-8" />
      <stop
         style="stop-color:#4260d5;stop-opacity:1;"
         offset="1"
         id="stop4015-3-8-3" />
    </linearGradient>
    <linearGradient
       id="linearGradient3890-9">
      <stop
         style="stop-color:#ffffff;stop-opacity:1;"
         offset="0"
         id="stop3892-0" />
      <stop
         style="stop-color:#ffffff;stop-opacity:0;"
         offset="1"
         id="stop3894-9" />
    </linearGradient>
    <linearGradient
       id="linearGradient3880-4">
      <stop
         style="stop-color:#eb7400;stop-opacity:1;"
         offset="0"
         id="stop3882-5" />
      <stop
         style="stop-color:#f7b06a;stop-opacity:1;"
         offset="1"
         id="stop3884-1" />
    </linearGradient>
    <linearGradient
       id="linearGradient3999-7">
      <stop
         style="stop-color:#fff7f2;stop-opacity:1;"
         offset="0"
         id="stop4001-9" />
      <stop
         style="stop-color:#ffffff;stop-opacity:0;"
         offset="1"
         id="stop4003-4" />
    </linearGradient>
    <linearGradient
       id="linearGradient4007-9">
      <stop
         style="stop-color:#ff6600;stop-opacity:1;"
         offset="0"
         id="stop4009-1" />
      <stop
         style="stop-color:#ff9148;stop-opacity:1;"
         offset="1"
         id="stop4011-9" />
    </linearGradient>
    <linearGradient
       id="linearGradient4007-9-5">
      <stop
         style="stop-color:#ff6600;stop-opacity:1;"
         offset="0"
         id="stop4009-1-9" />
      <stop
         style="stop-color:#ff9148;stop-opacity:1;"
         offset="1"
         id="stop4011-9-5" />
    </linearGradient>
    <linearGradient
       id="linearGradient3999-7-1">
      <stop
         style="stop-color:#fff7f2;stop-opacity:1;"
         offset="0"
         id="stop4001-9-1" />
      <stop
         style="stop-color:#ffffff;stop-opacity:0;"
         offset="1"
         id="stop4003-4-4" />
    </linearGradient>
    <linearGradient
       id="linearGradient4007-9-5-3">
      <stop
         style="stop-color:#ff6600;stop-opacity:1;"
         offset="0"
         id="stop4009-1-9-3" />
      <stop
         style="stop-color:#ff9148;stop-opacity:1;"
         offset="1"
         id="stop4011-9-5-9" />
    </linearGradient>
    <linearGradient
       id="linearGradient3999-7-1-4">
      <stop
         style="stop-color:#fff7f2;stop-opacity:1;"
         offset="0"
         id="stop4001-9-1-4" />
      <stop
         style="stop-color:#ffffff;stop-opacity:0;"
         offset="1"
         id="stop4003-4-4-4" />
    </linearGradient>
    <linearGradient
       id="linearGradient3879-4-7-2-3">
      <stop
         style="stop-color:#ffffff;stop-opacity:0.93162394;"
         offset="0"
         id="stop3881-6-7-9-1" />
      <stop
         style="stop-color:#ffffff;stop-opacity:0;"
         offset="1"
         id="stop3883-74-6-9-87" />
    </linearGradient>
    <linearGradient
       id="linearGradient4011-5-1-1">
      <stop
         style="stop-color:#fde8a1;stop-opacity:1;"
         offset="0"
         id="stop4013-1-9-63" />
      <stop
         style="stop-color:#2947b9;stop-opacity:1;"
         offset="1"
         id="stop4015-3-8-8" />
    </linearGradient>
    <linearGradient
       inkscape:collect="always"
       xlink:href="#linearGradient4466"
       id="linearGradient4472"
       x1="161.7561"
       y1="540.72662"
       x2="161.7561"
       y2="579.80206"
       gradientUnits="userSpaceOnUse" />
    <radialGradient
       inkscape:collect="always"
       xlink:href="#linearGradient4321"
       id="radialGradient4474"
       cx="130.8242"
       cy="575.27838"
       fx="130.8242"
       fy="575.27838"
       r="49.498173"
       gradientTransform="matrix(0.95670828,0.96684666,-0.72623533,0.71862001,423.45109,35.05138)"
       gradientUnits="userSpaceOnUse" />
    <linearGradient
       inkscape:collect="always"
       xlink:href="#linearGradient4466-5"
       id="linearGradient4472-9"
       x1="161.7561"
       y1="540.72662"
       x2="161.7561"
       y2="579.80206"
       gradientUnits="userSpaceOnUse" />
    <linearGradient
       id="linearGradient4466-5">
      <stop
         style="stop-color:#ffffff;stop-opacity:1;"
         offset="0"
         id="stop4468-2" />
      <stop
         style="stop-color:#ffffff;stop-opacity:0;"
         offset="1"
         id="stop4470-3" />
    </linearGradient>
    <radialGradient
       inkscape:collect="always"
       xlink:href="#linearGradient4321-0"
       id="radialGradient4474-6"
       cx="130.8242"
       cy="575.27838"
       fx="130.8242"
       fy="575.27838"
       r="49.498173"
       gradientTransform="matrix(0.95670828,0.96684666,-0.72623533,0.71862001,442.64399,170.9169)"
       gradientUnits="userSpaceOnUse" />
    <linearGradient
       id="linearGradient4321-0">
      <stop
         style="stop-color:#ff6702;stop-opacity:1;"
         offset="0"
         id="stop4323-3" />
      <stop
         style="stop-color:#ff9a55;stop-opacity:1;"
         offset="1"
         id="stop4325-1" />
    </linearGradient>
    <linearGradient
       id="linearGradient4466-5-5">
      <stop
         style="stop-color:#ffffff;stop-opacity:1;"
         offset="0"
         id="stop4468-2-9" />
      <stop
         style="stop-color:#ffffff;stop-opacity:0;"
         offset="1"
         id="stop4470-3-4" />
    </linearGradient>
    <linearGradient
       id="linearGradient4321-0-0">
      <stop
         style="stop-color:#ff6702;stop-opacity:1;"
         offset="0"
         id="stop4323-3-9" />
      <stop
         style="stop-color:#ff9a55;stop-opacity:1;"
         offset="1"
         id="stop4325-1-1" />
    </linearGradient>
    <linearGradient
       id="linearGradient4466-5-9">
      <stop
         style="stop-color:#ffffff;stop-opacity:1;"
         offset="0"
         id="stop4468-2-7" />
      <stop
         style="stop-color:#ffffff;stop-opacity:0;"
         offset="1"
         id="stop4470-3-7" />
    </linearGradient>
    <linearGradient
       id="linearGradient4321-0-7">
      <stop
         style="stop-color:#ff6702;stop-opacity:1;"
         offset="0"
         id="stop4323-3-3" />
      <stop
         style="stop-color:#ff9a55;stop-opacity:1;"
         offset="1"
         id="stop4325-1-6" />
    </linearGradient>
    <linearGradient
       inkscape:collect="always"
       xlink:href="#linearGradient4431"
       id="linearGradient4437"
       x1="142.81854"
       y1="831.52283"
       x2="142.81854"
       y2="878.90735"
       gradientUnits="userSpaceOnUse" />
    <radialGradient
       inkscape:collect="always"
       xlink:href="#linearGradient4467"
       id="radialGradient4475"
       cx="116.51958"
       cy="98.282051"
       fx="116.51958"
       fy="98.282051"
       r="55.859375"
       gradientTransform="matrix(0.97442557,1.5088911,-0.83559154,0.53961599,79.641615,-130.28522)"
       gradientUnits="userSpaceOnUse" />
    <linearGradient
       inkscape:collect="always"
       xlink:href="#linearGradient4431-3"
       id="linearGradient4437-6"
       x1="142.81854"
       y1="831.52283"
       x2="142.81854"
       y2="878.90735"
       gradientUnits="userSpaceOnUse" />
    <linearGradient
       id="linearGradient4431-3">
      <stop
         style="stop-color:#ffffff;stop-opacity:1;"
         offset="0"
         id="stop4433-0" />
      <stop
         style="stop-color:#ffffff;stop-opacity:0;"
         offset="1"
         id="stop4435-2" />
    </linearGradient>
    <radialGradient
       inkscape:collect="always"
       xlink:href="#linearGradient4467-7"
       id="radialGradient4475-0"
       cx="116.51958"
       cy="98.282051"
       fx="116.51958"
       fy="98.282051"
       r="55.859375"
       gradientTransform="matrix(0.97442557,1.5088911,-0.83559154,0.53961599,225.10358,63.664066)"
       gradientUnits="userSpaceOnUse" />
    <linearGradient
       id="linearGradient4467-7">
      <stop
         style="stop-color:#000000;stop-opacity:1;"
         offset="0"
         id="stop4469-4" />
      <stop
         style="stop-color:#000000;stop-opacity:0.8974359;"
         offset="1"
         id="stop4471-7" />
    </linearGradient>
    <radialGradient
       inkscape:collect="always"
       xlink:href="#linearGradient4467"
       id="radialGradient3262"
       gradientUnits="userSpaceOnUse"
       gradientTransform="matrix(0.4356791,0.67464601,-0.37360449,0.24126974,102.90255,2.4301374)"
       cx="116.51958"
       cy="98.282051"
       fx="116.51958"
       fy="98.282051"
       r="55.859375" />
    <linearGradient
       inkscape:collect="always"
       xlink:href="#linearGradient4431"
       id="linearGradient3264"
       gradientUnits="userSpaceOnUse"
       x1="142.81854"
       y1="831.52283"
       x2="142.81854"
       y2="878.90735"
       gradientTransform="matrix(0.46790824,0,0,0.5776917,53.146458,-393.9702)" />
  </defs>
  <sodipodi:namedview
     id="base"
     pagecolor="#ffffff"
     bordercolor="#666666"
     borderopacity="1.0"
     inkscape:pageopacity="0"
     inkscape:pageshadow="2"
     inkscape:zoom="2.8"
     inkscape:cx="-3.3816139"
     inkscape:cy="-12.567178"
     inkscape:document-units="px"
     inkscape:current-layer="layer1"
     showgrid="false"
     showguides="false"
     inkscape:guide-bbox="true"
     inkscape:window-width="1920"
     inkscape:window-height="1153"
     inkscape:window-x="0"
     inkscape:window-y="24"
     inkscape:window-maximized="1"
     fit-margin-top="0"
     fit-margin-right="0"
     fit-margin-bottom="0"
     fit-margin-left="0"
     borderlayer="false"
     inkscape:showpageshadow="false"
     showborder="true">
    <sodipodi:guide
       orientation="0,1"
       position="72.563745,37.346999"
       id="guide2989" />
    <sodipodi:guide
       orientation="0,1"
       position="74.584055,7.2949693"
       id="guide2991" />
    <sodipodi:guide
       orientation="1,0"
       position="71.048515,20.426949"
       id="guide2993" />
    <sodipodi:guide
       orientation="1,0"
       position="97.817565,20.174409"
       id="guide2995" />
    <sodipodi:guide
       orientation="1,0"
       position="71.048515,20.426949"
       id="guide3017" />
    <inkscape:grid
       type="xygrid"
       id="grid3019"
       empspacing="5"
       visible="true"
       enabled="true"
       snapvisiblegridlinesonly="true" />
    <sodipodi:guide
       orientation="1,0"
       position="105.6589,-12.377861"
       id="guide3021" />
    <sodipodi:guide
       orientation="1,0"
       position="126.6589,-16.377861"
       id="guide3023" />
    <sodipodi:guide
       orientation="0,1"
       position="110.6589,-3.3778607"
       id="guide3025" />
    <sodipodi:guide
       orientation="0,1"
       position="110.6589,-27.377861"
       id="guide3027" />
    <sodipodi:guide
       orientation="0,1"
       position="19.658895,-35.37786"
       id="guide3810" />
    <sodipodi:guide
       orientation="0,1"
       position="21.658895,-70.377861"
       id="guide3814" />
    <sodipodi:guide
       orientation="0,1"
       position="2.301752,-9.4850007"
       id="guide3856" />
    <sodipodi:guide
       orientation="0,1"
       position="26.601806,-9.4850007"
       id="guide3887" />
    <sodipodi:guide
       orientation="0,1"
       position="44.658283,37.346999"
       id="guide4019" />
    <sodipodi:guide
       orientation="0,1"
       position="126.6589,-27.377861"
       id="guide4481" />
    <sodipodi:guide
       orientation="0,1"
       position="159.08747,-213.94929"
       id="guide4483" />
  </sodipodi:namedview>
  <metadata
     id="metadata7">
    <rdf:RDF>
      <cc:Work
         rdf:about="">
        <dc:format>image/svg+xml</dc:format>
        <dc:type
           rdf:resource="http://purl.org/dc/dcmitype/StillImage" />
        <dc:title></dc:title>
      </cc:Work>
    </rdf:RDF>
  </metadata>
  <g
     inkscape:label="Layer 1"
     inkscape:groupmode="layer"
     id="layer1"
     transform="translate(-42.341105,-35.859333)">
    <g
       id="g4365"
       transform="matrix(0.98921521,0.14646934,-0.14646934,0.98921521,103.28275,16.626127)">
      <circle
         id="path4442"
         style="fill:#000000;fill-opacity:1;stroke:none"
         cx="-22.273397"
         cy="53.814678"
         r="4.9246149" />
      <rect
         transform="matrix(0.98974903,0.14281759,-0.18972639,0.981837,0,0)"
         y="60.122704"
         x="-20.059675"
         height="4.1254816"
         width="28.2334"
         id="rect4444"
         style="fill:#000000;fill-opacity:1;stroke:none" />
      <rect
         y="61.485737"
         x="-6.0789847"
         height="2.178195"
         width="4.9246149"
         id="rect4446"
         style="fill:#000000;fill-opacity:1;stroke:none" />
      <path
         inkscape:connector-curvature="0"
         id="path3499-9-7"
         d="m -37.232153,43.480523 c -0.0428,1.639023 -2.89939,0.212225 -3.02351,2.085989 -3.16798,-1.410425 0.24664,2.153963 -0.0703,2.484436 l -0.0234,0 -0.23438,-0.0234 c -0.1529,-0.0546 -0.37484,-0.149284 -0.70314,-0.351572 -2.21248,1.762731 -2.26624,5.425401 -4.54699,7.453309 -1.49604,3.228859 -1.85987,6.737693 -2.9532,10.101811 -0.53848,3.227269 -1.01163,6.448551 -0.21094,9.679923 0.2404,2.626257 -0.51691,6.194137 1.87505,8.039257 3.54554,2.91236 6.49197,6.59674 9.46897,10.101809 4.66447,5.740148 8.79733,11.897175 12.44562,18.328575 0.24324,-1.5882 0.83218,3.19853 1.89849,3.51572 -0.36872,-2.3943 -0.84912,-6.19762 -1.07815,-9.14085 -1.18608,-7.718367 -4.98991,-14.737134 -6.42204,-22.383364 -0.044,-0.32279 -0.0961,-0.65404 -0.14063,-0.9844 l 0,-0.96096 -0.11719,0 c -0.46914,-3.78232 -0.63781,-7.849289 2.10943,-10.804955 2.80483,-2.829142 6.97992,-3.541922 10.35963,-5.507945 0.75147,-0.443404 1.53695,-0.803825 2.34381,-1.054714 0.007,-0.0023 0.0171,0.0023 0.0234,0 2.337809,-0.722575 4.83659,-0.69994 7.2658099,-0.304695 0.0359,0.006 0.0813,0.01748 0.11719,0.0234 0.22091,0.03698 0.46043,0.07425 0.6797,0.11719 1.77856,0.158502 5.35861,0.852674 6.00015,-0.375009 -2.45425,-2.089784 -5.98909,-1.94413 -8.9767899,-2.765693 -0.47295,-0.08602 -1.05889,-0.180312 -1.64066,-0.234381 l -2.929761,-0.656266 -0.726579,-0.187505 0,0.0234 -10.47682,-2.039113 c -0.1666,-0.151697 -0.34826,-0.307003 -0.51564,-0.421883 l 10.219,1.265656 0,-0.04688 c 0.36009,0.08024 0.71684,0.145211 1.07815,0.187504 l 0,0.0234 7.2189299,1.33597 c 1.24581,0.464652 2.57422,0.812825 3.82041,0.890647 2.05702,0.29931 4.66906,3.368273 5.34388,3.515712 -0.33073,-3.23033 -3.55674,-4.67701 -6.23453,-5.625139 -3.12848,-1.52106 -7.8019209,-1.465663 -8.2970809,-5.672014 -0.1317,-0.293077 -0.26177,-0.5859 -0.42188,-0.867209 l -1.218779,-1.617227 0.0469,-0.0234 c -1.662969,-1.962731 -4.005179,-3.391553 -6.492349,-3.937597 -2.46861,-0.852103 -5.24093,-1.700367 -7.85176,-2.039113 -0.88601,2.60876 -1.87737,-2.066758 -4.00791,-0.679704 -1.86751,0.221166 -1.60964,0.714438 -3.00007,-0.468761 z m 13.43002,7.617375 c 0.67641,-0.01785 1.44961,0.106563 2.22661,0.375009 2.072,0.71587 3.42122,2.223978 3.02351,3.375083 -0.3977,1.151106 -2.40467,1.489327 -4.47667,0.773457 -2.07199,-0.71587 -3.42121,-2.200539 -3.02351,-3.351645 0.24856,-0.71944 1.1227,-1.142136 2.25006,-1.171904 z"
         style="fill:#ff6600;fill-opacity:1" />
    </g>
    <path
       style="clip-rule:evenodd;fill:#5b5c5b;fill-rule:evenodd;stroke:none;fill-opacity:1"
       d="m 120.04643,102.09286 c -0.43314,-0.98797 -0.83618,-1.98331 -1.32813,-2.945307 -0.8231,-1.609588 -1.72712,-3.157091 -2.71484,-4.550785 -0.98772,-1.393694 -2.05859,-2.634277 -3.21094,-3.632813 -1.15234,-0.998535 -2.38616,-1.753627 -3.70312,-2.177734 -1.31697,-0.424107 -2.43581,-0.92937 -3.38477,-1.488281 -0.94895,-0.558912 -1.72813,-1.172446 -2.36719,-1.8125 -0.63905,-0.640054 -1.13812,-1.307076 -1.52539,-1.974609 -0.38727,-0.667534 -0.66382,-1.335212 -0.85742,-1.976563 -0.18332,-0.607313 -0.13102,-1.033317 -0.1914,-1.570313 -1.357644,0.636512 -2.71599,1.270627 -4.07032,1.914063 -4.240024,2.013867 -8.461397,4.065413 -12.697262,6.087891 -1.03643,0.494978 -1.03656,0.469858 -0.58984,1.550781 0.872287,2.111844 1.868552,4.186917 2.546871,6.359375 0.422758,1.352749 0.74125,2.868772 -0.01172,4.281245 -0.315228,0.59097 -0.665999,1.17476 -1.082031,1.69922 -1.650391,2.07899 -1.867441,4.27181 -0.726562,6.66016 1.228961,2.57241 1.925942,5.25405 2.201172,8.13281 0.331486,3.47149 -0.850894,6.28997 -2.841801,8.93164 -0.68087,0.9036 -1.45704,1.73729 -2.20312,2.5918 -0.62816,0.71994 -0.63855,0.99268 -0.01563,1.75391 0.13946,0.17011 0.27019,0.34837 0.41993,0.50976 1.4264,1.53887 3.1485,1.20495 3.822261,-0.75 0.245016,-0.71118 0.650143,-1.06558 1.464844,-0.91797 0.669947,0.12142 1.254808,-0.10323 1.833984,-0.51367 0.737348,-0.52253 0.776106,-1.32908 1.107422,-2.02343 0.159437,-0.33423 0.555328,-0.79127 0.84375,-0.79102 1.902328,0.004 3.050363,-0.83541 3.429688,-2.69141 0.01536,-0.0742 0.07272,-0.16247 0.136719,-0.20117 0.338253,-0.20463 0.691235,-0.5746 1.027343,-0.5625 1.781351,0.063 2.686981,-0.56866 2.953121,-2.29492 0.15378,-0.99767 0.457877,-1.19849 1.445317,-1.12109 1.592514,0.1251 2.259604,-0.3115 2.771484,-1.81446 0.11264,-0.33078 0.17724,-0.69557 0.36719,-0.97656 0.15704,-0.23317 0.47418,-0.53058 0.70508,-0.51758 1.59351,0.088 2.60894,-0.57724 3.12109,-2.07812 0.34932,-1.02408 0.95218,-1.61141 2.21875,-1.53321 1.0763,0.0662 1.88452,-0.57166 2.13867,-1.71484 0.0461,-0.20732 0.21285,-0.39063 0.24805,-0.59766 0.12429,-0.72459 0.51825,-0.90829 1.25586,-0.90429 1.51744,0.008 2.59257,-0.46303 2.80859,-2.08789 0.0245,-0.1861 0.0949,-0.36572 0.14649,-0.54883 0.17846,-0.63459 0.47338,-0.98155 1.26562,-0.90235 0.61972,0.0618 1.31156,-0.0877 1.89844,-0.32226 0.81456,-0.32524 0.93614,-1.17629 1.06055,-1.91992 0.0443,-0.26414 0.17594,-0.3928 0.2832,-0.5586 z"
       id="path4382"
       inkscape:connector-curvature="0" />
    <path
       id="path4349"
       d="m 77.598768,127.2339 c -1.773963,-2.14236 -2.609401,-4.73059 -3.614644,-7.23412 -0.391875,-0.97637 -0.736595,-1.97383 -1.176721,-2.92804 -1.315446,-2.84935 -1.830491,-5.82487 -1.43812,-8.92959 0.228693,-1.80941 -0.44488,-3.09869 -2.010617,-3.991 -0.810805,-0.46223 -2.474028,0.015 -3.147137,0.94737 -0.809326,1.12116 -1.066218,2.37936 -1.076983,3.7556 -0.02577,3.25831 0.436521,6.45561 1.703348,9.43306 1.545206,3.63208 2.081352,7.483 2.886836,11.27341 0.217435,1.02526 -0.200547,2.20009 -0.405295,3.29157 -0.166617,0.88769 -0.244576,1.78856 -0.916102,2.55344 -1.04388,1.18852 -2.431137,1.80092 -3.7912,2.46184 -0.676061,0.3287 -1.424303,0.54174 -2.162927,0.70709 -1.747451,0.39017 -3.348736,-0.91764 -3.186918,-2.69163 0.08554,-0.9371 0.309924,-1.95035 0.784098,-2.74599 1.209544,-2.02788 1.088133,-3.88752 0.103796,-5.99969 -1.809107,-3.88231 -3.177376,-7.92627 -3.368387,-12.27074 -0.03191,-0.72323 -0.209915,-1.44508 -0.365328,-2.1581 -0.216276,-0.99091 -0.852219,-1.63997 -1.784876,-2.03153 -0.904089,-0.37994 -1.802506,-0.77318 -2.699552,-1.16909 -2.433817,-1.07424 -2.657993,-3.04357 -1.267936,-5.0213 2.812201,-4.00036 6.757573,-5.973524 11.591067,-6.456804 2.173937,-0.217808 4.326209,-0.721074 6.12766,-2.02372 0.789549,-0.571002 1.505417,-1.368082 1.978814,-2.214168 0.887614,-1.586012 2.209027,-2.562892 3.886266,-3.015705 2.022103,-0.546181 4.092142,-0.919112 6.145918,-1.347168 0.550224,-0.11445 1.869869,0.87092 2.165191,1.611363 0.817908,2.052545 1.605986,4.117645 2.426416,6.169583 0.338702,0.8466 0.188655,1.626478 -0.165513,2.425042 -0.668179,1.507027 -1.320907,3.020857 -1.943772,4.546157 -0.781604,1.91249 -0.681442,3.74379 0.256456,5.64379 1.255835,2.54378 1.854053,5.31556 2.056629,8.12889 0.233325,3.23861 -0.674284,6.15505 -3.007161,8.54152 -0.663856,0.67926 -1.344444,1.34186 -2.001794,2.02716 -0.419379,0.43727 -0.830063,0.35849 -1.224032,0.007 -0.467244,-0.41592 -0.906153,-0.86215 -1.35748,-1.29532 z"
       style="clip-rule:evenodd;fill:#9c1421;fill-rule:evenodd"
       inkscape:connector-curvature="0" />
    <path
       inkscape:connector-curvature="0"
       style="fill:url(#radialGradient3262);fill-opacity:1;stroke:none"
       d="m 120.14974,85.657932 c -13.79383,0 -24.982483,11.119911 -24.982483,24.842758 0,13.72285 11.188653,24.84276 24.982483,24.84276 4.51359,0 8.7394,-1.18598 12.39343,-3.26952 l 1.29942,3.26952 1.07588,0 8.94227,0 0.0559,0 -3.94019,-9.7387 c 3.22609,-4.18597 5.14181,-9.42174 5.14181,-15.10406 0,-13.722847 -11.17469,-24.842758 -24.96851,-24.842758 z"
       id="path3834-7-7-2-5-5-0-5-4" />
    <ellipse
       ry="14.235973"
       rx="16.5439"
       cy="100.70187"
       cx="119.82338"
       style="fill:url(#linearGradient3264);fill-opacity:1;stroke:none"
       id="path3661" />
    <path
       style="clip-rule:evenodd;opacity:1;fill:#5b5c5b;fill-opacity:1;fill-rule:evenodd;stroke:none;stroke-opacity:1"
       d="m 140.81614,61.378172 c -0.54261,-0.122163 -1.18487,0.09771 -2.39649,0.654296 -1.92141,0.88269 -3.79317,1.87117 -5.70312,2.779297 -4.04479,1.923634 -8.10582,3.814819 -12.15039,5.738281 -4.06497,1.933237 -8.11313,3.902271 -12.17969,5.832032 -2.64053,1.253142 -5.28742,2.489838 -7.93359,3.730468 0.0604,0.536996 0.008,0.963 0.1914,1.570313 0.1936,0.641351 0.47015,1.309029 0.85742,1.976563 0.38727,0.667533 0.88634,1.334555 1.52539,1.974609 0.63906,0.640054 1.41824,1.253588 2.36719,1.8125 0.94896,0.558911 2.0678,1.064174 3.38477,1.488281 1.31696,0.424107 2.55078,1.179199 3.70312,2.177734 1.15235,0.998536 2.22322,2.239119 3.21094,3.632813 0.98772,1.393694 1.89174,2.941197 2.71484,4.550779 0.49195,0.962012 0.89499,1.957342 1.32813,2.945312 0.23322,-0.36051 0.56431,-0.58589 1.12305,-0.56445 0.40377,0.0153 0.82411,0.006 1.21484,-0.0859 1.21034,-0.28442 1.54422,-1.27918 1.74023,-2.308602 0.15104,-0.79435 0.50271,-1.04908 1.34766,-1.03124 1.48194,0.032 2.38474,-0.207877 2.87695,-2.013674 0.34125,-1.249649 0.49255,-1.262455 1.85157,-1.328124 1.44076,-0.06996 2.07802,-0.505451 2.35937,-2.050782 0.0442,-0.241459 0.0804,-0.484222 0.11914,-0.726562 0.10851,-0.669883 0.53717,-0.881661 1.16992,-0.800782 0.16463,0.02122 0.32882,0.04308 0.49414,0.05078 1.40544,0.06035 2.19664,-0.245155 2.47266,-1.621094 0.0637,-0.315989 0.23991,-0.611046 0.28711,-0.927734 0.10287,-0.69732 0.45783,-0.826659 1.14844,-0.792969 1.93594,0.0943 2.60595,-0.302842 2.88281,-2.234375 0.17032,-1.187057 0.41644,-1.372582 1.61133,-1.248047 1.71107,0.178151 2.27275,-0.197719 2.74219,-1.826172 0.0528,-0.18307 0.15211,-0.36011 0.16601,-0.544922 0.0605,-0.801817 0.459,-1.019969 1.26172,-0.943359 1.79428,0.17199 2.74191,-0.591929 2.99414,-2.330078 0.10183,-0.696851 0.30756,-1.086678 1.1543,-1.111328 1.72148,-0.0504 2.30931,-1.411677 1.85547,-2.673828 -0.24263,-0.676463 -0.5877,-1.361366 -1.05079,-1.90625 -1.1671,-1.373427 -2.44774,-2.652598 -3.64257,-4.003907 -0.78485,-0.886396 -1.5014,-1.831037 -2.24805,-2.75 0.003,-0.0023 0.006,-0.0056 0.008,-0.0078 -0.50359,-0.619813 -1.0032,-1.242236 -1.51172,-1.857422 -0.50826,-0.615743 -0.98257,-1.26725 -1.54687,-1.828125 -0.81567,-0.810841 -1.25818,-1.274322 -1.80078,-1.396484 z"
       id="path4347"
       inkscape:connector-curvature="0" />
  </g>
</svg>
