<?xml version="1.0" ?><!DOCTYPE svg  PUBLIC '-//W3C//DTD SVG 1.1//EN'  'http://www.w3.org/Graphics/SVG/1.1/DTD/svg11.dtd'><svg height="555.000" viewBox="-40.000 50.000 515.000 555.000" width="515.000" xmlns="http://www.w3.org/2000/svg"><path d="M351.010460248,427.693262491 331.838272782,417.386524981" fill="none" stroke="#808080"/><path d="M364.519896371,424.01313044 347.68995568,410.02626088" fill="none" stroke="#808080"/><path d="M370.299924973,421.825091218 354.938983291,405.650182435" fill="none" stroke="#808080"/><path d="M381.079943771,372.576883959 359.321903315,341.903767918" fill="none" stroke="#808080"/><path d="M284.8923151,157.475931256 299.660595842,128.974184588" fill="none" stroke="#808080"/><path d="M331.838272782,417.386524981 293.49389785,396.773049962" fill="none" stroke="#808080"/><path d="M347.68995568,410.02626088 314.030074298,382.05252176" fill="none" stroke="#808080"/><path d="M396.705431337,416.487807835 393.856695907,394.97561567" fill="none" stroke="#808080"/><path d="M354.938983291,405.650182435 324.217099927,373.30036487" fill="none" stroke="#808080"/><polygon fill="#808080" fill-rule="evenodd" points="268.55907586,220.977677923 269.9731217,231.187990081 274.611616146,229.321343549" stroke-linejoin="round"/><path d="M287.908765357,269.060389753 268.55907586,220.977677923" fill="none" stroke="#808080"/><path d="M267.736681564,301.0 287.908765357,269.060389753" fill="none" stroke="#808080"/><polygon fill="#808080" fill-rule="evenodd" points="278.878839345,336.0 285.012907126,344.283912871 288.189564032,340.422714754" stroke-linejoin="round"/><path d="M324.217099927,373.30036487 278.878839345,336.0" fill="none" stroke="#808080"/><path d="M385.660866655,438.0 370.299924973,421.825091218" fill="none" stroke="#808080"/><polygon fill="#808080" fill-rule="evenodd" points="273.026556163,336.0 277.809192796,345.131067125 281.543502427,341.806171401" stroke-linejoin="round"/><path d="M314.030074298,382.05252176 273.026556163,336.0" fill="none" stroke="#808080"/><path d="M381.349837062,438.0 364.519896371,424.01313044" fill="none" stroke="#808080"/><polygon fill="#808080" fill-rule="evenodd" points="268.675773045,336.0 272.020318002,345.750077899 276.215114077,343.029106402" stroke-linejoin="round"/><path d="M288.180961303,366.070247792 268.675773045,336.0" fill="none" stroke="#808080"/><path d="M307.686149561,396.140495584 288.180961303,366.070247792" fill="none" stroke="#808080"/><path d="M343.55949153,412.570247792 307.686149561,396.140495584" fill="none" stroke="#808080"/><path d="M378.468450435,438.0 343.55949153,412.570247792" fill="none" stroke="#808080"/><polygon fill="#808080" fill-rule="evenodd" points="262.170212766,336.0 262.528082983,346.30154983 267.33376876,344.921193277" stroke-linejoin="round"/><path d="M273.085106383,374.0 262.170212766,336.0" fill="none" stroke="#808080"/><path d="M293.49389785,396.773049962 273.085106383,374.0" fill="none" stroke="#808080"/><path d="M370.182647714,438.0 351.010460248,427.693262491" fill="none" stroke="#808080"/><polygon fill="#808080" fill-rule="evenodd" points="320.0,319.342781523 329.94445646,322.055305387 330.051002224,317.056440715" stroke-linejoin="round"/><path d="M356.869380382,320.128615218 320.0,319.342781523" fill="none" stroke="#808080"/><path d="M388.461085595,335.814307609 356.869380382,320.128615218" fill="none" stroke="#808080"/><path d="M416.889658047,384.0 388.461085595,335.814307609" fill="none" stroke="#808080"/><path d="M405.417107507,438.0 416.889658047,384.0" fill="none" stroke="#808080"/><polygon fill="#808080" fill-rule="evenodd" points="280.631126672,113.973020144 286.936682522,122.127158076 290.032093802,118.200527331" stroke-linejoin="round"/><path d="M299.660595842,128.974184588 280.631126672,113.973020144" fill="none" stroke="#808080"/><path d="M270.124034358,185.977677923 284.8923151,157.475931256" fill="none" stroke="#808080"/><path d="M402.837984227,403.25 381.079943771,372.576883959" fill="none" stroke="#808080"/><path d="M326.222824239,342.737807835 307.368684429,336.0" fill="none" stroke="#808080"/><polygon fill="#808080" fill-rule="evenodd" points="320.0,332.717644317 329.169087624,337.426978892 330.30652888,332.558074766" stroke-linejoin="round"/><path d="M359.321903315,341.903767918 320.0,332.717644317" fill="none" stroke="#808080"/><path d="M402.144592066,438.0 402.837984227,403.25" fill="none" stroke="#808080"/><polygon fill="#808080" fill-rule="evenodd" points="307.368684429,336.0 315.944136492,341.71940748 317.626745651,337.011029159" stroke-linejoin="round"/><path d="M345.07696405,349.47561567 326.222824239,342.737807835" fill="none" stroke="#808080"/><path d="M370.78524367,364.95123134 345.07696405,349.47561567" fill="none" stroke="#808080"/><path d="M393.856695907,394.97561567 370.78524367,364.95123134" fill="none" stroke="#808080"/><path d="M399.554166766,438.0 396.705431337,416.487807835" fill="none" stroke="#808080"/><polygon fill="#808080" fill-rule="evenodd" points="288.520633285,336.0 295.964728468,343.129898099 298.444198728,338.787982943" stroke-linejoin="round"/><path d="M348.290588866,370.131903085 288.520633285,336.0" fill="none" stroke="#808080"/><path d="M373.661177012,394.565951542 348.290588866,370.131903085" fill="none" stroke="#808080"/><path d="M393.888460278,438.0 373.661177012,394.565951542" fill="none" stroke="#808080"/><polygon fill="#808080" fill-rule="evenodd" points="248.271220106,220.977677923 240.378917685,227.608029535 244.427589317,230.542012838" stroke-linejoin="round"/><path d="M235.369520649,238.781032343 248.271220106,220.977677923" fill="none" stroke="#808080"/><polygon fill="#808080" fill-rule="evenodd" points="62.4340677686,232.664773925 64.3008412263,222.527458854 59.3107196094,222.841602529" stroke-linejoin="round"/><path d="M61.1331559812,212.0 62.4340677686,232.664773925" fill="none" stroke="#808080"/><polygon fill="#808080" fill-rule="evenodd" points="63.3459583397,267.664773925 60.7581071506,277.642400207 65.7579137761,277.686374145" stroke-linejoin="round"/><path d="M63.1495171723,290.0 63.3459583397,267.664773925" fill="none" stroke="#808080"/><polygon fill="#808080" fill-rule="evenodd" points="250.583721165,185.977677923 247.35962941,176.187109382 243.13160795,178.856160624" stroke-linejoin="round"/><path d="M234.678404072,160.782199871 250.583721165,185.977677923" fill="none" stroke="#808080"/><path d="M289.0,530.0 359.805378634,530.0" fill="none" stroke="#000"/><path d="M290.0,495.0 359.805378634,495.0" fill="none" stroke="#000"/><path d="M152.315424291,429.0 217.0,429.0" fill="none" stroke="#000"/><path d="M359.805378634,292.0 422.0,292.0" fill="none" stroke="#000"/><path d="M59.0,162.0 152.315424291,162.0" fill="none" stroke="#000"/><path d="M66.0,339.0 152.315424291,339.0" fill="none" stroke="#000"/><path d="M60.0,194.0 152.315424291,194.0" fill="none" stroke="#000"/><path d="M63.0,307.0 152.315424291,307.0" fill="none" stroke="#000"/><path d="M152.315424291,455.0 401.805378634,455.0" fill="none" stroke="#000"/><path d="M152.315424291,318.0 257.0,318.0" fill="none" stroke="#000"/><path d="M58.950005526,462.781032343 152.315424291,462.781032343" fill="none" stroke="#000"/><path d="M152.315424291,255.781032343 223.049994474,255.781032343" fill="none" stroke="#000"/><path d="M152.315424291,142.782199871 223.315424291,142.782199871" fill="none" stroke="#000"/><path d="M62.8224299296,124.664773925 152.315424291,124.664773925" fill="none" stroke="#000"/><path d="M63.5042706398,249.664773925 152.315424291,249.664773925" fill="none" stroke="#000"/><path d="M152.315424291,202.977677923 261.315424291,202.977677923" fill="none" stroke="#000"/><path d="M53.6376533912,527.456554223 152.315424291,527.456554223" fill="none" stroke="#000"/><path d="M52.7281161168,496.456554223 152.315424291,496.456554223" fill="none" stroke="#000"/><path d="M56.6868764526,421.45541573 152.315424291,421.45541573" fill="none" stroke="#000"/><path d="M359.805378634,140.927840366 359.805378634,593.0" fill="none" stroke="#000"/><path d="M152.315424291,62.664773925 152.315424291,590.456554223" fill="none" stroke="#000"/><polygon fill="#fff" fill-rule="evenodd" points="152.315424291,363.055332288 170.315424291,375.555332288 170.315424291,400.555332288 152.315424291,413.055332288 134.315424291,400.555332288 134.315424291,375.555332288" stroke="#000" stroke-linejoin="round"/><text fill="#000" font-family="DejaVu Sans Mono" font-size="10.0pt" stroke-width="0.0" text-anchor="middle" x="152.315424291" y="393">bus</text><polygon fill="#fff" fill-rule="evenodd" points="359.805378634,190.927840366 385.805378634,203.427840366 385.805378634,228.427840366 359.805378634,240.927840366 333.805378634,228.427840366 333.805378634,203.427840366" stroke="#000" stroke-linejoin="round"/><text fill="#000" font-family="DejaVu Sans Mono" font-size="10.0pt" stroke-width="0.0" text-anchor="middle" x="359.805378634" y="221">pci.0</text><rect fill="#fff" height="25.0" stroke="#000" width="108.0" x="2.6868764526" y="409.45541573"/><text fill="#000" font-family="DejaVu Sans Mono" font-size="10.0pt" stroke-width="0.0" text-anchor="middle" x="56.6868764526" y="426">CISCO_REMOTE</text><rect fill="#fff" height="25.0" stroke="#000" width="164.0" x="-29.2718838832" y="484.456554223"/><text fill="#000" font-family="DejaVu Sans Mono" font-size="10.0pt" stroke-width="0.0" text-anchor="middle" x="52.7281161168" y="501">CISCO_8MB_BOOTFLASH</text><rect fill="#fff" height="25.0" stroke="#000" width="164.0" x="-28.3623466088" y="515.456554223"/><text fill="#000" font-family="DejaVu Sans Mono" font-size="10.0pt" stroke-width="0.0" text-anchor="middle" x="53.6376533912" y="532">CISCO_8MB_BOOTFLASH</text><rect fill="#fff" height="25.0" stroke="#000" width="84.0" x="219.315424291" y="190.977677923"/><text fill="#000" font-family="DejaVu Sans Mono" font-size="10.0pt" stroke-width="0.0" text-anchor="middle" x="261.315424291" y="208">MPC860_IC</text><rect fill="#fff" height="25.0" stroke="#000" width="156.0" x="179.797536232" y="83.9730201439"/><text fill="#000" font-family="DejaVu Sans Mono" font-size="10.0pt" stroke-width="0.0" text-anchor="middle" x="257.797536232" y="101">MPC860-powerpc-cpu</text><rect fill="#fff" height="25.0" stroke="#000" width="92.0" x="17.5042706398" y="237.664773925"/><text fill="#000" font-family="DejaVu Sans Mono" font-size="10.0pt" stroke-width="0.0" text-anchor="middle" x="63.5042706398" y="255">MPC860_CPM</text><rect fill="#fff" height="25.0" stroke="#000" width="92.0" x="16.8224299296" y="112.664773925"/><text fill="#000" font-family="DejaVu Sans Mono" font-size="10.0pt" stroke-width="0.0" text-anchor="middle" x="62.8224299296" y="130">MPC860_SCC</text><rect fill="#fff" height="25.0" stroke="#000" width="68.0" x="189.315424291" y="130.782199871"/><text fill="#000" font-family="DejaVu Sans Mono" font-size="10.0pt" stroke-width="0.0" text-anchor="middle" x="223.315424291" y="148">NS16552</text><rect fill="#fff" height="25.0" stroke="#000" width="84.0" x="181.049994474" y="243.781032343"/><text fill="#000" font-family="DejaVu Sans Mono" font-size="10.0pt" stroke-width="0.0" text-anchor="middle" x="223.049994474" y="261">PPC32_PIT</text><rect fill="#fff" height="25.0" stroke="#000" width="100.0" x="8.950005526" y="450.781032343"/><text fill="#000" font-family="DejaVu Sans Mono" font-size="10.0pt" stroke-width="0.0" text-anchor="middle" x="58.950005526" y="468">CISCO_NVRAM</text><rect fill="#fff" height="25.0" stroke="#000" width="116.0" x="199.0" y="306.0"/><text fill="#000" font-family="DejaVu Sans Mono" font-size="10.0pt" stroke-width="0.0" text-anchor="middle" x="257.0" y="323">C2600_IO_FPGA</text><rect fill="#fff" height="25.0" stroke="#000" width="124.0" x="339.805378634" y="443.0"/><text fill="#000" font-family="DejaVu Sans Mono" font-size="10.0pt" stroke-width="0.0" text-anchor="middle" x="401.805378634" y="460">C2600_PCI_HOST</text><rect fill="#fff" height="25.0" stroke="#000" width="92.0" x="17.0" y="295.0"/><text fill="#000" font-family="DejaVu Sans Mono" font-size="10.0pt" stroke-width="0.0" text-anchor="middle" x="63.0" y="312">MPC860_DMA</text><rect fill="#fff" height="25.0" stroke="#000" width="92.0" x="14.0" y="182.0"/><text fill="#000" font-family="DejaVu Sans Mono" font-size="10.0pt" stroke-width="0.0" text-anchor="middle" x="60.0" y="199">MPC860_DMA</text><rect fill="#fff" height="25.0" stroke="#000" width="100.0" x="16.0" y="327.0"/><text fill="#000" font-family="DejaVu Sans Mono" font-size="10.0pt" stroke-width="0.0" text-anchor="middle" x="66.0" y="344">MPC860_PORT</text><rect fill="#fff" height="25.0" stroke="#000" width="100.0" x="9.0" y="150.0"/><text fill="#000" font-family="DejaVu Sans Mono" font-size="10.0pt" stroke-width="0.0" text-anchor="middle" x="59.0" y="167">MPC860_PORT</text><rect fill="#fff" height="25.0" stroke="#000" width="84.0" x="380.0" y="280.0"/><text fill="#000" font-family="DejaVu Sans Mono" font-size="10.0pt" stroke-width="0.0" text-anchor="middle" x="422.0" y="297">C2600_PCI</text><rect fill="#fff" height="25.0" stroke="#000" width="92.0" x="171.0" y="417.0"/><text fill="#000" font-family="DejaVu Sans Mono" font-size="10.0pt" stroke-width="0.0" text-anchor="middle" x="217.0" y="434">MPC860_WDT</text><rect fill="#fff" height="25.0" stroke="#000" width="76.0" x="252.0" y="483.0"/><text fill="#000" font-family="DejaVu Sans Mono" font-size="10.0pt" stroke-width="0.0" text-anchor="middle" x="290.0" y="500">AM79C971</text><rect fill="#fff" height="25.0" stroke="#000" width="76.0" x="251.0" y="518.0"/><text fill="#000" font-family="DejaVu Sans Mono" font-size="10.0pt" stroke-width="0.0" text-anchor="middle" x="289.0" y="535">AM79C971</text></svg>