<?xml version="1.0" ?><!DOCTYPE svg  PUBLIC '-//W3C//DTD SVG 1.1//EN'  'http://www.w3.org/Graphics/SVG/1.1/DTD/svg11.dtd'><svg height="714.000" viewBox="153.000 183.000 780.000 714.000" width="780.000" xmlns="http://www.w3.org/2000/svg"><polygon fill="#808080" fill-rule="evenodd" points="403.310348714,435.0 403.207883759,445.307254772 408.070411294,444.142855366" stroke-linejoin="round"/><path d="M484.810202801,775.343083755 403.310348714,435.0" fill="none" stroke="#808080"/><polygon fill="#808080" fill-rule="evenodd" points="485.374984942,775.231476176 485.809936162,764.932892903 480.912373301,765.939808008" stroke-linejoin="round"/><path d="M424.676829268,480.0 485.374984942,775.231476176" fill="none" stroke="#808080"/><polygon fill="#808080" fill-rule="evenodd" points="392.311309212,435.0 386.484645146,443.502939837 391.171518489,445.244553534" stroke-linejoin="round"/><path d="M263.694172954,781.122810285 392.311309212,435.0" fill="none" stroke="#808080"/><polygon fill="#808080" fill-rule="evenodd" points="265.110101431,781.79218195 271.738372289,773.898131948 267.243728657,771.707657427" stroke-linejoin="round"/><path d="M412.189189189,480.0 265.110101431,781.79218195" fill="none" stroke="#808080"/><polygon fill="#808080" fill-rule="evenodd" points="399.448302116,435.0 397.198056644,445.05914486 402.196506634,444.934655099" stroke-linejoin="round"/><path d="M408.040760719,780.000055381 399.448302116,435.0" fill="none" stroke="#808080"/><polygon fill="#808080" fill-rule="evenodd" points="409.093669743,780.03992358 411.965073187,770.140173974 406.96855532,769.953601719" stroke-linejoin="round"/><path d="M420.297297297,480.0 409.093669743,780.03992358" fill="none" stroke="#808080"/><polygon fill="#808080" fill-rule="evenodd" points="398.021256492,435.0 394.981999718,444.849513605 399.974624565,445.120985781" stroke-linejoin="round"/><path d="M379.259127325,780.052940143 398.021256492,435.0" fill="none" stroke="#808080"/><polygon fill="#808080" fill-rule="evenodd" points="380.458542423,780.202852668 384.201379004,770.598625769 379.2414091,769.967199955" stroke-linejoin="round"/><path d="M418.675675676,480.0 380.458542423,780.202852668" fill="none" stroke="#808080"/><polygon fill="#808080" fill-rule="evenodd" points="399.958640769,435.0 397.994003245,445.118804248 402.986927306,444.852891994" stroke-linejoin="round"/><path d="M415.669891289,730.003632832 399.958640769,435.0" fill="none" stroke="#808080"/><polygon fill="#808080" fill-rule="evenodd" points="416.862217851,730.024801157 419.514683604,720.064157331 414.515267009,719.987778603" stroke-linejoin="round"/><path d="M420.681978799,480.0 416.862217851,730.024801157" fill="none" stroke="#808080"/><polygon fill="#808080" fill-rule="evenodd" points="388.638347135,435.0 381.482760578,442.419405705 385.816079328,444.913869296" stroke-linejoin="round"/><path d="M229.003487013,712.31362165 388.638347135,435.0" fill="none" stroke="#808080"/><polygon fill="#808080" fill-rule="evenodd" points="230.616591154,713.488215838 238.644558663,707.022789505 234.657538328,704.005560834" stroke-linejoin="round"/><path d="M407.311787072,480.0 230.616591154,713.488215838" fill="none" stroke="#808080"/><polygon fill="#808080" fill-rule="evenodd" points="364.0,414.541819172 354.199725898,411.347350902 353.849420136,416.335064393" stroke-linejoin="round"/><path d="M255.87301692,406.947656978 364.0,414.541819172" fill="none" stroke="#808080"/><polygon fill="#808080" fill-rule="evenodd" points="255.119649693,410.063150457 263.919228977,415.43133492 265.410188808,410.65880532" stroke-linejoin="round"/><path d="M394.0,453.45 255.119649693,410.063150457" fill="none" stroke="#808080"/><polygon fill="#808080" fill-rule="evenodd" points="396.425657516,435.0 392.535055875,444.54532445 397.484691103,445.253216464" stroke-linejoin="round"/><path d="M350.626427506,755.2317273 396.425657516,435.0" fill="none" stroke="#808080"/><polygon fill="#808080" fill-rule="evenodd" points="352.06040782,755.560017717 356.779166921,746.395776747 351.911434805,745.253330226" stroke-linejoin="round"/><path d="M416.733766234,480.0 352.06040782,755.560017717" fill="none" stroke="#808080"/><polygon fill="#808080" fill-rule="evenodd" points="435.459637462,390.0 430.128480324,398.822061186 434.907233487,400.292951464" stroke-linejoin="round"/><path d="M322.863929879,755.810490279 435.459637462,390.0" fill="none" stroke="#808080"/><polygon fill="#808080" fill-rule="evenodd" points="394.897323005,435.0 390.237563942,444.194381191 395.11253851,445.30551708" stroke-linejoin="round"/><path d="M321.846520485,755.501576632 394.897323005,435.0" fill="none" stroke="#808080"/><polygon fill="#808080" fill-rule="evenodd" points="323.353643057,755.987915715 328.877153717,747.284994941 324.131836805,745.709568839" stroke-linejoin="round"/><path d="M414.980519481,480.0 323.353643057,755.987915715" fill="none" stroke="#808080"/><polygon fill="#808080" fill-rule="evenodd" points="434.103521739,390.0 428.191236699,398.443629883 432.860272532,400.232513445" stroke-linejoin="round"/><path d="M293.809699155,756.170777472 434.103521739,390.0" fill="none" stroke="#808080"/><polygon fill="#808080" fill-rule="evenodd" points="393.368739227,435.0 387.997001671,443.797410734 392.768928788,445.290297733" stroke-linejoin="round"/><path d="M292.990144494,755.854383791 393.368739227,435.0" fill="none" stroke="#808080"/><polygon fill="#808080" fill-rule="evenodd" points="294.52338212,756.492761729 300.765625481,748.290054991 296.171146621,746.317553026" stroke-linejoin="round"/><path d="M413.227272727,480.0 294.52338212,756.492761729" fill="none" stroke="#808080"/><polygon fill="#808080" fill-rule="evenodd" points="458.553010087,390.0 463.744774463,398.904806717 467.324475932,395.413999161" stroke-linejoin="round"/><path d="M901.5305356,844.258011581 458.553010087,390.0" fill="none" stroke="#808080"/><polygon fill="#808080" fill-rule="evenodd" points="420.080557283,435.0 426.062032405,443.394757611 429.30880362,439.592327246" stroke-linejoin="round"/><path d="M900.575955182,845.279341586 420.080557283,435.0" fill="none" stroke="#808080"/><polygon fill="#808080" fill-rule="evenodd" points="900.264413889,845.657836512 894.02005865,837.456737339 890.895347891,841.360092649" stroke-linejoin="round"/><path d="M443.488549618,480.0 900.264413889,845.657836512" fill="none" stroke="#808080"/><polygon fill="#808080" fill-rule="evenodd" points="457.435560077,390.0 462.332253638,399.07041301 466.024601694,395.698979215" stroke-linejoin="round"/><path d="M871.897080816,843.91257361 457.435560077,390.0" fill="none" stroke="#808080"/><polygon fill="#808080" fill-rule="evenodd" points="418.848298883,435.0 424.576412784,443.569638915 427.935288285,439.86586309" stroke-linejoin="round"/><path d="M870.877520413,844.935684433 418.848298883,435.0" fill="none" stroke="#808080"/><polygon fill="#808080" fill-rule="evenodd" points="870.565626615,845.291493148 864.577928856,836.901172799 861.333977841,840.706009433" stroke-linejoin="round"/><path d="M442.114503817,480.0 870.565626615,845.291493148" fill="none" stroke="#808080"/><polygon fill="#808080" fill-rule="evenodd" points="456.318146599,390.0 460.895186149,399.235838292 464.702987751,395.995368117" stroke-linejoin="round"/><path d="M842.300027172,843.558386166 456.318146599,390.0" fill="none" stroke="#808080"/><polygon fill="#808080" fill-rule="evenodd" points="417.616087282,435.0 423.067335183,443.748365352 426.542889713,440.153852769" stroke-linejoin="round"/><path d="M841.212335396,844.577606206 417.616087282,435.0" fill="none" stroke="#808080"/><polygon fill="#808080" fill-rule="evenodd" points="840.903908181,844.906598871 835.199339883,836.321268328 831.830310015,840.015809944" stroke-linejoin="round"/><path d="M440.740458015,480.0 840.903908181,844.906598871" fill="none" stroke="#808080"/><polygon fill="#808080" fill-rule="evenodd" points="455.200770736,390.0 459.431867863,399.399351951 463.357316178,396.302441309" stroke-linejoin="round"/><path d="M812.742598052,843.19743633 455.200770736,390.0" fill="none" stroke="#808080"/><polygon fill="#808080" fill-rule="evenodd" points="416.383925553,435.0 421.532551893,443.929817849 425.129098371,440.456368059" stroke-linejoin="round"/><path d="M811.58423327,844.205936658 416.383925553,435.0" fill="none" stroke="#808080"/><polygon fill="#808080" fill-rule="evenodd" points="811.284206979,844.503725426 805.892192659,835.718727898 802.392430801,839.289675523" stroke-linejoin="round"/><path d="M439.366412214,480.0 811.284206979,844.503725426" fill="none" stroke="#808080"/><polygon fill="#808080" fill-rule="evenodd" points="454.083433027,390.0 457.940712737,399.558838488 461.98519206,396.619078802" stroke-linejoin="round"/><path d="M783.227976369,842.832354319 454.083433027,390.0" fill="none" stroke="#808080"/><polygon fill="#808080" fill-rule="evenodd" points="415.151816503,435.0 419.969739054,444.112498137 423.691159054,440.773181861" stroke-linejoin="round"/><path d="M781.997313721,843.822063375 415.151816503,435.0" fill="none" stroke="#808080"/><polygon fill="#808080" fill-rule="evenodd" points="779.57560248,846.595575793 772.776476026,838.848196915 769.930547902,842.959242173" stroke-linejoin="round"/><path d="M575.035714286,705.0 779.57560248,846.595575793" fill="none" stroke="#808080"/><polygon fill="#808080" fill-rule="evenodd" points="452.966133263,390.0 456.420351218,399.711764944 460.584214961,396.94369003" stroke-linejoin="round"/><path d="M753.75915947,842.466502988 452.966133263,390.0" fill="none" stroke="#808080"/><polygon fill="#808080" fill-rule="evenodd" points="413.91976245,435.0 418.376563808,444.294456501 422.226096119,441.103672744" stroke-linejoin="round"/><path d="M752.45586453,843.428073707 413.91976245,435.0" fill="none" stroke="#808080"/><polygon fill="#808080" fill-rule="evenodd" points="752.192952082,843.650030347 747.526935614,834.458823118 743.750604737,837.735914071" stroke-linejoin="round"/><path d="M436.618320611,480.0 752.192952082,843.650030347" fill="none" stroke="#808080"/><polygon fill="#808080" fill-rule="evenodd" points="450.924449243,345.0 453.563483458,354.964210877 457.942049258,352.55005232" stroke-linejoin="round"/><path d="M724.847554353,841.815064609 450.924449243,345.0" fill="none" stroke="#808080"/><polygon fill="#808080" fill-rule="evenodd" points="412.687764941,435.0 416.750782142,444.473219686 420.730765853,441.446715158" stroke-linejoin="round"/><path d="M722.964232693,843.026908955 412.687764941,435.0" fill="none" stroke="#808080"/><polygon fill="#808080" fill-rule="evenodd" points="722.733275936,843.20475413 718.48712567,833.812192823 714.56664391,836.915388396" stroke-linejoin="round"/><path d="M435.244274809,480.0 722.733275936,843.20475413" fill="none" stroke="#808080"/><polygon fill="#808080" fill-rule="evenodd" points="449.902337556,345.0 452.094613824,355.071937488 456.576434257,352.855344246" stroke-linejoin="round"/><path d="M695.459094462,841.50123877 449.902337556,345.0" fill="none" stroke="#808080"/><polygon fill="#808080" fill-rule="evenodd" points="411.455824401,435.0 415.090373565,444.645727157 419.201945266,441.800559649" stroke-linejoin="round"/><path d="M693.52663134,842.622519499 411.455824401,435.0" fill="none" stroke="#808080"/><polygon fill="#808080" fill-rule="evenodd" points="693.338945273,842.753117498 689.554609988,833.16516639 685.487848911,836.074024302" stroke-linejoin="round"/><path d="M433.870229008,480.0 693.338945273,842.753117498" fill="none" stroke="#808080"/><polygon fill="#808080" fill-rule="evenodd" points="448.880244558,345.0 450.600524808,355.16320008 455.180821286,353.157985835" stroke-linejoin="round"/><path d="M666.113720163,841.203199296 448.880244558,345.0" fill="none" stroke="#808080"/><polygon fill="#808080" fill-rule="evenodd" points="410.223939713,435.0 413.393716922,444.808287947 417.636466872,442.162711855" stroke-linejoin="round"/><path d="M664.146870276,842.220001818 410.223939713,435.0" fill="none" stroke="#808080"/><polygon fill="#808080" fill-rule="evenodd" points="664.015550494,842.301631361 660.737462106,832.529009578 656.524238724,835.221359618" stroke-linejoin="round"/><path d="M432.496183206,480.0 664.015550494,842.301631361" fill="none" stroke="#808080"/><polygon fill="#808080" fill-rule="evenodd" points="447.858166125,345.0 449.082408149,355.234804906 453.754758455,353.454596318" stroke-linejoin="round"/><path d="M636.810642594,840.926245359 447.858166125,345.0" fill="none" stroke="#808080"/><polygon fill="#808080" fill-rule="evenodd" points="408.992107762,435.0 411.659807484,444.956574622 416.031407338,442.529824797" stroke-linejoin="round"/><path d="M634.828003636,841.825689082 408.992107762,435.0" fill="none" stroke="#808080"/><polygon fill="#808080" fill-rule="evenodd" points="634.767684653,841.858705744 632.041923895,831.917869346 627.684560973,834.370090455" stroke-linejoin="round"/><path d="M431.122137405,480.0 634.767684653,841.858705744" fill="none" stroke="#808080"/><polygon fill="#808080" fill-rule="evenodd" points="446.836097159,345.0 447.542187253,355.283551759 452.298436305,353.741444449" stroke-linejoin="round"/><path d="M607.547923797,840.675928739 446.836097159,345.0" fill="none" stroke="#808080"/><polygon fill="#808080" fill-rule="evenodd" points="407.760322986,435.0 409.888508157,445.085674389 414.384333143,442.897625557" stroke-linejoin="round"/><path d="M605.571899701,841.44715799 407.760322986,435.0" fill="none" stroke="#808080"/><polygon fill="#808080" fill-rule="evenodd" points="605.598224139,841.434703622 603.47127032,831.348769483 598.975178234,833.536269414" stroke-linejoin="round"/><path d="M429.748091603,480.0 605.598224139,841.434703622" fill="none" stroke="#808080"/><polygon fill="#808080" fill-rule="evenodd" points="445.814031654,345.0 445.98257021,355.306386115 450.812806199,354.01455784" stroke-linejoin="round"/><path d="M578.322345663,840.457824833 445.814031654,345.0" fill="none" stroke="#808080"/><polygon fill="#808080" fill-rule="evenodd" points="406.528576986,435.0 408.080817051,445.190218387 412.693597461,443.260903252" stroke-linejoin="round"/><path d="M576.378756598,841.093108808 406.528576986,435.0" fill="none" stroke="#808080"/><polygon fill="#808080" fill-rule="evenodd" points="576.507493036,841.041763462 575.024518524,830.841234721 570.398737294,832.739167284" stroke-linejoin="round"/><path d="M428.374045802,480.0 576.507493036,841.041763462" fill="none" stroke="#808080"/><polygon fill="#808080" fill-rule="evenodd" points="444.791962849,345.0 444.407057138,355.30057511 449.299669626,354.269874844" stroke-linejoin="round"/><path d="M549.129348041,840.277250348 444.791962849,345.0" fill="none" stroke="#808080"/><polygon fill="#808080" fill-rule="evenodd" points="405.296858304,435.0 406.239120531,445.264606271 410.958669102,443.613588015" stroke-linejoin="round"/><path d="M547.246612533,840.773078071 405.296858304,435.0" fill="none" stroke="#808080"/><polygon fill="#808080" fill-rule="evenodd" points="547.492409952,840.693301151 546.695141108,830.416416293 541.952756333,832.000646908" stroke-linejoin="round"/><path d="M427.0,480.0 547.492409952,840.693301151" fill="none" stroke="#808080"/><polygon fill="#808080" fill-rule="evenodd" points="435.7919664,345.0 430.611113616,353.911159545 435.414112553,355.300836202" stroke-linejoin="round"/><path d="M373.923151826,558.830928891 435.7919664,345.0" fill="none" stroke="#808080"/><polygon fill="#808080" fill-rule="evenodd" points="395.688715041,435.0 391.420728708,444.382659146 396.338213757,445.287281051" stroke-linejoin="round"/><path d="M372.963527206,558.533125697 395.688715041,435.0" fill="none" stroke="#808080"/><polygon fill="#808080" fill-rule="evenodd" points="377.13395942,560.396877206 383.454637663,552.254455789 378.879300732,550.237950899" stroke-linejoin="round"/><path d="M412.567567568,480.0 377.13395942,560.396877206" fill="none" stroke="#808080"/><path d="M531.0,822.0 862.0,822.0" fill="none" stroke="#000"/><path d="M531.0,822.0 734.0,822.0" fill="none" stroke="#000"/><path d="M531.0,822.0 606.0,822.0" fill="none" stroke="#000"/><path d="M531.0,777.0 751.0,777.0" fill="none" stroke="#000"/><path d="M531.0,777.0 623.0,777.0" fill="none" stroke="#000"/><path d="M531.0,732.0 751.0,732.0" fill="none" stroke="#000"/><path d="M531.0,732.0 623.0,732.0" fill="none" stroke="#000"/><path d="M531.0,687.0 718.0,687.0" fill="none" stroke="#000"/><path d="M531.0,625.0 531.0,885.0" fill="none" stroke="#000"/><path d="M348.0,687.0 549.0,687.0" fill="none" stroke="#000"/><path d="M467.0,625.0 467.0,820.0" fill="none" stroke="#000"/><path d="M348.0,687.0 509.0,687.0" fill="none" stroke="#000"/><path d="M267.0,687.0 614.0,687.0" fill="none" stroke="#000"/><path d="M395.0,687.0 534.0,687.0" fill="none" stroke="#000"/><path d="M267.0,625.0 267.0,775.0" fill="none" stroke="#000"/><path d="M395.0,625.0 395.0,775.0" fill="none" stroke="#000"/><path d="M331.0,687.0 348.0,687.0" fill="none" stroke="#000"/><path d="M348.0,642.0 643.0,642.0" fill="none" stroke="#000"/><path d="M220.0,642.0 559.0,642.0" fill="none" stroke="#000"/><path d="M220.0,642.0 355.0,642.0" fill="none" stroke="#000"/><path d="M220.0,642.0 271.0,642.0" fill="none" stroke="#000"/><path d="M220.0,597.0 635.0,597.0" fill="none" stroke="#000"/><path d="M483.0,597.0 559.0,597.0" fill="none" stroke="#000"/><path d="M483.0,535.0 483.0,685.0" fill="none" stroke="#000"/><path d="M220.0,597.0 469.0,597.0" fill="none" stroke="#000"/><path d="M220.0,597.0 295.0,597.0" fill="none" stroke="#000"/><path d="M220.0,552.0 589.0,552.0" fill="none" stroke="#000"/><path d="M220.0,552.0 497.0,552.0" fill="none" stroke="#000"/><path d="M220.0,552.0 425.0,552.0" fill="none" stroke="#000"/><path d="M220.0,507.0 529.0,507.0" fill="none" stroke="#000"/><polygon fill="#808080" fill-rule="evenodd" points="428.466666667,490.0 428.30562751,479.693493978 423.474452812,480.98180723" stroke-linejoin="round"/><path d="M425.8,480.0 428.466666667,490.0" fill="none" stroke="#808080"/><polygon fill="#808080" fill-rule="evenodd" points="425.8,480.0 425.961039157,490.306506022 430.792213855,489.01819277" stroke-linejoin="round"/><path d="M428.466666667,490.0 425.8,480.0" fill="none" stroke="#808080"/><path d="M220.0,507.0 433.0,507.0" fill="none" stroke="#000"/><polygon fill="#808080" fill-rule="evenodd" points="448.0,462.0 458.0,464.5 458.0,459.5" stroke-linejoin="round"/><path d="M458.0,462.0 448.0,462.0" fill="none" stroke="#808080"/><path d="M220.0,462.0 513.0,462.0" fill="none" stroke="#000"/><path d="M378.0,462.0 421.0,462.0" fill="none" stroke="#000"/><path d="M348.0,417.0 467.0,417.0" fill="none" stroke="#000"/><path d="M378.0,417.0 399.0,417.0" fill="none" stroke="#000"/><polygon fill="#808080" fill-rule="evenodd" points="441.0,345.0 438.5,355.0 443.5,355.0" stroke-linejoin="round"/><path d="M441.0,355.0 441.0,345.0" fill="none" stroke="#808080"/><path d="M220.0,372.0 441.0,372.0" fill="none" stroke="#000"/><path d="M220.0,327.0 441.0,327.0" fill="none" stroke="#000"/><path d="M220.0,265.0 220.0,705.0" fill="none" stroke="#000"/><path d="M226.0,347.0 348.0,347.0" fill="none" stroke="#000"/><path d="M194.0,302.0 348.0,302.0" fill="none" stroke="#000"/><path d="M348.0,240.0 348.0,750.0" fill="none" stroke="#000"/><path d="M306.0,302.0 378.0,302.0" fill="none" stroke="#000"/><path d="M298.0,302.0 378.0,302.0" fill="none" stroke="#000"/><path d="M302.0,257.0 378.0,257.0" fill="none" stroke="#000"/><path d="M378.0,195.0 378.0,525.0" fill="none" stroke="#000"/><rect fill="#fff" height="25.0" stroke="#000" width="148.0" x="200.0" y="200.0"/><text fill="#000" font-family="DejaVu Sans Mono" font-size="10.0pt" stroke-width="0.0" text-anchor="middle" x="274.0" y="217">qemu64-x86_64-cpu</text><rect fill="#fff" height="25.0" stroke="#000" width="44.0" x="200.0" y="245.0"/><text fill="#000" font-family="DejaVu Sans Mono" font-size="10.0pt" stroke-width="0.0" text-anchor="middle" x="222.0" y="262">apic</text><rect fill="#fff" height="25.0" stroke="#000" width="76.0" x="264.0" y="245.0"/><text fill="#000" font-family="DejaVu Sans Mono" font-size="10.0pt" stroke-width="0.0" text-anchor="middle" x="302.0" y="262">kvmvapic</text><polygon fill="#fff" fill-rule="evenodd" points="378.0,245.0 396.0,257.5 396.0,282.5 378.0,295.0 360.0,282.5 360.0,257.5" stroke="#000" stroke-linejoin="round"/><text fill="#000" font-family="DejaVu Sans Mono" font-size="10.0pt" stroke-width="0.0" text-anchor="middle" x="378.0" y="275">bus</text><rect fill="#fff" height="25.0" stroke="#000" width="84.0" x="256.0" y="290.0"/><text fill="#000" font-family="DejaVu Sans Mono" font-size="10.0pt" stroke-width="0.0" text-anchor="middle" x="298.0" y="307">fw_cfg_io</text><rect fill="#fff" height="25.0" stroke="#000" width="124.0" x="244.0" y="290.0"/><text fill="#000" font-family="DejaVu Sans Mono" font-size="10.0pt" stroke-width="0.0" text-anchor="middle" x="306.0" y="307">i440FX-pcihost</text><polygon fill="#fff" fill-rule="evenodd" points="348.0,335.0 374.0,347.5 374.0,372.5 348.0,385.0 322.0,372.5 322.0,347.5" stroke="#000" stroke-linejoin="round"/><text fill="#000" font-family="DejaVu Sans Mono" font-size="10.0pt" stroke-width="0.0" text-anchor="middle" x="348.0" y="365">pci.0</text><rect fill="#fff" height="25.0" stroke="#000" width="60.0" x="164.0" y="290.0"/><text fill="#000" font-family="DejaVu Sans Mono" font-size="10.0pt" stroke-width="0.0" text-anchor="middle" x="194.0" y="307">i440FX</text><rect fill="#fff" height="25.0" stroke="#000" width="52.0" x="200.0" y="335.0"/><text fill="#000" font-family="DejaVu Sans Mono" font-size="10.0pt" stroke-width="0.0" text-anchor="middle" x="226.0" y="352">PIIX3</text><polygon fill="#fff" fill-rule="evenodd" points="220.0,335.0 246.0,347.5 246.0,372.5 220.0,385.0 194.0,372.5 194.0,347.5" stroke="#000" stroke-linejoin="round"/><text fill="#000" font-family="DejaVu Sans Mono" font-size="10.0pt" stroke-width="0.0" text-anchor="middle" x="220.0" y="365">isa.0</text><rect fill="#fff" height="25.0" stroke="#000" width="84.0" x="399.0" y="315.0"/><text fill="#000" font-family="DejaVu Sans Mono" font-size="10.0pt" stroke-width="0.0" text-anchor="middle" x="441.0" y="332">isa-i8259</text><rect fill="#fff" height="25.0" stroke="#000" width="84.0" x="399.0" y="360.0"/><text fill="#000" font-family="DejaVu Sans Mono" font-size="10.0pt" stroke-width="0.0" text-anchor="middle" x="441.0" y="377">isa-i8259</text><rect fill="#fff" height="25.0" stroke="#000" width="60.0" x="369.0" y="405.0"/><text fill="#000" font-family="DejaVu Sans Mono" font-size="10.0pt" stroke-width="0.0" text-anchor="middle" x="399.0" y="422">ioapic</text><rect fill="#fff" height="25.0" stroke="#000" width="36.0" x="449.0" y="405.0"/><text fill="#000" font-family="DejaVu Sans Mono" font-size="10.0pt" stroke-width="0.0" text-anchor="middle" x="467.0" y="422">VGA</text><rect fill="#fff" height="25.0" stroke="#000" width="44.0" x="399.0" y="450.0"/><text fill="#000" font-family="DejaVu Sans Mono" font-size="10.0pt" stroke-width="0.0" text-anchor="middle" x="421.0" y="467">hpet</text><rect fill="#fff" height="25.0" stroke="#000" width="100.0" x="463.0" y="450.0"/><text fill="#000" font-family="DejaVu Sans Mono" font-size="10.0pt" stroke-width="0.0" text-anchor="middle" x="513.0" y="467">mc146818rtc</text><rect fill="#fff" height="25.0" stroke="#000" width="68.0" x="399.0" y="495.0"/><text fill="#000" font-family="DejaVu Sans Mono" font-size="10.0pt" stroke-width="0.0" text-anchor="middle" x="433.0" y="512">isa-pit</text><rect fill="#fff" height="25.0" stroke="#000" width="84.0" x="487.0" y="495.0"/><text fill="#000" font-family="DejaVu Sans Mono" font-size="10.0pt" stroke-width="0.0" text-anchor="middle" x="529.0" y="512">isa-pcspk</text><rect fill="#fff" height="25.0" stroke="#000" width="52.0" x="399.0" y="540.0"/><text fill="#000" font-family="DejaVu Sans Mono" font-size="10.0pt" stroke-width="0.0" text-anchor="middle" x="425.0" y="557">i8257</text><rect fill="#fff" height="25.0" stroke="#000" width="52.0" x="471.0" y="540.0"/><text fill="#000" font-family="DejaVu Sans Mono" font-size="10.0pt" stroke-width="0.0" text-anchor="middle" x="497.0" y="557">i8257</text><rect fill="#fff" height="25.0" stroke="#000" width="92.0" x="543.0" y="540.0"/><text fill="#000" font-family="DejaVu Sans Mono" font-size="10.0pt" stroke-width="0.0" text-anchor="middle" x="589.0" y="557">isa-serial</text><rect fill="#fff" height="25.0" stroke="#000" width="108.0" x="241.0" y="585.0"/><text fill="#000" font-family="DejaVu Sans Mono" font-size="10.0pt" stroke-width="0.0" text-anchor="middle" x="295.0" y="602">isa-parallel</text><rect fill="#fff" height="25.0" stroke="#000" width="68.0" x="435.0" y="585.0"/><text fill="#000" font-family="DejaVu Sans Mono" font-size="10.0pt" stroke-width="0.0" text-anchor="middle" x="469.0" y="602">isa-fdc</text><polygon fill="#fff" fill-rule="evenodd" points="483.0,585.0 509.0,597.5 509.0,622.5 483.0,635.0 457.0,622.5 457.0,597.5" stroke="#000" stroke-linejoin="round"/><text fill="#000" font-family="DejaVu Sans Mono" font-size="10.0pt" stroke-width="0.0" text-anchor="middle" x="483.0" y="615">bus.0</text><rect fill="#fff" height="25.0" stroke="#000" width="60.0" x="529.0" y="585.0"/><text fill="#000" font-family="DejaVu Sans Mono" font-size="10.0pt" stroke-width="0.0" text-anchor="middle" x="559.0" y="602">floppy</text><rect fill="#fff" height="25.0" stroke="#000" width="52.0" x="609.0" y="585.0"/><text fill="#000" font-family="DejaVu Sans Mono" font-size="10.0pt" stroke-width="0.0" text-anchor="middle" x="635.0" y="602">i8042</text><rect fill="#fff" height="25.0" stroke="#000" width="60.0" x="241.0" y="630.0"/><text fill="#000" font-family="DejaVu Sans Mono" font-size="10.0pt" stroke-width="0.0" text-anchor="middle" x="271.0" y="647">vmport</text><rect fill="#fff" height="25.0" stroke="#000" width="68.0" x="321.0" y="630.0"/><text fill="#000" font-family="DejaVu Sans Mono" font-size="10.0pt" stroke-width="0.0" text-anchor="middle" x="355.0" y="647">vmmouse</text><rect fill="#fff" height="25.0" stroke="#000" width="60.0" x="529.0" y="630.0"/><text fill="#000" font-family="DejaVu Sans Mono" font-size="10.0pt" stroke-width="0.0" text-anchor="middle" x="559.0" y="647">port92</text><rect fill="#fff" height="25.0" stroke="#000" width="68.0" x="609.0" y="630.0"/><text fill="#000" font-family="DejaVu Sans Mono" font-size="10.0pt" stroke-width="0.0" text-anchor="middle" x="643.0" y="647">rtl8139</text><rect fill="#fff" height="25.0" stroke="#000" width="168.0" x="247.0" y="675.0"/><text fill="#000" font-family="DejaVu Sans Mono" font-size="10.0pt" stroke-width="0.0" text-anchor="middle" x="331.0" y="692">piix3-ide</text><polygon fill="#fff" fill-rule="evenodd" points="395.0,675.0 421.0,687.5 421.0,712.5 395.0,725.0 369.0,712.5 369.0,687.5" stroke="#000" stroke-linejoin="round"/><text fill="#000" font-family="DejaVu Sans Mono" font-size="10.0pt" stroke-width="0.0" text-anchor="middle" x="395.0" y="705">ide.0</text><polygon fill="#fff" fill-rule="evenodd" points="267.0,675.0 293.0,687.5 293.0,712.5 267.0,725.0 241.0,712.5 241.0,687.5" stroke="#000" stroke-linejoin="round"/><text fill="#000" font-family="DejaVu Sans Mono" font-size="10.0pt" stroke-width="0.0" text-anchor="middle" x="267.0" y="705">ide.1</text><rect fill="#fff" height="25.0" stroke="#000" width="60.0" x="504.0" y="675.0"/><text fill="#000" font-family="DejaVu Sans Mono" font-size="10.0pt" stroke-width="0.0" text-anchor="middle" x="534.0" y="692">ide-hd</text><rect fill="#fff" height="25.0" stroke="#000" width="60.0" x="584.0" y="675.0"/><text fill="#000" font-family="DejaVu Sans Mono" font-size="10.0pt" stroke-width="0.0" text-anchor="middle" x="614.0" y="692">ide-cd</text><rect fill="#fff" height="25.0" stroke="#000" width="124.0" x="447.0" y="675.0"/><text fill="#000" font-family="DejaVu Sans Mono" font-size="10.0pt" stroke-width="0.0" text-anchor="middle" x="509.0" y="692">piix3-usb-uhci</text><polygon fill="#fff" fill-rule="evenodd" points="467.0,720.0 493.0,732.5 493.0,757.5 467.0,770.0 441.0,757.5 441.0,732.5" stroke="#000" stroke-linejoin="round"/><text fill="#000" font-family="DejaVu Sans Mono" font-size="10.0pt" stroke-width="0.0" text-anchor="middle" x="467.0" y="750">bus.0</text><rect fill="#fff" height="25.0" stroke="#000" width="76.0" x="511.0" y="675.0"/><text fill="#000" font-family="DejaVu Sans Mono" font-size="10.0pt" stroke-width="0.0" text-anchor="middle" x="549.0" y="692">PIIX4_PM</text><polygon fill="#fff" fill-rule="evenodd" points="531.0,720.0 549.0,732.5 549.0,757.5 531.0,770.0 513.0,757.5 513.0,732.5" stroke="#000" stroke-linejoin="round"/><text fill="#000" font-family="DejaVu Sans Mono" font-size="10.0pt" stroke-width="0.0" text-anchor="middle" x="531.0" y="750">i2c</text><rect fill="#fff" height="25.0" stroke="#000" width="108.0" x="664.0" y="675.0"/><text fill="#000" font-family="DejaVu Sans Mono" font-size="10.0pt" stroke-width="0.0" text-anchor="middle" x="718.0" y="692">smbus-eeprom</text><rect fill="#fff" height="25.0" stroke="#000" width="108.0" x="569.0" y="720.0"/><text fill="#000" font-family="DejaVu Sans Mono" font-size="10.0pt" stroke-width="0.0" text-anchor="middle" x="623.0" y="737">smbus-eeprom</text><rect fill="#fff" height="25.0" stroke="#000" width="108.0" x="697.0" y="720.0"/><text fill="#000" font-family="DejaVu Sans Mono" font-size="10.0pt" stroke-width="0.0" text-anchor="middle" x="751.0" y="737">smbus-eeprom</text><rect fill="#fff" height="25.0" stroke="#000" width="108.0" x="569.0" y="765.0"/><text fill="#000" font-family="DejaVu Sans Mono" font-size="10.0pt" stroke-width="0.0" text-anchor="middle" x="623.0" y="782">smbus-eeprom</text><rect fill="#fff" height="25.0" stroke="#000" width="108.0" x="697.0" y="765.0"/><text fill="#000" font-family="DejaVu Sans Mono" font-size="10.0pt" stroke-width="0.0" text-anchor="middle" x="751.0" y="782">smbus-eeprom</text><rect fill="#fff" height="25.0" stroke="#000" width="108.0" x="552.0" y="810.0"/><text fill="#000" font-family="DejaVu Sans Mono" font-size="10.0pt" stroke-width="0.0" text-anchor="middle" x="606.0" y="827">smbus-eeprom</text><rect fill="#fff" height="25.0" stroke="#000" width="108.0" x="680.0" y="810.0"/><text fill="#000" font-family="DejaVu Sans Mono" font-size="10.0pt" stroke-width="0.0" text-anchor="middle" x="734.0" y="827">smbus-eeprom</text><rect fill="#fff" height="25.0" stroke="#000" width="108.0" x="808.0" y="810.0"/><text fill="#000" font-family="DejaVu Sans Mono" font-size="10.0pt" stroke-width="0.0" text-anchor="middle" x="862.0" y="827">smbus-eeprom</text><circle cx="369.0" cy="573.0" fill="#fff" r="10.0" stroke="#000"/><circle cx="552.0" cy="855.0" fill="#fff" r="10.0" stroke="#000"/><circle cx="582.0" cy="855.0" fill="#fff" r="10.0" stroke="#000"/><circle cx="612.0" cy="855.0" fill="#fff" r="10.0" stroke="#000"/><circle cx="642.0" cy="855.0" fill="#fff" r="10.0" stroke="#000"/><circle cx="672.0" cy="855.0" fill="#fff" r="10.0" stroke="#000"/><circle cx="702.0" cy="855.0" fill="#fff" r="10.0" stroke="#000"/><circle cx="732.0" cy="855.0" fill="#fff" r="10.0" stroke="#000"/><circle cx="762.0" cy="855.0" fill="#fff" r="10.0" stroke="#000"/><circle cx="792.0" cy="855.0" fill="#fff" r="10.0" stroke="#000"/><circle cx="822.0" cy="855.0" fill="#fff" r="10.0" stroke="#000"/><circle cx="852.0" cy="855.0" fill="#fff" r="10.0" stroke="#000"/><circle cx="882.0" cy="855.0" fill="#fff" r="10.0" stroke="#000"/><circle cx="912.0" cy="855.0" fill="#fff" r="10.0" stroke="#000"/><circle cx="288.0" cy="770.0" fill="#fff" r="10.0" stroke="#000"/><circle cx="318.0" cy="770.0" fill="#fff" r="10.0" stroke="#000"/><circle cx="348.0" cy="770.0" fill="#fff" r="10.0" stroke="#000"/><circle cx="241.0" cy="405.0" fill="#fff" r="10.0" stroke="#000"/><circle cx="221.0" cy="725.0" fill="#fff" r="10.0" stroke="#000"/><circle cx="416.0" cy="745.0" fill="#fff" r="10.0" stroke="#000"/><circle cx="378.0" cy="795.0" fill="#fff" r="10.0" stroke="#000"/><circle cx="408.0" cy="795.0" fill="#fff" r="10.0" stroke="#000"/><circle cx="258.0" cy="795.0" fill="#fff" r="10.0" stroke="#000"/><circle cx="488.0" cy="790.0" fill="#fff" r="10.0" stroke="#000"/></svg>