<?xml version="1.0" ?><!DOCTYPE svg  PUBLIC '-//W3C//DTD SVG 1.1//EN'  'http://www.w3.org/Graphics/SVG/1.1/DTD/svg11.dtd'><svg height="374.000" viewBox="-50.000 -46.000 471.000 374.000" width="471.000" xmlns="http://www.w3.org/2000/svg"><polygon fill="#808080" fill-rule="evenodd" points="196.89920603059747,126.92583042837722 201.43373677504746,136.18261339697045 205.25639573150897,132.9596832856301" stroke-linejoin="round"/><path d="M229.0,165.0 196.89920603059747,126.92583042837722" fill="none" stroke="#808080"/><path d="M230.0,210.0 229.0,165.0" fill="none" stroke="#808080"/><path d="M278.41379310344826,236.0 230.0,210.0" fill="none" stroke="#808080"/><polygon fill="#808080" fill-rule="evenodd" points="169.27872577013966,91.92583042837722 165.36952506720374,82.38810796102867 161.34109104762044,85.34981681739247" stroke-linejoin="round"/><path d="M142.86601809398067,56.0 169.27872577013966,91.92583042837722" fill="none" stroke="#808080"/><polygon fill="#808080" fill-rule="evenodd" points="145.13513887436568,91.92583042837722 137.1635218834666,85.39105250174433 135.0261695639804,89.91119907706542" stroke-linejoin="round"/><path d="M34.0,39.37555514606071 145.13513887436568,91.92583042837722" fill="none" stroke="#808080"/><polygon fill="#808080" fill-rule="evenodd" points="93.45254711110518,91.92583042837722 84.1256494172497,87.53732505543375 83.15775249984755,92.44274813171204" stroke-linejoin="round"/><path d="M34.0,80.19515273029697 93.45254711110518,91.92583042837722" fill="none" stroke="#808080"/><polygon fill="#808080" fill-rule="evenodd" points="176.2076203875463,126.92583042837722 170.62737740839466,135.59248424017963 175.36230190561363,137.1988746054507" stroke-linejoin="round"/><path d="M166.74623048586312,154.8138007447704 176.2076203875463,126.92583042837722" fill="none" stroke="#808080"/><polygon fill="#808080" fill-rule="evenodd" points="150.48747794918148,179.98314339580233 140.18339244242625,179.70778568394968 141.2660576964668,184.58916212381718" stroke-linejoin="round"/><path d="M132.3768115942029,184.0 150.48747794918148,179.98314339580233" fill="none" stroke="#808080"/><polygon fill="#808080" fill-rule="evenodd" points="163.7785221885227,180.84227876170505 163.5883863142474,191.1482890639177 168.46064244167397,190.02529296919872" stroke-linejoin="round"/><path d="M170.96,212.0 163.7785221885227,180.84227876170505" fill="none" stroke="#808080"/><path d="M-5.0,72.5 59.20573293511035,72.5" fill="none" stroke="#000"/><path d="M11.0,28.5 59.20573293511035,28.5" fill="none" stroke="#000"/><path d="M59.20573293511035,38.5 130.0,38.5" fill="none" stroke="#000"/><polygon fill="#808080" fill-rule="evenodd" points="208.75036200575846,64.0 201.53923593171965,71.36543690111574 205.8536916586022,73.89238600641451" stroke-linejoin="round"/><path d="M192.3943818583618,91.92583042837722 208.75036200575846,64.0" fill="none" stroke="#808080"/><path d="M311.0,110.5 371.0,110.5" fill="none" stroke="#000"/><path d="M311.0,67.5 372.0,67.5" fill="none" stroke="#000"/><path d="M311.0,5.0 311.0,316.0" fill="none" stroke="#000"/><path d="M59.20573293511035,253.5 311.0,253.5" fill="none" stroke="#000"/><path d="M59.20573293511035,229.5 176.0,229.5" fill="none" stroke="#000"/><path d="M59.20573293511035,201.5 106.0,201.5" fill="none" stroke="#000"/><path d="M59.20573293511035,109.42583042837722 182.1447438641203,109.42583042837722" fill="none" stroke="#000"/><path d="M59.20573293511035,-34.0 59.20573293511035,316.0" fill="none" stroke="#000"/><polygon fill="#fff" fill-rule="evenodd" points="59.20573293511035,125.9760158583141 77.20573293511035,138.4760158583141 77.20573293511035,163.4760158583141 59.20573293511035,175.9760158583141 41.20573293511035,163.4760158583141 41.20573293511035,138.4760158583141" stroke="#000" stroke-linejoin="round"/><text fill="#000" font-family="DejaVu Sans Mono" font-size="10.0pt" stroke-width="0.0" text-anchor="middle" x="59.20573293511035" y="156">bus</text><rect fill="#fff" height="25.0" stroke="#000" width="172.0" x="96.1447438641203" y="96.92583042837722"/><text fill="#000" font-family="DejaVu Sans Mono" font-size="10.0pt" stroke-width="0.0" text-anchor="middle" x="182.1447438641203" y="114">INTERRUPT_CONTROLLER</text><rect fill="#fff" height="25.0" stroke="#000" width="44.0" x="84.0" y="189.0"/><text fill="#000" font-family="DejaVu Sans Mono" font-size="10.0pt" stroke-width="0.0" text-anchor="middle" x="106.0" y="207">UART</text><circle cx="158.0" cy="167.0" fill="#fff" r="10.0" stroke="#000"/><rect fill="#fff" height="25.0" stroke="#000" width="36.0" x="201.0" y="34.0"/><text fill="#000" font-family="DejaVu Sans Mono" font-size="10.0pt" stroke-width="0.0" text-anchor="middle" x="219.0" y="52">CPU</text><rect fill="#fff" height="25.0" stroke="#000" width="44.0" x="154.0" y="217.0"/><text fill="#000" font-family="DejaVu Sans Mono" font-size="10.0pt" stroke-width="0.0" text-anchor="middle" x="176.0" y="235">UART</text><rect fill="#fff" height="25.0" stroke="#000" width="76.0" x="273.0" y="241.0"/><text fill="#000" font-family="DejaVu Sans Mono" font-size="10.0pt" stroke-width="0.0" text-anchor="middle" x="311.0" y="259">PCI_HOST</text><polygon fill="#fff" fill-rule="evenodd" points="311.0,142.0 329.0,154.5 329.0,179.5 311.0,192.0 293.0,179.5 293.0,154.5" stroke="#000" stroke-linejoin="round"/><text fill="#000" font-family="DejaVu Sans Mono" font-size="10.0pt" stroke-width="0.0" text-anchor="middle" x="311.0" y="172">pci</text><rect fill="#fff" height="25.0" stroke="#000" width="76.0" x="334.0" y="55.0"/><text fill="#000" font-family="DejaVu Sans Mono" font-size="10.0pt" stroke-width="0.0" text-anchor="middle" x="372.0" y="73">ETHERNET</text><rect fill="#fff" height="25.0" stroke="#000" width="76.0" x="333.0" y="98.0"/><text fill="#000" font-family="DejaVu Sans Mono" font-size="10.0pt" stroke-width="0.0" text-anchor="middle" x="371.0" y="116">ETHERNET</text><rect fill="#fff" height="25.0" stroke="#000" width="36.0" x="112.0" y="26.0"/><text fill="#000" font-family="DejaVu Sans Mono" font-size="10.0pt" stroke-width="0.0" text-anchor="middle" x="130.0" y="44">ROM</text><rect fill="#fff" height="25.0" stroke="#000" width="36.0" x="-7.0" y="16.0"/><text fill="#000" font-family="DejaVu Sans Mono" font-size="10.0pt" stroke-width="0.0" text-anchor="middle" x="11.0" y="34">HID</text><rect fill="#fff" height="25.0" stroke="#000" width="68.0" x="-39.0" y="60.0"/><text fill="#000" font-family="DejaVu Sans Mono" font-size="10.0pt" stroke-width="0.0" text-anchor="middle" x="-5.0" y="78">DISPLAY</text></svg>