<?xml version="1.0" ?><!DOCTYPE svg  PUBLIC '-//W3C//DTD SVG 1.1//EN'  'http://www.w3.org/Graphics/SVG/1.1/DTD/svg11.dtd'><svg height="967.000" viewBox="-270.000 -392.000 975.000 967.000" width="975.000" xmlns="http://www.w3.org/2000/svg"><path d="M140.487780286,118.592852467 82.29079387309979,115.62905961607301" fill="none" stroke="#808080"/><path d="M202.584401983,124.72847547 140.487780286,118.592852467" fill="none" stroke="#808080"/><path d="M-22.041273068899997,228.586938633 -171.1233305422628,67.20148667250001" fill="none" stroke="#808080"/><path d="M-17.0183558391,206.257463792 -168.25613623045197,67.20148667250001" fill="none" stroke="#808080"/><path d="M-40.2952530994,197.055634488 -169.83197722109233,67.20148667250001" fill="none" stroke="#808080"/><path d="M-32.457062815,180.722158243 -166.60878011786832,67.20148667250001" fill="none" stroke="#808080"/><path d="M-27.024458651800003,166.465716378 -163.26957456663408,67.20148667250001" fill="none" stroke="#808080"/><path d="M-32.926147843,150.714394912 -160.5465437017072,67.20148667250001" fill="none" stroke="#808080"/><path d="M-24.4953652915,138.198706968 -155.09731690141695,67.20148667250001" fill="none" stroke="#808080"/><path d="M-30.300869000600002,122.75539546 -152.289199114,65.98860053450198" fill="none" stroke="#808080"/><path d="M-42.9410014781,113.693696379 -152.289199114,65.21763011183083" fill="none" stroke="#808080"/><path d="M-40.851824697,96.4156794742 -152.289199114,60.86664689589781" fill="none" stroke="#808080"/><path d="M-51.2306156841,82.7635869044 -152.289199114,58.206451805498745" fill="none" stroke="#808080"/><path d="M-45.7761737842,66.2637058947 -152.289199114,53.79777160052019" fill="none" stroke="#808080"/><path d="M-54.35180388500001,51.3508259298 -152.289199114,50.13572772187561" fill="none" stroke="#808080"/><path d="M-52.2142974987,34.0214342675 -152.289199114,45.63854213127046" fill="none" stroke="#808080"/><path d="M-66.766247626,24.2843463212 -152.289199114,42.32032066791478" fill="none" stroke="#808080"/><path d="M-62.4316747111,6.99861774149 -152.289199114,37.73103939883424" fill="none" stroke="#808080"/><path d="M-75.7051454628,-4.54519068444 -152.289199114,32.68620854478626" fill="none" stroke="#808080"/><path d="M-88.1020010049,-16.45236329 -161.0507267062234,32.2014866725" fill="none" stroke="#808080"/><path d="M-83.3138911412,-32.7723580124 -165.22683623427918,32.2014866725" fill="none" stroke="#808080"/><path d="M-100.5397602,-36.2087603009 -169.61825490794917,32.2014866725" fill="none" stroke="#808080"/><path d="M-103.857606429,-52.0961668991 -172.94650239397626,32.2014866725" fill="none" stroke="#808080"/><path d="M-114.235304817,-63.8647959692 -176.03195690742916,32.2014866725" fill="none" stroke="#808080"/><path d="M-119.74517197400002,-78.5816229317 -178.07504396452663,32.2014866725" fill="none" stroke="#808080"/><path d="M-126.79549562,-94.0534239459 -179.92499982097428,32.2014866725" fill="none" stroke="#808080"/><path d="M4.40950762241,326.623419761 134.95328540624797,389.0933759679355" fill="none" stroke="#808080"/><path d="M-1.6556329209800005,308.930931481 122.76554043124175,358.90875868917595" fill="none" stroke="#808080"/><path d="M-16.5502107823,297.31299607 94.64951175618617,334.8694934005498" fill="none" stroke="#808080"/><path d="M-16.3826452104,279.363769779 94.21326111935264,303.2979390811979" fill="none" stroke="#808080"/><path d="M-15.071669787200001,262.607808985 94.74044034706381,275.0034752510123" fill="none" stroke="#808080"/><path d="M-21.3422543925,247.213642743 87.76572508592437,247.6429093086564" fill="none" stroke="#808080"/><path d="M-9.668009564199998,234.043729002 97.47622068952106,221.1464198488856" fill="none" stroke="#808080"/><path d="M-18.5317111191,217.840130207 85.88198071715485,195.1293212380891" fill="none" stroke="#808080"/><path d="M-33.0804296675,209.089998716 65.56027257665592,175.4558483396212" fill="none" stroke="#808080"/><path d="M-25.097831187799997,191.300698269 69.58176029305173,147.08944523672506" fill="none" stroke="#808080"/><path d="M-44.6265454252,178.405913118 55.49501872324636,121.7477206533235" fill="none" stroke="#808080"/><path d="M-40.8942704193,163.478922816 61.49412056762214,93.13531308193961" fill="none" stroke="#808080"/><path d="M-49.1795291265,149.647520814 50.30513376756246,66.65239721536554" fill="none" stroke="#808080"/><path d="M-43.9909201072,134.333810161 50.531638522611615,37.614830421829105" fill="none" stroke="#808080"/><path d="M-59.6205263967,127.51856105 28.528581868483315,19.172335517086037" fill="none" stroke="#808080"/><path d="M-57.901704104299995,111.221971162 31.141267662648236,-10.413666745319954" fill="none" stroke="#808080"/><path d="M-65.883186462,98.6359368927 14.992574513942724,-34.40492333919029" fill="none" stroke="#808080"/><path d="M-75.7710931207,86.1377946191 1.110522651688461,-60.23750869567694" fill="none" stroke="#808080"/><path d="M-68.8952931433,70.4865269721 5.506823120253387,-89.75706797477181" fill="none" stroke="#808080"/><path d="M-85.750108814,66.181622418 -19.455469423758654,-104.75038943526056" fill="none" stroke="#808080"/><path d="M-88.0318356157,50.0516601026 -28.671021433809017,-132.84213376438305" fill="none" stroke="#808080"/><path d="M-97.9086344336,37.7894734872 -43.18399166315293,-158.66244326460205" fill="none" stroke="#808080"/><path d="M-103.201198529,22.8955723111 -54.49131435997879,-186.10221630122984" fill="none" stroke="#808080"/><path d="M-110.036523962,7.24347928881 -66.39011458788423,-215.68894098247836" fill="none" stroke="#808080"/><path d="M91.5799982895,-2.0158917453700003 116.98976608000815,-157.664941781" fill="none" stroke="#808080"/><path d="M90.8124088033,-14.901152185 116.67625494928991,-157.664941781" fill="none" stroke="#808080"/><path d="M83.8615202776,-29.1404513326 115.53408542779596,-157.664941781" fill="none" stroke="#808080"/><path d="M87.3616700472,-43.8430110012 115.51768995129072,-157.664941781" fill="none" stroke="#808080"/><path d="M80.0261970207,-55.7955005509 114.00882302215156,-157.664941781" fill="none" stroke="#808080"/><path d="M80.1586113532,-72.2233278214 113.09971033408232,-157.664941781" fill="none" stroke="#808080"/><path d="M68.3738913289,-80.8900084433 110.2918997758113,-157.664941781" fill="none" stroke="#808080"/><path d="M67.9383259278,-98.841090797 107.94478990022404,-157.664941781" fill="none" stroke="#808080"/><path d="M60.4310070569,-143.304275605 100.03686320478744,-230.44276891700002" fill="none" stroke="#808080"/><path d="M82.0,-204.0 97.64014486795749,-230.44276891700002" fill="none" stroke="#808080"/><path d="M52.5869336936,-158.544481857 82.0,-204.0" fill="none" stroke="#808080"/><path d="M56.4968500455,-174.991323208 95.63821725283418,-230.44276891700002" fill="none" stroke="#808080"/><path d="M39.0570448221,-179.833696923 90.27897698829165,-230.44276891700002" fill="none" stroke="#808080"/><path d="M28.3723169407,-194.734193434 81.8047953426166,-230.44276891700002" fill="none" stroke="#808080"/><path d="M11.6077553204,-223.845902197 60.99089656300001,-236.19224158163" fill="none" stroke="#808080"/><path d="M24.1752878483,-245.497611906 60.99089656300001,-246.57163552932536" fill="none" stroke="#808080"/><path d="M-12.640320866499998,-239.267609011 24.1752878483,-245.497611906" fill="none" stroke="#808080"/><path d="M174.78305395,182.288518567 140.95633025646532,349.4079089627067" fill="none" stroke="#808080"/><path d="M159.421083666,171.546716743 114.49267942118844,324.80470140088187" fill="none" stroke="#808080"/><path d="M159.557514034,154.393047833 114.98625206519988,291.571457773955" fill="none" stroke="#808080"/><path d="M161.543760763,138.730690231 116.31553593290876,261.88336435228234" fill="none" stroke="#808080"/><path d="M155.909058447,124.404702597 110.0792105842155,233.14382017262687" fill="none" stroke="#808080"/><path d="M163.668626542,110.184603498 120.08608866850028,205.02285527658654" fill="none" stroke="#808080"/><path d="M154.397475024,97.5586838416 109.26906779242512,178.3820047909227" fill="none" stroke="#808080"/><path d="M146.705762615,85.5059969757 89.9265549135039,158.53522278171548" fill="none" stroke="#808080"/><path d="M136.24811179,90.2858523947 89.52145757433233,158.12227445988057" fill="none" stroke="#808080"/><path d="M147.811286333,68.9754588955 93.96185107424292,129.67426316260273" fill="none" stroke="#808080"/><path d="M136.633591993,73.2227945953 93.55446657280697,129.1830392141948" fill="none" stroke="#808080"/><path d="M124.692058665,62.3969463271 80.40452138594264,105.08950472397399" fill="none" stroke="#808080"/><path d="M134.964153451,56.3795351764 80.41688247164679,105.11006808526155" fill="none" stroke="#808080"/><path d="M128.006486584,40.7024121847 86.22983165877734,76.58517247055609" fill="none" stroke="#808080"/><path d="M119.227499563,46.7522117112 86.38587446292276,76.90685463983534" fill="none" stroke="#808080"/><path d="M103.433678674,34.5675318673 75.37409046216305,52.70683075140715" fill="none" stroke="#808080"/><path d="M113.456831623,29.2766122186 75.20882512725244,52.014744902250236" fill="none" stroke="#808080"/><path d="M114.28977154,7.07557026593 74.70735001743392,23.83109490856272" fill="none" stroke="#808080"/><path d="M106.909384981,15.79001784 74.84465820319069,25.838737969567397" fill="none" stroke="#808080"/><path d="M93.1218715219,9.6197958454 51.51561933260224,9.532665539734857" fill="none" stroke="#808080"/><path d="M102.488537098,-2.0270165645600002 51.79193319380227,6.916274649386374" fill="none" stroke="#808080"/><path d="M98.5140877707,-19.7380410337 53.587670409738394,-20.411965296594882" fill="none" stroke="#808080"/><path d="M107.578433079,-16.8921281064 53.54849456953933,-20.217264470445773" fill="none" stroke="#808080"/><path d="M96.1753940258,-31.7664278664 35.98552678546728,-43.42304417070771" fill="none" stroke="#808080"/><path d="M108.522026122,-32.4624379216 36.16240314696505,-44.04334656793302" fill="none" stroke="#808080"/><path d="M96.6318115135,-47.9784410004 21.11402901237473,-68.9248823518082" fill="none" stroke="#808080"/><path d="M104.30367755,-44.4096698562 21.080472048702177,-68.83308638378995" fill="none" stroke="#808080"/><path d="M112.267532276,-56.42291990379999 24.151296114230064,-96.92227926464848" fill="none" stroke="#808080"/><path d="M106.3867434,-62.7295817358 24.317877037483463,-97.25606935235407" fill="none" stroke="#808080"/><path d="M95.8306800715,-66.8935996568 -1.6615446942965058,-112.20955609107963" fill="none" stroke="#808080"/><path d="M88.3986000632,-62.918172485599996 -2.042762417222889,-111.51453476808364" fill="none" stroke="#808080"/><path d="M86.6798584785,-80.5494444907 -12.270257140174444,-139.36368870193442" fill="none" stroke="#808080"/><path d="M96.3873780979,-82.2542737268 -11.931670288533788,-139.92669810018555" fill="none" stroke="#808080"/><path d="M87.908339343,-96.8492243331 -27.29958202232958,-165.35416512356872" fill="none" stroke="#808080"/><path d="M78.6422665086,-91.2568926057 -27.80987132748369,-164.59299721789543" fill="none" stroke="#808080"/><path d="M78.6642231578,-108.868666851 -39.740748113233565,-192.0625149322282" fill="none" stroke="#808080"/><path d="M37.9552714229,-135.050426979 -39.934952700200796,-191.8009573181988" fill="none" stroke="#808080"/><path d="M115.689789171,-78.0905543031 37.9552714229,-135.050426979" fill="none" stroke="#808080"/><path d="M74.3172328449,-124.860811437 -52.41021401763704,-221.3195416702854" fill="none" stroke="#808080"/><path d="M63.9015090412,-118.22607022099999 -53.01481929254586,-220.59161630892837" fill="none" stroke="#808080"/><path d="M-38.0,328.0 18.927063397536187,380.230412553" fill="none" stroke="#808080"/><path d="M-58.0,348.0 -136.54205871713765,268.63797343600004" fill="none" stroke="#808080"/><path d="M108.404732905,-207.9324079 108.1719030773357,-230.44276891700002" fill="none" stroke="#808080"/><path d="M112.874003313,-199.484921747 108.404732905,-207.9324079" fill="none" stroke="#808080"/><polygon fill="#808080" fill-rule="evenodd" points="82.29079387309979,115.62905961607301 92.15069879036756,118.63443397252824 92.40500379137382,113.64090526364278" stroke-linejoin="round"/><path d="M277.54028688176174,150.930693353 202.584401983,124.72847547" fill="none" stroke="#808080"/><polygon fill="#808080" fill-rule="evenodd" points="-171.1233305422628,67.20148667250001 -166.17418499019013,76.24338682149519 -162.50142557325975,72.85062419122627" stroke-linejoin="round"/><path d="M137.958949263587,384.6165908374074 -22.041273068899997,228.586938633" fill="none" stroke="#808080"/><polygon fill="#808080" fill-rule="evenodd" points="-168.25613623045197,67.20148667250001 -162.58691448714688,75.81019881922886 -159.20272309378095,72.12954009923483" stroke-linejoin="round"/><path d="M126.4532709519915,353.11763332810824 -17.0183558391,206.257463792" fill="none" stroke="#808080"/><polygon fill="#808080" fill-rule="evenodd" points="-169.83197722109233,67.20148667250001 -164.53949664844444,76.046804608456 -160.9996388636002,72.515599875921" stroke-linejoin="round"/><path d="M98.2205670746509,328.50771223663736 -40.2952530994,197.055634488" fill="none" stroke="#808080"/><polygon fill="#808080" fill-rule="evenodd" points="-166.60878011786832,67.20148667250001 -160.5900520340689,75.56957559729545 -157.36021349108273,71.7527519196492" stroke-linejoin="round"/><path d="M97.76344660780006,295.5005662460963 -32.457062815,180.722158243" fill="none" stroke="#808080"/><polygon fill="#808080" fill-rule="evenodd" points="-163.26957456663408,67.20148667250001 -156.65935203322908,75.11065591198812 -153.71506327739996,71.06947245632833" stroke-linejoin="round"/><path d="M97.90969236385422,266.1365040336821 -27.024458651800003,166.465716378" fill="none" stroke="#808080"/><polygon fill="#808080" fill-rule="evenodd" points="-160.5465437017072,67.20148667250001 -153.547827777745,74.76904740338799 -150.8100010719109,70.58523276494836" stroke-linejoin="round"/><path d="M90.29528462491882,237.76215270164994 -32.926147843,150.714394912" fill="none" stroke="#808080"/><polygon fill="#808080" fill-rule="evenodd" points="-155.09731690141695,67.20148667250001 -147.50559270265077,74.17398433760309 -145.1175613542218,69.78111440111275" stroke-linejoin="round"/><path d="M98.92817421393906,210.48498015196193 -24.4953652915,138.198706968" fill="none" stroke="#808080"/><polygon fill="#808080" fill-rule="evenodd" points="-152.289199114,65.98860053450198 -144.27754010468513,72.47422463079863 -142.1680298251708,67.94101755626261" stroke-linejoin="round"/><path d="M86.5191033503468,183.75592616336937 -30.300869000600002,122.75539546" fill="none" stroke="#808080"/><polygon fill="#808080" fill-rule="evenodd" points="-152.289199114,65.21763011183083 -144.1604637147098,71.55589965550963 -142.13407044701273,66.98493363894026" stroke-linejoin="round"/><path d="M65.10615452514476,163.22238254261612 -42.9410014781,113.693696379" fill="none" stroke="#808080"/><polygon fill="#808080" fill-rule="evenodd" points="-152.289199114,60.86664689589781 -143.52199711844128,66.2875480358441 -142.00242034617935,61.52405284499925" stroke-linejoin="round"/><path d="M67.80138420906623,134.84793022727783 -40.851824697,96.4156794742" fill="none" stroke="#808080"/><polygon fill="#808080" fill-rule="evenodd" points="-152.289199114,58.206451805498745 -143.1622970383269,62.99703198968041 -141.9816595487912,58.13842157945993" stroke-linejoin="round"/><path d="M52.803482005199896,110.10712842294815 -51.2306156841,82.7635869044" fill="none" stroke="#808080"/><polygon fill="#808080" fill-rule="evenodd" points="-152.289199114,53.79777160052019 -142.6475996535202,57.4432564576654 -142.06638318668476,52.47715261071663" stroke-linejoin="round"/><path d="M57.844169171997045,82.32336192805 -45.7761737842,66.2637058947" fill="none" stroke="#808080"/><polygon fill="#808080" fill-rule="evenodd" points="-152.289199114,50.13572772187561 -142.3209835102317,52.759594653865534 -142.25895384856216,47.759979436563995" stroke-linejoin="round"/><path d="M45.72633250937854,56.62896639039716 -54.35180388500001,51.3508259298" fill="none" stroke="#808080"/><polygon fill="#808080" fill-rule="evenodd" points="-152.289199114,45.63854213127046 -142.06762883709126,46.9687680798281 -142.64417783505343,42.00212019086427" stroke-linejoin="round"/><path d="M45.07676725764953,28.484627895483676 -52.2142974987,34.0214342675" fill="none" stroke="#808080"/><polygon fill="#808080" fill-rule="evenodd" points="-152.289199114,42.32032066791478 -141.9885410102087,42.70299889932938 -143.02029926645966,37.810609411496465" stroke-linejoin="round"/><path d="M22.40836867831253,10.903425901573454 -66.766247626,24.2843463212" fill="none" stroke="#808080"/><polygon fill="#808080" fill-rule="evenodd" points="-152.289199114,37.73103939883424 -142.01826794772148,36.8604229634457 -143.63631464276062,32.12946905406622" stroke-linejoin="round"/><path d="M25.139077730994845,-17.219443521714133 -62.4316747111,6.99861774149" fill="none" stroke="#808080"/><polygon fill="#808080" fill-rule="evenodd" points="-152.289199114,32.68620854478626 -142.2026069864894,30.56237727718509 -144.38871489212647,26.065608189839043" stroke-linejoin="round"/><path d="M8.847519275158923,-40.03277635090958 -75.7051454628,-4.54519068444" fill="none" stroke="#808080"/><polygon fill="#808080" fill-rule="evenodd" points="-161.0507267062234,32.2014866725 -151.34417636214022,28.73264242437088 -154.11852075468136,24.572953350464573" stroke-linejoin="round"/><path d="M-4.738292506008284,-64.7017844308216 -88.1020010049,-16.45236329" fill="none" stroke="#808080"/><polygon fill="#808080" fill-rule="evenodd" points="-165.22683623427918,32.2014866725 -155.83864071464163,27.945692400562326 -158.9458610213932,24.028399717431444" stroke-linejoin="round"/><path d="M0.009505385724981608,-93.38198271153486 -83.3138911412,-32.7723580124" fill="none" stroke="#808080"/><polygon fill="#808080" fill-rule="evenodd" points="-169.61825490794917,32.2014866725 -160.75374878167176,26.941208054670863 -164.27205708727107,23.388532067931987" stroke-linejoin="round"/><path d="M-24.46468744985333,-107.43684424439836 -100.5397602,-36.2087603009" fill="none" stroke="#808080"/><polygon fill="#808080" fill-rule="evenodd" points="-172.94650239397626,32.2014866725 -164.67407164767647,26.05194282375204 -168.54120178194606,22.88250998416955" stroke-linejoin="round"/><path d="M-33.16696578164358,-134.8231540289767 -103.857606429,-52.0961668991" fill="none" stroke="#808080"/><polygon fill="#808080" fill-rule="evenodd" points="-176.03195690742916,32.2014866725 -168.51936819958811,25.14379505931517 -172.72446880671524,22.438775857176434" stroke-linejoin="round"/><path d="M-47.11139157042656,-160.110884489559 -114.235304817,-63.8647959692" fill="none" stroke="#808080"/><polygon fill="#808080" fill-rule="evenodd" points="-178.07504396452663,32.2014866725 -171.20403640909348,24.517786055402766 -175.62824935307253,22.188335513680954" stroke-linejoin="round"/><path d="M-57.891565011991105,-187.13039076576732 -119.74517197400002,-78.5816229317" fill="none" stroke="#808080"/><polygon fill="#808080" fill-rule="evenodd" points="-179.92499982097428,32.2014866725 -173.74203143046165,23.954008155891323 -178.35060583716134,22.01466756230993" stroke-linejoin="round"/><path d="M-69.31079698774528,-216.4159219014833 -126.79549562,-94.0534239459" fill="none" stroke="#808080"/><polygon fill="#808080" fill-rule="evenodd" points="134.95328540624797,389.0933759679355 127.01205547922787,382.52170439624234 124.85376649572756,387.03189160562744" stroke-linejoin="round"/><path d="M-126.86124885199999,264.0153179067995 4.40950762241,326.623419761" fill="none" stroke="#808080"/><polygon fill="#808080" fill-rule="evenodd" points="122.76554043124175,358.90875868917595 114.41800820753721,352.8615522453529 112.5543266132328,357.50123875578134" stroke-linejoin="round"/><path d="M-126.86124885199999,261.3899595908485 -1.6556329209800005,308.930931481" fill="none" stroke="#808080"/><polygon fill="#808080" fill-rule="evenodd" points="94.64951175618617,334.8694934005498 85.97523068322533,329.3011141150419 84.37532055745231,334.0382321829656" stroke-linejoin="round"/><path d="M-126.86124885199999,260.2175465616882 -16.5502107823,297.31299607" fill="none" stroke="#808080"/><polygon fill="#808080" fill-rule="evenodd" points="94.21326111935264,303.2979390811979 84.96829947912696,298.7393554995625 83.91072622191334,303.6262296339788" stroke-linejoin="round"/><path d="M-126.86124885199999,256.68135605027027 -16.3826452104,279.363769779" fill="none" stroke="#808080"/><polygon fill="#808080" fill-rule="evenodd" points="94.74044034706381,275.0034752510123 85.08396893829823,271.39756899436986 84.52312733620363,276.3660150992763" stroke-linejoin="round"/><path d="M-126.86124885199999,253.36930493732555 -15.071669787200001,262.607808985" fill="none" stroke="#808080"/><polygon fill="#808080" fill-rule="evenodd" points="87.76572508592437,247.6429093086564 77.7756382232836,245.1035856827883 77.75596673612692,250.10354698589785" stroke-linejoin="round"/><path d="M-126.86124885199999,250.3384131228301 -21.3422543925,247.213642743" fill="none" stroke="#808080"/><polygon fill="#808080" fill-rule="evenodd" points="97.47622068952106,221.1464198488856 87.24911491897726,219.85944371930523 87.846668007474,224.82360833245295" stroke-linejoin="round"/><path d="M-126.86124885199999,247.93709798582174 -9.668009564199998,234.043729002" fill="none" stroke="#808080"/><polygon fill="#808080" fill-rule="evenodd" points="85.88198071715485,195.1293212380891 75.57910753802113,194.81182438032943 76.6417999789735,199.6975878596582" stroke-linejoin="round"/><path d="M-126.86124885199999,244.49462134713497 -18.5317111191,217.840130207" fill="none" stroke="#808080"/><polygon fill="#808080" fill-rule="evenodd" points="65.56027257665592,175.4558483396212 55.28853777067516,176.31693142249037 56.902192728023095,181.0493850861438" stroke-linejoin="round"/><path d="M-126.86124885199999,241.73834090241232 -33.0804296675,209.089998716" fill="none" stroke="#808080"/><polygon fill="#808080" fill-rule="evenodd" points="69.58176029305173,147.08944523672506 59.46318279686616,149.05525027631748 61.578688403284424,153.5856626228057" stroke-linejoin="round"/><path d="M-126.86124885199999,238.59088157701942 -25.097831187799997,191.300698269" fill="none" stroke="#808080"/><polygon fill="#808080" fill-rule="evenodd" points="55.49501872324636,121.7477206533235 45.56065526792513,124.49697923293692 48.02317265307512,128.84853161431005" stroke-linejoin="round"/><path d="M-127.57837852478738,233.637973436 -44.6265454252,178.405913118" fill="none" stroke="#808080"/><polygon fill="#808080" fill-rule="evenodd" points="61.49412056762214,93.13531308193961 51.8362220614856,96.73739531936363 54.66754293864237,100.85851435314271" stroke-linejoin="round"/><path d="M-131.30884714801437,233.637973436 -40.8942704193,163.478922816" fill="none" stroke="#808080"/><polygon fill="#808080" fill-rule="evenodd" points="50.30513376756246,66.65239721536554 41.024885700385255,71.1387092655526 44.22788526131767,74.97808340890812" stroke-linejoin="round"/><path d="M-135.81097862590047,233.637973436 -49.1795291265,149.647520814" fill="none" stroke="#808080"/><polygon fill="#808080" fill-rule="evenodd" points="50.531638522611615,37.614830421829105 41.75429137829078,43.019289424179185 45.33019527872856,46.51398702123016" stroke-linejoin="round"/><path d="M-137.40009970180074,233.637973436 -43.9909201072,134.333810161" fill="none" stroke="#808080"/><polygon fill="#808080" fill-rule="evenodd" points="28.528581868483315,19.172335517086037 20.27832413491633,25.35159496541139 24.156829491018495,28.507097493169343" stroke-linejoin="round"/><path d="M-140.52019981175619,233.637973436 -59.6205263967,127.51856105" fill="none" stroke="#808080"/><polygon fill="#808080" fill-rule="evenodd" points="31.141267662648236,-10.413666745319954 23.217134637322122,-3.8213897641141443 27.25163357263381,-0.8679479852790095" stroke-linejoin="round"/><path d="M-141.85910466697558,233.637973436 -57.901704104299995,111.221971162" fill="none" stroke="#808080"/><polygon fill="#808080" fill-rule="evenodd" points="14.992574513942724,-34.40492333919029 7.661806972030855,-27.158555473393566 11.934305678513063,-24.56129637905818" stroke-linejoin="round"/><path d="M-143.76554044886757,233.637973436 -65.883186462,98.6359368927" fill="none" stroke="#808080"/><polygon fill="#808080" fill-rule="evenodd" points="1.110522651688461,-60.23750869567694 -5.752735418672782,-52.54688527103695 -1.3261763870349954,-50.22189599376578" stroke-linejoin="round"/><path d="M-145.5789685835996,233.637973436 -75.7710931207,86.1377946191" fill="none" stroke="#808080"/><polygon fill="#808080" fill-rule="evenodd" points="5.506823120253387,-89.75706797477181 -0.9719483663402064,-81.7398664664834 3.5630607536300536,-79.63423300317918" stroke-linejoin="round"/><path d="M-145.63045826600055,233.637973436 -68.8952931433,70.4865269721" fill="none" stroke="#808080"/><polygon fill="#808080" fill-rule="evenodd" points="-19.455469423758654,-104.75038943526056 -25.40228835352456,-96.33104595630819 -20.74061860698628,-94.52305392805981" stroke-linejoin="round"/><path d="M-147.41678266252052,233.637973436 -85.750108814,66.181622418" fill="none" stroke="#808080"/><polygon fill="#808080" fill-rule="evenodd" points="-28.671021433809017,-132.84213376438305 -34.136023955410636,-124.10235416539498 -29.380245023933707,-122.55879763746341" stroke-linejoin="round"/><path d="M-148.1322924027104,233.637973436 -88.0318356157,50.0516601026" fill="none" stroke="#808080"/><polygon fill="#808080" fill-rule="evenodd" points="-43.18399166315293,-158.66244326460205 -48.275775684146346,-149.70009226257383 -43.4591653277809,-148.35835284116848" stroke-linejoin="round"/><path d="M-149.27171223675788,233.637973436 -97.9086344336,37.7894734872" fill="none" stroke="#808080"/><polygon fill="#808080" fill-rule="evenodd" points="-54.49131435997879,-186.10221630122984 -59.195871878302576,-176.93067670545952 -54.326375889901975,-175.79577194339777" stroke-linejoin="round"/><path d="M-149.9769973882794,233.637973436 -103.201198529,22.8955723111" fill="none" stroke="#808080"/><polygon fill="#808080" fill-rule="evenodd" points="-66.39011458788423,-215.68894098247836 -70.76488958524672,-206.3555951878315 -65.85804744689966,-205.39491822373702" stroke-linejoin="round"/><path d="M-150.71672241134917,233.637973436 -110.036523962,7.24347928881" fill="none" stroke="#808080"/><polygon fill="#808080" fill-rule="evenodd" points="116.98976608000815,-157.664941781 112.91125244673397,-148.19838345480792 117.84592855709191,-147.39279566576033" stroke-linejoin="round"/><path d="M81.101735966315,153.97654314277483 91.5799982895,-2.0158917453700003" fill="none" stroke="#808080"/><polygon fill="#808080" fill-rule="evenodd" points="116.67625494928991,-157.664941781 112.43366255517793,-148.27077285674582 117.35357644825191,-147.37945513295833" stroke-linejoin="round"/><path d="M84.13730043284231,124.12563316959243 90.8124088033,-14.901152185" fill="none" stroke="#808080"/><polygon fill="#808080" fill-rule="evenodd" points="115.53408542779596,-157.664941781 110.71396698450738,-148.55360498595894 115.56872764609008,-147.35723592971033" stroke-linejoin="round"/><path d="M70.48711584224947,98.11725422206854 83.8615202776,-29.1404513326" fill="none" stroke="#808080"/><polygon fill="#808080" fill-rule="evenodd" points="115.51768995129072,-157.664941781 110.68952759077105,-148.55786496017208 115.54322990181002,-147.357209357672" stroke-linejoin="round"/><path d="M75.88965395963821,68.6111712996335 87.3616700472,-43.8430110012" fill="none" stroke="#808080"/><polygon fill="#808080" fill-rule="evenodd" points="114.00882302215156,-157.664941781 108.47282865133302,-148.9699566558681 113.21587981266786,-147.38772226079254" stroke-linejoin="round"/><path d="M64.86336141156693,41.431450124285746 80.0261970207,-55.7955005509" fill="none" stroke="#808080"/><polygon fill="#808080" fill-rule="evenodd" points="113.09971033408232,-157.664941781 107.16976988075533,-149.23370188285952 111.8350522390952,-147.43505224578098" stroke-linejoin="round"/><path d="M64.72614051679396,11.672626867998 80.1586113532,-72.2233278214" fill="none" stroke="#808080"/><polygon fill="#808080" fill-rule="evenodd" points="110.2918997758113,-157.664941781 103.30553766311978,-150.08597454064673 107.69403543654387,-147.68991792765698" stroke-linejoin="round"/><path d="M43.882510560539764,-6.564359693257568 68.3738913289,-80.8900084433" fill="none" stroke="#808080"/><polygon fill="#808080" fill-rule="evenodd" points="107.94478990022404,-157.664941781 100.25387518958752,-150.80201012508834 104.38830358185612,-147.9901598678372" stroke-linejoin="round"/><path d="M46.5421775171514,-36.15875340502761 67.9383259278,-98.841090797" fill="none" stroke="#808080"/><polygon fill="#808080" fill-rule="evenodd" points="100.03686320478744,-230.44276891700002 93.62311326472475,-222.37345595328708 98.17499582883234,-220.30455162428262" stroke-linejoin="round"/><path d="M29.088052584826304,-60.87272231905274 60.4310070569,-143.304275605" fill="none" stroke="#808080"/><polygon fill="#808080" fill-rule="evenodd" points="97.64014486795749,-230.44276891700002 90.39747802431879,-223.10834480926962 94.70105017426707,-220.56290442493736" stroke-linejoin="round"/><path d="M15.977227607784236,-86.05291035213571 52.5869336936,-158.544481857" fill="none" stroke="#808080"/><polygon fill="#808080" fill-rule="evenodd" points="95.63821725283418,-230.44276891700002 87.82903281433956,-223.71472028418134 91.91390092843007,-220.83134509345666" stroke-linejoin="round"/><path d="M20.908444195945712,-114.88204977478607 56.4968500455,-174.991323208" fill="none" stroke="#808080"/><polygon fill="#808080" fill-rule="evenodd" points="90.27897698829165,-230.44276891700002 81.4083854640302,-225.19275882084773 84.92257745330912,-221.63601105603672" stroke-linejoin="round"/><path d="M-3.2428613334826437,-128.38925472621628 39.0570448221,-179.833696923" fill="none" stroke="#808080"/><polygon fill="#808080" fill-rule="evenodd" points="81.8047953426166,-230.44276891700002 72.10144964667492,-226.96497043160008 74.87963078050333,-222.80784286708632" stroke-linejoin="round"/><path d="M-12.033246342909969,-154.99592670319876 28.3723169407,-194.734193434" fill="none" stroke="#808080"/><polygon fill="#808080" fill-rule="evenodd" points="60.99089656300001,-236.19224158163 50.68313249953057,-236.19213273288455 51.89586184758366,-231.34143303816307" stroke-linejoin="round"/><path d="M-37.10878935748994,-203.48083129080004 11.6077553204,-223.845902197" fill="none" stroke="#808080"/><polygon fill="#808080" fill-rule="evenodd" points="60.99089656300001,-246.57163552932536 50.92224757168198,-248.77896592816248 51.06805079473722,-243.7810922382673" stroke-linejoin="round"/><path d="M-49.24883731075386,-230.22636877904418 -12.640320866499998,-239.267609011" fill="none" stroke="#808080"/><polygon fill="#808080" fill-rule="evenodd" points="152.76049152510885,380.63810529715363 157.5788482238773,371.52583671444415 152.7238563380413,370.330406336519" stroke-linejoin="round"/><path d="M244.27047208639908,8.989349081699999 152.76049152510885,380.63810529715363" fill="none" stroke="#808080"/><polygon fill="#808080" fill-rule="evenodd" points="140.95633025646532,349.4079089627067 145.39051302111986,340.1026403900302 140.48989454401865,339.11070362697825" stroke-linejoin="round"/><path d="M241.83136735144552,8.989349081699999 174.78305395,182.288518567" fill="none" stroke="#808080"/><polygon fill="#808080" fill-rule="evenodd" points="114.49267942118844,324.80470140088187 119.70488050002815,315.91184134835987 114.90680505427194,314.505259670379" stroke-linejoin="round"/><path d="M239.93439802633208,8.989349081699999 159.421083666,171.546716743" fill="none" stroke="#808080"/><polygon fill="#808080" fill-rule="evenodd" points="114.98625206519988,291.571457773955 120.45402266219673,282.83340966819264 115.69873289513248,281.2883468114603" stroke-linejoin="round"/><path d="M239.03636016305592,8.989349081699999 159.557514034,154.393047833" fill="none" stroke="#808080"/><polygon fill="#808080" fill-rule="evenodd" points="116.31553593290876,261.88336435228234 122.10968151925779,253.35823227564026 117.41619047303222,251.63453224402213" stroke-linejoin="round"/><path d="M238.25491389526502,8.989349081699999 161.543760763,138.730690231" fill="none" stroke="#808080"/><polygon fill="#808080" fill-rule="evenodd" points="110.0792105842155,233.14382017262687 116.26676406948418,224.89978100078037 111.65926875505421,222.9578780867535" stroke-linejoin="round"/><path d="M236.3977954329545,8.989349081699999 155.909058447,124.404702597" fill="none" stroke="#808080"/><polygon fill="#808080" fill-rule="evenodd" points="120.08608866850028,205.02285527658654 126.53335708374415,196.9802978486412 121.99012200997647,194.8924724094612" stroke-linejoin="round"/><path d="M236.07973220938692,8.989349081699999 163.668626542,110.184603498" fill="none" stroke="#808080"/><polygon fill="#808080" fill-rule="evenodd" points="109.26906779242512,178.3820047909227 116.32697919845567,170.86962257323543 111.96139798942279,168.4320621724784" stroke-linejoin="round"/><path d="M233.05953477393962,8.989349081699999 154.397475024,97.5586838416" fill="none" stroke="#808080"/><polygon fill="#808080" fill-rule="evenodd" points="89.9265549135039,158.53522278171548 98.03818567068005,152.1750776214826 94.09086668266737,149.1060919898977" stroke-linejoin="round"/><path d="M229.63531711115832,8.989349081699999 146.705762615,85.5059969757" fill="none" stroke="#808080"/><polygon fill="#808080" fill-rule="evenodd" points="89.52145757433233,158.12227445988057 97.25293114329482,151.30506708057678 93.13524842727391,148.46875097510073" stroke-linejoin="round"/><path d="M228.70055857820873,8.989349081699999 136.24811179,90.2858523947" fill="none" stroke="#808080"/><polygon fill="#808080" fill-rule="evenodd" points="93.96185107424292,129.67426316260273 102.46838340666613,123.85284515000149 98.72812406750987,120.53464381857893" stroke-linejoin="round"/><path d="M225.83872886858478,8.989349081699999 147.811286333,68.9754588955" fill="none" stroke="#808080"/><polygon fill="#808080" fill-rule="evenodd" points="93.55446657280697,129.1830392141948 101.63548919381985,122.78404918461369 97.67349122448606,119.73403736644072" stroke-linejoin="round"/><path d="M224.62837508137568,8.989349081699999 136.633591993,73.2227945953" fill="none" stroke="#808080"/><polygon fill="#808080" fill-rule="evenodd" points="80.40452138594264,105.08950472397399 89.33910226764687,99.9491482705473 85.86898383289264,96.34938743838374" stroke-linejoin="round"/><path d="M218.02101978255814,8.989349081699999 124.692058665,62.3969463271" fill="none" stroke="#808080"/><polygon fill="#808080" fill-rule="evenodd" points="80.41688247164679,105.11006808526155 89.53994780717844,100.31218533517053 86.20881882648482,96.58343491257811" stroke-linejoin="round"/><path d="M217.95542143605715,8.989349081699999 134.964153451,56.3795351764" fill="none" stroke="#808080"/><polygon fill="#808080" fill-rule="evenodd" points="86.22983165877734,76.58517247055609 95.4446556661344,71.96597140181747 92.186817044686,68.17301905350105" stroke-linejoin="round"/><path d="M205.71864209113312,8.989349081699999 128.006486584,40.7024121847" fill="none" stroke="#808080"/><polygon fill="#808080" fill-rule="evenodd" points="86.38587446292276,76.90685463983534 95.44267642427971,71.98503198630942 92.06101847422553,68.3020454931445" stroke-linejoin="round"/><path d="M207.63319115473467,8.989349081699999 119.227499563,46.7522117112" fill="none" stroke="#808080"/><polygon fill="#808080" fill-rule="evenodd" points="75.37409046216305,52.70683075140715 85.12933542168274,49.377386987087675 82.41486247853008,45.178382743116" stroke-linejoin="round"/><path d="M189.62909562908177,8.989349081699999 103.433678674,34.5675318673" fill="none" stroke="#808080"/><polygon fill="#808080" fill-rule="evenodd" points="75.20882512725244,52.014744902250236 85.08209704417327,49.05357931171961 82.5270459525211,44.755706126172235" stroke-linejoin="round"/><path d="M186.01370449284246,8.989349081699999 113.456831623,29.2766122186" fill="none" stroke="#808080"/><polygon fill="#808080" fill-rule="evenodd" points="74.70735001743392,23.83109490856272 84.89081098472914,22.23512412951488 82.94171168078955,17.630668471852168" stroke-linejoin="round"/><path d="M177.60200271,-0.2714779521412378 114.28977154,7.07557026593" fill="none" stroke="#808080"/><polygon fill="#808080" fill-rule="evenodd" points="74.84465820319069,25.838737969567397 85.13465928042807,25.233859609520163 83.63942227837792,20.46266832141401" stroke-linejoin="round"/><path d="M177.60200271,3.6660419079923603 106.909384981,15.79001784" fill="none" stroke="#808080"/><polygon fill="#808080" fill-rule="evenodd" points="51.51561933260224,9.532665539734857 61.51036200713652,12.053601649564563 61.520832802993525,7.053612613333172" stroke-linejoin="round"/><path d="M177.60200271,-0.23138262603589332 93.1218715219,9.6197958454" fill="none" stroke="#808080"/><polygon fill="#808080" fill-rule="evenodd" points="51.79193319380227,6.916274649386374 62.07418821092525,7.641003400609437 61.20555997419222,2.717032951231205" stroke-linejoin="round"/><path d="M177.60200271,-5.36009913864436 102.488537098,-2.0270165645600002" fill="none" stroke="#808080"/><polygon fill="#808080" fill-rule="evenodd" points="53.587670409738394,-20.411965296594882 63.549048166404326,-17.76225716379967 63.62404284575903,-22.761694711971312" stroke-linejoin="round"/><path d="M177.60200271,-13.821836022815503 98.5140877707,-19.7380410337" fill="none" stroke="#808080"/><polygon fill="#808080" fill-rule="evenodd" points="53.54849456953933,-20.217264470445773 63.37604515076389,-17.107722772144758 63.6831764698203,-22.098280892521142" stroke-linejoin="round"/><path d="M177.60200271,-12.730405686330545 107.578433079,-16.8921281064" fill="none" stroke="#808080"/><polygon fill="#808080" fill-rule="evenodd" points="35.98552678546728,-43.42304417070771 45.32778479208255,-39.06733351252198 46.2784418069211,-43.976126769539256" stroke-linejoin="round"/><path d="M177.60200271,-19.34314386404284 96.1753940258,-31.7664278664" fill="none" stroke="#808080"/><polygon fill="#808080" fill-rule="evenodd" points="36.16240314696505,-44.04334656793302 45.64164941668855,-39.99440965092221 46.431826051784995,-44.931576944558074" stroke-linejoin="round"/><path d="M177.60200271,-20.650693475816965 108.522026122,-32.4624379216" fill="none" stroke="#808080"/><polygon fill="#808080" fill-rule="evenodd" points="21.11402901237473,-68.9248823518082 30.082018487024314,-63.84303576000968 31.418418121441313,-68.66113040593872" stroke-linejoin="round"/><path d="M181.21848971353973,-26.0106509183 96.6318115135,-47.9784410004" fill="none" stroke="#808080"/><polygon fill="#808080" fill-rule="evenodd" points="21.080472048702177,-68.83308638378995 29.971827448166845,-63.618318971871126 31.37979383030927,-68.41598826713907" stroke-linejoin="round"/><path d="M178.259671219876,-26.0106509183 104.30367755,-44.4096698562" fill="none" stroke="#808080"/><polygon fill="#808080" fill-rule="evenodd" points="24.151296114230064,-96.92227926464848 32.19349731343152,-90.47456650184935 34.28157376660741,-95.01768621474406" stroke-linejoin="round"/><path d="M198.80571288458916,-26.0106509183 112.267532276,-56.42291990379999" fill="none" stroke="#808080"/><polygon fill="#808080" fill-rule="evenodd" points="24.317877037483463,-97.25606935235407 32.56593324476969,-91.07387162003856 34.50484321206097,-95.6826272155045" stroke-linejoin="round"/><path d="M202.69982425682932,-26.0106509183 106.3867434,-62.7295817358" fill="none" stroke="#808080"/><polygon fill="#808080" fill-rule="evenodd" points="-1.6615446942965058,-112.20955609107963 6.352939664215943,-105.72742368984319 8.460474399090451,-110.26154955281805" stroke-linejoin="round"/><path d="M202.80955467609758,-26.0106509183 95.8306800715,-66.8935996568" fill="none" stroke="#808080"/><polygon fill="#808080" fill-rule="evenodd" points="-2.042762417222889,-111.51453476808364 5.582818110920978,-104.57908080970478 7.949434029199989,-108.98352505334645" stroke-linejoin="round"/><path d="M197.073106234701,-26.0106509183 88.3986000632,-62.918172485599996" fill="none" stroke="#808080"/><polygon fill="#808080" fill-rule="evenodd" points="-12.270257140174444,-139.36368870193442 -4.951450647215493,-132.1052404160663 -2.39674633539037,-136.40331974050207" stroke-linejoin="round"/><path d="M209.26711960700348,-26.0106509183 86.6798584785,-80.5494444907" fill="none" stroke="#808080"/><polygon fill="#808080" fill-rule="evenodd" points="-11.931670288533788,-139.92669810018555 -4.279756214621167,-133.02030895639572 -1.9299159203568506,-137.43372606691813" stroke-linejoin="round"/><path d="M212.4801547553764,-26.0106509183 96.3873780979,-82.2542737268" fill="none" stroke="#808080"/><polygon fill="#808080" fill-rule="evenodd" points="-27.29958202232958,-165.35416512356872 -19.982048190191005,-158.09443381893303 -17.42659038002581,-162.39206518754364" stroke-linejoin="round"/><path d="M216.76835405328123,-26.0106509183 87.908339343,-96.8492243331" fill="none" stroke="#808080"/><polygon fill="#808080" fill-rule="evenodd" points="-27.80987132748369,-164.59299721789543 -20.993177098653234,-156.8610712100608 -18.156587710122878,-160.97856567160864" stroke-linejoin="round"/><path d="M212.65722355301014,-26.0106509183 78.6422665086,-91.2568926057" fill="none" stroke="#808080"/><polygon fill="#808080" fill-rule="evenodd" points="-39.740748113233565,-192.0625149322282 -32.995769854820864,-184.26794834430683 -30.121265373259366,-188.35906359390356" stroke-linejoin="round"/><path d="M218.96898222304856,-26.0106509183 78.6642231578,-108.868666851" fill="none" stroke="#808080"/><polygon fill="#808080" fill-rule="evenodd" points="-39.934952700200796,-191.8009573181988 -33.3248613676476,-183.8916784272186 -30.380505575721994,-187.9328130414766" stroke-linejoin="round"/><path d="M215.1733311571071,-26.0106509183 115.689789171,-78.0905543031" fill="none" stroke="#808080"/><polygon fill="#808080" fill-rule="evenodd" points="-52.41021401763704,-221.3195416702854 -45.967165802329085,-213.27360296214096 -42.93884737676793,-217.2522066761852" stroke-linejoin="round"/><path d="M222.3881714695261,-26.0106509183 74.3172328449,-124.860811437" fill="none" stroke="#808080"/><polygon fill="#808080" fill-rule="evenodd" points="-53.01481929254586,-220.59161630892837 -47.13792842713044,-212.12331342369825 -43.844243641776906,-215.88518005274435" stroke-linejoin="round"/><path d="M219.14161637828175,-26.0106509183 63.9015090412,-118.22607022099999" fill="none" stroke="#808080"/><polygon fill="#808080" fill-rule="evenodd" points="-36.409880466999994,-306.406687359378 -27.12454473201938,-301.930914768116 -26.110691246129107,-306.8270460070789" stroke-linejoin="round"/><path d="M33.0006942719,-292.0336753378318 -36.409880466999994,-306.406687359378" fill="none" stroke="#808080"/><polygon fill="#808080" fill-rule="evenodd" points="-36.409880466999994,-316.2275956526777 -26.358862574000455,-313.94132372777386 -26.465442596751572,-318.9401876685859" stroke-linejoin="round"/><path d="M29.000694271999997,-317.6222046331161 -36.409880466999994,-316.2275956526777" fill="none" stroke="#808080"/><polygon fill="#808080" fill-rule="evenodd" points="18.927063397536187,380.230412553 13.248713138300793,371.6277188856978 9.86842791359804,375.3119653214912" stroke-linejoin="round"/><path d="M-127.48187862785265,268.63797343600004 -38.0,328.0" fill="none" stroke="#808080"/><polygon fill="#808080" fill-rule="evenodd" points="-136.54205871713765,268.63797343600004 -131.28472723859144,277.5042277592578 -127.73088184865205,273.9871006724999" stroke-linejoin="round"/><path d="M7.0006942720000005,381.6717496356773 -58.0,348.0" fill="none" stroke="#808080"/><polygon fill="#808080" fill-rule="evenodd" points="-154.0215107928957,268.63797343600004 -156.61298037932823,278.61466053055176 -151.61319003054712,278.6604477365728" stroke-linejoin="round"/><path d="M-155.2494338491043,402.722543756 -154.0215107928957,268.63797343600004" fill="none" stroke="#808080"/><polygon fill="#808080" fill-rule="evenodd" points="108.1719030773357,-230.44276891700002 105.77546355623231,-220.41744709564716 110.77519612170464,-220.46916047646357" stroke-linejoin="round"/><path d="M114.82932137823919,-192.664941781 112.874003313,-199.484921747" fill="none" stroke="#808080"/><path d="M-241.409542374,-315.31079915 -79.409880467,-315.31079915" fill="none" stroke="#000"/><path d="M266.60200270999997,168.430693353 327.60200271,168.430693353" fill="none" stroke="#000"/><path d="M-241.409542374,49.7014866725 -187.289199114,49.7014866725" fill="none" stroke="#000"/><path d="M-241.409542374,251.137973436 -153.861248852,251.137973436" fill="none" stroke="#000"/><path d="M470.484152018,-215.352981836 562.50099478,-215.352981836" fill="none" stroke="#000"/><path d="M562.50099478,-79.3346393464 640.090318095,-79.3346393464" fill="none" stroke="#000"/><path d="M481.275661844,-125.352981836 562.50099478,-125.352981836" fill="none" stroke="#000"/><path d="M482.063615383,-170.352981836 562.50099478,-170.352981836" fill="none" stroke="#000"/><path d="M562.50099478,-124.33463934599999 640.083426227,-124.33463934599999" fill="none" stroke="#000"/><path d="M562.50099478,-169.334639346 637.903310909,-169.334639346" fill="none" stroke="#000"/><path d="M481.817981138,-80.3529818355 562.50099478,-80.3529818355" fill="none" stroke="#000"/><path d="M562.50099478,-215.334639346 635.331883268,-215.334639346" fill="none" stroke="#000"/><path d="M266.60200270999997,291.272292255 304.608537687,291.272292255" fill="none" stroke="#000"/><path d="M266.60200270999997,261.775307522 304.971519338,261.775307522" fill="none" stroke="#000"/><path d="M68.0006942719,-284.786142485 266.60200270999997,-284.786142485" fill="none" stroke="#000"/><path d="M266.60200270999997,322.766558736 312.608537679,322.766558736" fill="none" stroke="#000"/><path d="M266.60200270999997,352.749404494 308.119577494,352.749404494" fill="none" stroke="#000"/><path d="M60.000694272,-318.283150949 266.60200270999997,-318.283150949" fill="none" stroke="#000"/><path d="M195.60853767,-138.741328832 266.60200270999997,-138.741328832" fill="none" stroke="#000"/><path d="M266.60200270999997,227.837458284 324.60200271,227.837458284" fill="none" stroke="#000"/><path d="M266.60200270999997,195.751792313 325.608537686,195.751792313" fill="none" stroke="#000"/><path d="M38.000694272000004,397.730412553 266.60200270999997,397.730412553" fill="none" stroke="#000"/><path d="M-155.40969579,420.222543756 266.60200270999997,420.222543756" fill="none" stroke="#000"/><path d="M119.8466478678,-175.164941781 266.60200270999997,-175.164941781" fill="none" stroke="#000"/><path d="M107.990896563,-247.94276891700002 266.60200270999997,-247.94276891700002" fill="none" stroke="#000"/><path d="M391.608537687,-35.076215 547.323326589,-35.076215" fill="none" stroke="#000"/><path d="M391.608537687,403.431068713 555.426131674,403.431068713" fill="none" stroke="#000"/><path d="M391.608537687,370.431068713 555.127399027,370.431068713" fill="none" stroke="#000"/><path d="M391.608537687,337.431068713 554.7723134949999,337.431068713" fill="none" stroke="#000"/><path d="M391.608537687,303.431068713 554.265862125,303.431068713" fill="none" stroke="#000"/><path d="M391.608537687,183.55583296 564.864092688,183.55583296" fill="none" stroke="#000"/><path d="M248.60200271,-8.510650918300001 391.608537687,-8.510650918300001" fill="none" stroke="#000"/><path d="M266.60200270999997,129.10473326800002 325.793957816,129.10473326800002" fill="none" stroke="#000"/><path d="M-241.409542374,500.333959289 385.6085376870001,500.333959289" fill="none" stroke="#000"/><path d="M-241.409542374,-377.81079915 -241.409542374,562.833959289" fill="none" stroke="#000"/><path d="M562.50099478,-346.854445642 562.50099478,27.42378500000001" fill="none" stroke="#000"/><path d="M528.864092688,15.7661474155 528.864092688,246.05583296" fill="none" stroke="#000"/><path d="M600.864092688,17.105023524499998 600.864092688,246.05583295999998" fill="none" stroke="#000"/><path d="M266.60200270999997,-380.783150949 266.60200270999997,482.722543756" fill="none" stroke="#000"/><path d="M391.608537687,-97.57621499999999 391.608537687,562.833959289" fill="none" stroke="#000"/><circle cx="-64.2456647313" cy="-230.534860786" fill="#fff" r="10.0" stroke="#000"/><circle cx="-51.8803994429" cy="-200.873239397" fill="#fff" r="10.0" stroke="#000"/><circle cx="-40.0081395019" cy="-173.322387434" fill="#fff" r="10.0" stroke="#000"/><circle cx="-24.9523991282" cy="-147.373886864" fill="#fff" r="10.0" stroke="#000"/><circle cx="-14.9991333454" cy="-119.07313598600001" fill="#fff" r="10.0" stroke="#000"/><circle cx="10.814167996996002" cy="-103.786754014" fill="#fff" r="10.0" stroke="#000"/><circle cx="7.00914954944" cy="-74.0290351058" fill="#fff" r="10.0" stroke="#000"/><circle cx="21.6522746425" cy="-47.8454737073" fill="#fff" r="10.0" stroke="#000"/><ellipse cx="38.8631276185" cy="-23.273405421600003" fill="#fff" rx="10.000000000000002" ry="10.0" stroke="#000"/><circle cx="36.7942059058" cy="6.6551689338" fill="#fff" r="10.0" stroke="#000"/><ellipse cx="59.84466826420001" cy="25.856111229999996" fill="#fff" rx="10.000000000000004" ry="9.999999999999998" stroke="#000"/><circle cx="60.70576627829999" cy="55.84375052039999" fill="#fff" r="9.999999999999996" stroke="#000"/><circle cx="72.8128467901" cy="83.2922222716" fill="#fff" r="10.0" stroke="#000"/><ellipse cx="67.5546793879" cy="112.827822411" fill="#fff" rx="9.999999999999996" ry="10.0" stroke="#000"/><circle cx="82.2147261297" cy="139.001913217" fill="#fff" r="10.0" stroke="#000"/><circle cx="79.0180943664" cy="168.831119464" fill="#fff" r="10.0" stroke="#000"/><circle cx="100.0554187553" cy="190.218755672" fill="#fff" r="10.0" stroke="#000"/><circle cx="112.076142064" cy="217.705156148" fill="#fff" r="10.0" stroke="#000"/><ellipse cx="102.6962690731" cy="246.20108537800002" fill="#fff" rx="10.0" ry="10.000000000000014" stroke="#000"/><circle cx="109.7361215795" cy="275.363397986" fill="#fff" r="10.0" stroke="#000"/><circle cx="109.0713986278" cy="305.356032806" fill="#fff" r="10.0" stroke="#000"/><circle cx="109.1225444806" cy="338.810473451" fill="#fff" r="10.0" stroke="#000"/><circle cx="136.926098806" cy="363.856342596" fill="#fff" r="10.0" stroke="#000"/><circle cx="148.706847777" cy="395.079987874" fill="#fff" r="10.0" stroke="#000"/><polygon fill="#fff" fill-rule="evenodd" points="391.608537687,42.14083018 417.608537687,54.64083018 417.608537687,79.64083018 391.608537687,92.14083018 365.608537687,79.64083018 365.608537687,54.64083018" stroke="#000" stroke-linejoin="round"/><text fill="#000" font-family="DejaVu Sans Mono" font-size="10.0pt" stroke-width="0.0" text-anchor="middle" x="391.608537687" y="72">pci.0</text><polygon fill="#fff" fill-rule="evenodd" points="266.60200270999997,-109.26033263 292.60200270999997,-96.76033263 292.60200270999997,-71.76033263 266.60200270999997,-59.26033262999999 240.60200271,-71.76033263 240.60200271,-96.76033263" stroke="#000" stroke-linejoin="round"/><text fill="#000" font-family="DejaVu Sans Mono" font-size="10.0pt" stroke-width="0.0" text-anchor="middle" x="266.60200270999997" y="-79">isa.0</text><polygon fill="#fff" fill-rule="evenodd" points="600.864092688,67.1050235245 626.864092688,79.6050235245 626.864092688,104.6050235245 600.864092688,117.1050235245 574.864092688,104.6050235245 574.864092688,79.6050235245" stroke="#000" stroke-linejoin="round"/><text fill="#000" font-family="DejaVu Sans Mono" font-size="10.0pt" stroke-width="0.0" text-anchor="middle" x="600.864092688" y="97">ide.0</text><polygon fill="#fff" fill-rule="evenodd" points="528.864092688,65.7661474155 554.864092688,78.2661474155 554.864092688,103.2661474155 528.864092688,115.7661474155 502.864092688,103.2661474155 502.864092688,78.2661474155" stroke="#000" stroke-linejoin="round"/><text fill="#000" font-family="DejaVu Sans Mono" font-size="10.0pt" stroke-width="0.0" text-anchor="middle" x="528.864092688" y="96">ide.1</text><polygon fill="#fff" fill-rule="evenodd" points="562.50099478,-296.854445642 580.50099478,-284.354445642 580.50099478,-259.354445642 562.50099478,-246.85444564199997 544.50099478,-259.354445642 544.50099478,-284.354445642" stroke="#000" stroke-linejoin="round"/><text fill="#000" font-family="DejaVu Sans Mono" font-size="10.0pt" stroke-width="0.0" text-anchor="middle" x="562.50099478" y="-267">i2c</text><polygon fill="#fff" fill-rule="evenodd" points="-241.409542374,-142.127310304 -223.409542374,-129.627310304 -223.409542374,-104.62731030399999 -241.409542374,-92.12731030399999 -259.409542374,-104.62731030399999 -259.409542374,-129.627310304" stroke="#000" stroke-linejoin="round"/><text fill="#000" font-family="DejaVu Sans Mono" font-size="10.0pt" stroke-width="0.0" text-anchor="middle" x="-241.409542374" y="-112">bus</text><rect fill="#fff" height="24.999999999999943" stroke="#000" width="132.0" x="319.608537687" y="487.833959289"/><text fill="#000" font-family="DejaVu Sans Mono" font-size="10.0pt" stroke-width="0.0" text-anchor="middle" x="385.608537687" y="505">Q35_HOST_DEVICE</text><rect fill="#fff" height="25.000000000000014" stroke="#000" width="92.0" x="279.793957816" y="116.604733268"/><text fill="#000" font-family="DejaVu Sans Mono" font-size="10.0pt" stroke-width="0.0" text-anchor="middle" x="325.793957816" y="134">IO_PORT_80</text><rect fill="#fff" height="25.0" stroke="#000" width="131.99999999999997" x="182.60200271" y="-21.0106509183"/><text fill="#000" font-family="DejaVu Sans Mono" font-size="10.0pt" stroke-width="0.0" text-anchor="middle" x="248.60200271" y="-4">ICH9_LPC_DEVICE</text><rect fill="#fff" height="25.0" stroke="#000" width="112.0" x="508.864092688" y="171.05583296"/><text fill="#000" font-family="DejaVu Sans Mono" font-size="10.0pt" stroke-width="0.0" text-anchor="middle" x="564.864092688" y="189">ICH9_AHCI</text><rect fill="#fff" height="25.0" stroke="#000" width="124.0" x="492.265862125" y="290.931068713"/><text fill="#000" font-family="DejaVu Sans Mono" font-size="10.0pt" stroke-width="0.0" text-anchor="middle" x="554.265862125" y="308">ich9-usb-ehci1</text><rect fill="#fff" height="25.0" stroke="#000" width="123.99999999999994" x="492.772313495" y="324.931068713"/><text fill="#000" font-family="DejaVu Sans Mono" font-size="10.0pt" stroke-width="0.0" text-anchor="middle" x="554.7723134949999" y="342">ich9-usb-uhci4</text><rect fill="#fff" height="25.0" stroke="#000" width="124.0" x="493.127399027" y="357.931068713"/><text fill="#000" font-family="DejaVu Sans Mono" font-size="10.0pt" stroke-width="0.0" text-anchor="middle" x="555.127399027" y="375">ich9-usb-uhci5</text><rect fill="#fff" height="25.0" stroke="#000" width="124.0" x="493.426131674" y="390.931068713"/><text fill="#000" font-family="DejaVu Sans Mono" font-size="10.0pt" stroke-width="0.0" text-anchor="middle" x="555.426131674" y="408">ich9-usb-uhci6</text><rect fill="#fff" height="25.0" stroke="#000" width="132.0" x="481.323326589" y="-47.576215"/><text fill="#000" font-family="DejaVu Sans Mono" font-size="10.0pt" stroke-width="0.0" text-anchor="middle" x="547.323326589" y="-30">ICH9_SMB_DEVICE</text><rect fill="#fff" height="25.0" stroke="#000" width="84.0" x="65.990896563" y="-260.442768917"/><text fill="#000" font-family="DejaVu Sans Mono" font-size="10.0pt" stroke-width="0.0" text-anchor="middle" x="107.990896563" y="-243">isa-i8259</text><rect fill="#fff" height="25.0" stroke="#000" width="84.00000000000001" x="77.8466478678" y="-187.664941781"/><text fill="#000" font-family="DejaVu Sans Mono" font-size="10.0pt" stroke-width="0.0" text-anchor="middle" x="119.8466478678" y="-170">isa-i8259</text><rect fill="#fff" height="25.0" stroke="#000" width="108.0" x="-209.40969579" y="407.722543756"/><text fill="#000" font-family="DejaVu Sans Mono" font-size="10.0pt" stroke-width="0.0" text-anchor="middle" x="-155.40969579" y="425">MC146818_RTC</text><rect fill="#fff" height="25.0" stroke="#000" width="52.0" x="12.000694272" y="385.230412553"/><text fill="#000" font-family="DejaVu Sans Mono" font-size="10.0pt" stroke-width="0.0" text-anchor="middle" x="38.000694272000004" y="403">I8254</text><rect fill="#fff" height="25.0" stroke="#000" width="92.0" x="279.608537686" y="183.251792313"/><text fill="#000" font-family="DejaVu Sans Mono" font-size="10.0pt" stroke-width="0.0" text-anchor="middle" x="325.608537686" y="201">PC_SPEAKER</text><rect fill="#fff" height="25.0" stroke="#000" width="92.0" x="278.60200271" y="215.337458284"/><text fill="#000" font-family="DejaVu Sans Mono" font-size="10.0pt" stroke-width="0.0" text-anchor="middle" x="324.60200271" y="233">ISA_SERIAL</text><rect fill="#fff" height="25.0" stroke="#000" width="108.0" x="141.60853767" y="-151.241328832"/><text fill="#000" font-family="DejaVu Sans Mono" font-size="10.0pt" stroke-width="0.0" text-anchor="middle" x="195.60853767" y="-134">isa-parallel</text><rect fill="#fff" height="25.0" stroke="#000" width="52.00000000000001" x="34.000694272" y="-330.783150949"/><text fill="#000" font-family="DejaVu Sans Mono" font-size="10.0pt" stroke-width="0.0" text-anchor="middle" x="60.000694272" y="-313">i8042</text><rect fill="#fff" height="25.0" stroke="#000" width="60.0" x="278.119577494" y="340.249404494"/><text fill="#000" font-family="DejaVu Sans Mono" font-size="10.0pt" stroke-width="0.0" text-anchor="middle" x="308.119577494" y="358">VMPORT</text><rect fill="#fff" height="25.0" stroke="#000" width="68.0" x="278.608537679" y="310.266558736"/><text fill="#000" font-family="DejaVu Sans Mono" font-size="10.0pt" stroke-width="0.0" text-anchor="middle" x="312.608537679" y="328">vmmouse</text><rect fill="#fff" height="25.0" stroke="#000" width="60.0" x="38.0006942719" y="-297.286142485"/><text fill="#000" font-family="DejaVu Sans Mono" font-size="10.0pt" stroke-width="0.0" text-anchor="middle" x="68.0006942719" y="-280">port92</text><rect fill="#fff" height="25.0" stroke="#000" width="52.0" x="278.971519338" y="249.275307522"/><text fill="#000" font-family="DejaVu Sans Mono" font-size="10.0pt" stroke-width="0.0" text-anchor="middle" x="304.971519338" y="267">I8257</text><rect fill="#fff" height="25.0" stroke="#000" width="52.0" x="278.608537687" y="278.772292255"/><text fill="#000" font-family="DejaVu Sans Mono" font-size="10.0pt" stroke-width="0.0" text-anchor="middle" x="304.608537687" y="296">I8257</text><rect fill="#fff" height="25.0" stroke="#000" width="108.0" x="581.331883268" y="-227.834639346"/><text fill="#000" font-family="DejaVu Sans Mono" font-size="10.0pt" stroke-width="0.0" text-anchor="middle" x="635.331883268" y="-210">smbus-eeprom</text><rect fill="#fff" height="25.0" stroke="#000" width="108.00000000000006" x="427.817981138" y="-92.8529818355"/><text fill="#000" font-family="DejaVu Sans Mono" font-size="10.0pt" stroke-width="0.0" text-anchor="middle" x="481.817981138" y="-75">smbus-eeprom</text><rect fill="#fff" height="25.0" stroke="#000" width="108.0" x="583.903310909" y="-181.834639346"/><text fill="#000" font-family="DejaVu Sans Mono" font-size="10.0pt" stroke-width="0.0" text-anchor="middle" x="637.903310909" y="-164">smbus-eeprom</text><rect fill="#fff" height="25.0" stroke="#000" width="108.0" x="586.083426227" y="-136.834639346"/><text fill="#000" font-family="DejaVu Sans Mono" font-size="10.0pt" stroke-width="0.0" text-anchor="middle" x="640.083426227" y="-119">smbus-eeprom</text><rect fill="#fff" height="25.0" stroke="#000" width="108.00000000000006" x="428.063615383" y="-182.852981836"/><text fill="#000" font-family="DejaVu Sans Mono" font-size="10.0pt" stroke-width="0.0" text-anchor="middle" x="482.063615383" y="-165">smbus-eeprom</text><rect fill="#fff" height="25.0" stroke="#000" width="108.00000000000006" x="427.275661844" y="-137.852981836"/><text fill="#000" font-family="DejaVu Sans Mono" font-size="10.0pt" stroke-width="0.0" text-anchor="middle" x="481.275661844" y="-120">smbus-eeprom</text><rect fill="#fff" height="25.0" stroke="#000" width="108.0" x="586.090318095" y="-91.8346393464"/><text fill="#000" font-family="DejaVu Sans Mono" font-size="10.0pt" stroke-width="0.0" text-anchor="middle" x="640.090318095" y="-74">smbus-eeprom</text><rect fill="#fff" height="25.0" stroke="#000" width="108.00000000000006" x="416.484152018" y="-227.852981836"/><text fill="#000" font-family="DejaVu Sans Mono" font-size="10.0pt" stroke-width="0.0" text-anchor="middle" x="470.484152018" y="-210">smbus-eeprom</text><rect fill="#fff" height="25.00000000000003" stroke="#000" width="44.0" x="-175.861248852" y="238.637973436"/><text fill="#000" font-family="DejaVu Sans Mono" font-size="10.0pt" stroke-width="0.0" text-anchor="middle" x="-153.861248852" y="256">HPET</text><rect fill="#fff" height="25.0" stroke="#000" width="60.0" x="-217.289199114" y="37.2014866725"/><text fill="#000" font-family="DejaVu Sans Mono" font-size="10.0pt" stroke-width="0.0" text-anchor="middle" x="-187.289199114" y="55">ioapic</text><rect fill="#fff" height="25.0" stroke="#000" width="92.0" x="281.60200271" y="155.930693353"/><text fill="#000" font-family="DejaVu Sans Mono" font-size="10.0pt" stroke-width="0.0" text-anchor="middle" x="327.60200271" y="173">IO_PORT_F0</text><rect fill="#fff" height="25.0" stroke="#000" width="76.0" x="-117.409880467" y="-327.81079915"/><text fill="#000" font-family="DejaVu Sans Mono" font-size="10.0pt" stroke-width="0.0" text-anchor="middle" x="-79.409880467" y="-310">A20_LINE</text></svg>