<?xml version="1.0" ?><!DOCTYPE svg  PUBLIC '-//W3C//DTD SVG 1.1//EN'  'http://www.w3.org/Graphics/SVG/1.1/DTD/svg11.dtd'><svg height="559.000" viewBox="-147.000 377.000 775.000 559.000" width="775.000" xmlns="http://www.w3.org/2000/svg"><path d="M-98.40988046700676,651.6892008504442 -31.40954237400001,651.6892008504442" fill="none" stroke="#000"/><path d="M505.6020027099353,632.4306933532623 570.6020027099348,632.4306933532623" fill="none" stroke="#000"/><path d="M-99.28919911399998,618.7014866725001 -31.40954237400001,618.7014866725001" fill="none" stroke="#000"/><path d="M-100.86124885200002,692.137973436 -31.40954237400001,692.137973436" fill="none" stroke="#000"/><path d="M53.48415201754142,451.64701816448905 137.50099477985802,451.64701816448905" fill="none" stroke="#000"/><path d="M137.50099477985802,552.6653606535758 220.0903180949192,552.6653606535758" fill="none" stroke="#000"/><path d="M58.27566184417637,519.6470181644825 137.50099477985802,519.6470181644825" fill="none" stroke="#000"/><path d="M56.063615383111596,485.6470181644868 137.50099477985802,485.6470181644868" fill="none" stroke="#000"/><path d="M137.50099477985802,519.6653606535781 223.08342622665938,519.6653606535781" fill="none" stroke="#000"/><path d="M137.50099477985802,485.66536065358264 222.90331090937516,485.66536065358264" fill="none" stroke="#000"/><path d="M56.817981138099185,550.6470181644802 137.50099477985802,550.6470181644802" fill="none" stroke="#000"/><path d="M137.50099477985802,454.6653606535849 224.33188326825967,454.6653606535849" fill="none" stroke="#000"/><path d="M505.6020027099353,800.2722922550097 547.6085376868277,800.2722922550097" fill="none" stroke="#000"/><path d="M505.6020027099353,770.7753075224668 547.9715193376489,770.7753075224668" fill="none" stroke="#000"/><path d="M451.00069427194114,800.213857515458 505.6020027099353,800.213857515458" fill="none" stroke="#000"/><path d="M505.6020027099353,831.7665587364345 555.608537679007,831.7665587364345" fill="none" stroke="#000"/><path d="M505.6020027099353,861.7494044937312 551.1195774942717,861.7494044937312" fill="none" stroke="#000"/><path d="M454.00069427198645,770.7168490508045 505.6020027099353,770.7168490508045" fill="none" stroke="#000"/><path d="M424.6085376697983,598.258671168274 505.6020027099353,598.258671168274" fill="none" stroke="#000"/><path d="M505.6020027099353,696.837458284 569.6020027099355,696.837458284" fill="none" stroke="#000"/><path d="M505.6020027099353,664.7517923126248 570.6085376859126,664.7517923126248" fill="none" stroke="#000"/><path d="M454.00069427202817,831.7304125531933 505.6020027099353,831.7304125531933" fill="none" stroke="#000"/><path d="M427.59030421013586,696.2225437560203 505.6020027099353,696.2225437560203" fill="none" stroke="#000"/><path d="M435.84664786783645,631.8350582191871 505.6020027099353,631.8350582191871" fill="none" stroke="#000"/><path d="M437.9908965629999,665.057231083 505.6020027099353,665.057231083" fill="none" stroke="#000"/><path d="M131.50099477985802,592.923785 342.608537687,592.923785" fill="none" stroke="#000"/><path d="M253.42613167431728,740.4310687129955 342.608537687,740.4310687129955" fill="none" stroke="#000"/><path d="M253.12739902719483,707.4310687129978 342.608537687,707.4310687129978" fill="none" stroke="#000"/><path d="M252.77231349457213,674.4310687130021 342.608537687,674.4310687130021" fill="none" stroke="#000"/><path d="M252.26586212491736,640.4310687130044 342.608537687,640.4310687130044" fill="none" stroke="#000"/><path d="M57.364092688000056,762.5558329600001 342.60853768699997,762.5558329600001" fill="none" stroke="#000"/><path d="M342.608537687,731.4893490817 497.6020027099353,731.4893490817" fill="none" stroke="#000"/><path d="M505.6020027099353,598.104733267834 570.7939578164162,598.104733267834" fill="none" stroke="#000"/><path d="M-31.40954237400001,845.333959289 344.608537687,845.333959289" fill="none" stroke="#000"/><path d="M-31.40954237400001,556.2014866725001 -31.40954237400001,907.833959289" fill="none" stroke="#000"/><path d="M137.50099477985802,389.14701816448905 137.50099477985802,655.423785" fill="none" stroke="#000"/><path d="M28.864092688000312,626.7661474154556 28.864092688000312,825.0558329600001" fill="none" stroke="#000"/><path d="M85.8640926879998,626.1050235245443 85.8640926879998,825.0558329600001" fill="none" stroke="#000"/><path d="M505.6020027099353,453.7396673701005 505.6020027099353,924.2494044937312" fill="none" stroke="#000"/><path d="M342.608537687,466.14083017999997 342.608537687,907.833959289" fill="none" stroke="#000"/><polygon fill="#fff" fill-rule="evenodd" points="342.608537687,516.14083018 368.608537687,528.64083018 368.608537687,553.64083018 342.608537687,566.14083018 316.608537687,553.64083018 316.608537687,528.64083018" stroke="#000" stroke-linejoin="round"/><text fill="#000" font-family="DejaVu Sans Mono" font-size="10.0pt" stroke-width="0.0" text-anchor="middle" x="342.608537687" y="546">pci.0</text><polygon fill="#fff" fill-rule="evenodd" points="505.6020027099353,503.7396673701005 531.6020027099353,516.2396673701005 531.6020027099353,541.2396673701005 505.6020027099353,553.7396673701005 479.6020027099353,541.2396673701005 479.6020027099353,516.2396673701005" stroke="#000" stroke-linejoin="round"/><text fill="#000" font-family="DejaVu Sans Mono" font-size="10.0pt" stroke-width="0.0" text-anchor="middle" x="505.6020027099353" y="534">isa.0</text><polygon fill="#fff" fill-rule="evenodd" points="85.8640926879998,676.1050235245443 111.8640926879998,688.6050235245443 111.8640926879998,713.6050235245443 85.8640926879998,726.1050235245443 59.8640926879998,713.6050235245443 59.8640926879998,688.6050235245443" stroke="#000" stroke-linejoin="round"/><text fill="#000" font-family="DejaVu Sans Mono" font-size="10.0pt" stroke-width="0.0" text-anchor="middle" x="85.8640926879998" y="706">ide.0</text><polygon fill="#fff" fill-rule="evenodd" points="28.864092688000312,676.7661474154556 54.86409268800031,689.2661474154556 54.86409268800031,714.2661474154556 28.864092688000312,726.7661474154556 2.864092688000312,714.2661474154556 2.864092688000312,689.2661474154556" stroke="#000" stroke-linejoin="round"/><text fill="#000" font-family="DejaVu Sans Mono" font-size="10.0pt" stroke-width="0.0" text-anchor="middle" x="28.864092688000312" y="707">ide.1</text><polygon fill="#fff" fill-rule="evenodd" points="137.50099477985802,479.1455543577414 155.50099477985802,491.6455543577414 155.50099477985802,516.6455543577414 137.50099477985802,529.1455543577414 119.50099477985802,516.6455543577414 119.50099477985802,491.6455543577414" stroke="#000" stroke-linejoin="round"/><text fill="#000" font-family="DejaVu Sans Mono" font-size="10.0pt" stroke-width="0.0" text-anchor="middle" x="137.50099477985802" y="509">i2c</text><polygon fill="#fff" fill-rule="evenodd" points="-31.40954237400001,757.872689696 -13.409542374000011,770.372689696 -13.409542374000011,795.372689696 -31.40954237400001,807.872689696 -49.40954237400001,795.372689696 -49.40954237400001,770.372689696" stroke="#000" stroke-linejoin="round"/><text fill="#000" font-family="DejaVu Sans Mono" font-size="10.0pt" stroke-width="0.0" text-anchor="middle" x="-31.40954237400001" y="788">bus</text><rect fill="#fff" height="25.0" stroke="#000" width="132.0" x="278.608537687" y="832.833959289"/><text fill="#000" font-family="DejaVu Sans Mono" font-size="10.0pt" stroke-width="0.0" text-anchor="middle" x="344.608537687" y="850">Q35_HOST_DEVICE</text><rect fill="#fff" height="25.0" stroke="#000" width="92.0" x="524.7939578164162" y="585.604733267834"/><text fill="#000" font-family="DejaVu Sans Mono" font-size="10.0pt" stroke-width="0.0" text-anchor="middle" x="570.7939578164162" y="603">IO_PORT_80</text><rect fill="#fff" height="25.0" stroke="#000" width="132.0" x="431.6020027099353" y="718.9893490817"/><text fill="#000" font-family="DejaVu Sans Mono" font-size="10.0pt" stroke-width="0.0" text-anchor="middle" x="497.6020027099353" y="736">ICH9_LPC_DEVICE</text><rect fill="#fff" height="25.0" stroke="#000" width="96.99999999999949" x="8.864092688000312" y="750.0558329600001"/><text fill="#000" font-family="DejaVu Sans Mono" font-size="10.0pt" stroke-width="0.0" text-anchor="middle" x="57.364092688000056" y="768">ICH9_AHCI</text><rect fill="#fff" height="25.0" stroke="#000" width="124.0" x="190.26586212491736" y="627.9310687130044"/><text fill="#000" font-family="DejaVu Sans Mono" font-size="10.0pt" stroke-width="0.0" text-anchor="middle" x="252.26586212491736" y="645">ich9-usb-ehci1</text><rect fill="#fff" height="25.0" stroke="#000" width="124.0" x="190.77231349457213" y="661.9310687130021"/><text fill="#000" font-family="DejaVu Sans Mono" font-size="10.0pt" stroke-width="0.0" text-anchor="middle" x="252.77231349457213" y="679">ich9-usb-uhci4</text><rect fill="#fff" height="25.0" stroke="#000" width="124.0" x="191.12739902719483" y="694.9310687129978"/><text fill="#000" font-family="DejaVu Sans Mono" font-size="10.0pt" stroke-width="0.0" text-anchor="middle" x="253.12739902719483" y="712">ich9-usb-uhci5</text><rect fill="#fff" height="25.0" stroke="#000" width="124.0" x="191.42613167431728" y="727.9310687129955"/><text fill="#000" font-family="DejaVu Sans Mono" font-size="10.0pt" stroke-width="0.0" text-anchor="middle" x="253.42613167431728" y="745">ich9-usb-uhci6</text><rect fill="#fff" height="25.0" stroke="#000" width="132.0" x="65.50099477985802" y="580.423785"/><text fill="#000" font-family="DejaVu Sans Mono" font-size="10.0pt" stroke-width="0.0" text-anchor="middle" x="131.50099477985802" y="598">ICH9_SMB_DEVICE</text><rect fill="#fff" height="25.0" stroke="#000" width="84.0" x="395.9908965629999" y="652.557231083"/><text fill="#000" font-family="DejaVu Sans Mono" font-size="10.0pt" stroke-width="0.0" text-anchor="middle" x="437.9908965629999" y="670">isa-i8259</text><rect fill="#fff" height="25.0" stroke="#000" width="84.0" x="393.84664786783645" y="619.3350582191871"/><text fill="#000" font-family="DejaVu Sans Mono" font-size="10.0pt" stroke-width="0.0" text-anchor="middle" x="435.84664786783645" y="637">isa-i8259</text><rect fill="#fff" height="25.0" stroke="#000" width="108.0" x="373.59030421013586" y="683.7225437560203"/><text fill="#000" font-family="DejaVu Sans Mono" font-size="10.0pt" stroke-width="0.0" text-anchor="middle" x="427.59030421013586" y="701">MC146818_RTC</text><rect fill="#fff" height="25.0" stroke="#000" width="52.0" x="428.00069427202817" y="819.2304125531933"/><text fill="#000" font-family="DejaVu Sans Mono" font-size="10.0pt" stroke-width="0.0" text-anchor="middle" x="454.00069427202817" y="837">I8254</text><rect fill="#fff" height="25.0" stroke="#000" width="92.0" x="524.6085376859126" y="652.2517923126248"/><text fill="#000" font-family="DejaVu Sans Mono" font-size="10.0pt" stroke-width="0.0" text-anchor="middle" x="570.6085376859126" y="670">PC_SPEAKER</text><rect fill="#fff" height="25.0" stroke="#000" width="92.0" x="523.6020027099355" y="684.337458284"/><text fill="#000" font-family="DejaVu Sans Mono" font-size="10.0pt" stroke-width="0.0" text-anchor="middle" x="569.6020027099355" y="702">ISA_SERIAL</text><rect fill="#fff" height="25.0" stroke="#000" width="108.0" x="370.6085376697983" y="585.758671168274"/><text fill="#000" font-family="DejaVu Sans Mono" font-size="10.0pt" stroke-width="0.0" text-anchor="middle" x="424.6085376697983" y="603">isa-parallel</text><rect fill="#fff" height="25.0" stroke="#000" width="52.0" x="428.00069427198645" y="758.2168490508045"/><text fill="#000" font-family="DejaVu Sans Mono" font-size="10.0pt" stroke-width="0.0" text-anchor="middle" x="454.00069427198645" y="776">i8042</text><rect fill="#fff" height="25.0" stroke="#000" width="60.0" x="521.1195774942717" y="849.2494044937312"/><text fill="#000" font-family="DejaVu Sans Mono" font-size="10.0pt" stroke-width="0.0" text-anchor="middle" x="551.1195774942717" y="867">VMPORT</text><rect fill="#fff" height="25.0" stroke="#000" width="68.0" x="521.608537679007" y="819.2665587364345"/><text fill="#000" font-family="DejaVu Sans Mono" font-size="10.0pt" stroke-width="0.0" text-anchor="middle" x="555.608537679007" y="837">vmmouse</text><rect fill="#fff" height="25.0" stroke="#000" width="60.0" x="421.00069427194114" y="787.713857515458"/><text fill="#000" font-family="DejaVu Sans Mono" font-size="10.0pt" stroke-width="0.0" text-anchor="middle" x="451.00069427194114" y="805">port92</text><rect fill="#fff" height="25.0" stroke="#000" width="52.0" x="521.9715193376489" y="758.2753075224668"/><text fill="#000" font-family="DejaVu Sans Mono" font-size="10.0pt" stroke-width="0.0" text-anchor="middle" x="547.9715193376489" y="776">I8257</text><rect fill="#fff" height="25.0" stroke="#000" width="52.0" x="521.6085376868277" y="787.7722922550097"/><text fill="#000" font-family="DejaVu Sans Mono" font-size="10.0pt" stroke-width="0.0" text-anchor="middle" x="547.6085376868277" y="805">I8257</text><rect fill="#fff" height="25.0" stroke="#000" width="108.0" x="170.33188326825967" y="442.1653606535849"/><text fill="#000" font-family="DejaVu Sans Mono" font-size="10.0pt" stroke-width="0.0" text-anchor="middle" x="224.33188326825967" y="460">smbus-eeprom</text><rect fill="#fff" height="25.0" stroke="#000" width="108.0" x="2.817981138099185" y="538.1470181644802"/><text fill="#000" font-family="DejaVu Sans Mono" font-size="10.0pt" stroke-width="0.0" text-anchor="middle" x="56.817981138099185" y="556">smbus-eeprom</text><rect fill="#fff" height="25.0" stroke="#000" width="107.99999999999997" x="168.90331090937516" y="473.16536065358264"/><text fill="#000" font-family="DejaVu Sans Mono" font-size="10.0pt" stroke-width="0.0" text-anchor="middle" x="222.90331090937516" y="491">smbus-eeprom</text><rect fill="#fff" height="25.0" stroke="#000" width="108.00000000000003" x="169.08342622665938" y="507.1653606535781"/><text fill="#000" font-family="DejaVu Sans Mono" font-size="10.0pt" stroke-width="0.0" text-anchor="middle" x="223.08342622665938" y="525">smbus-eeprom</text><rect fill="#fff" height="25.0" stroke="#000" width="108.0" x="2.063615383111596" y="473.1470181644868"/><text fill="#000" font-family="DejaVu Sans Mono" font-size="10.0pt" stroke-width="0.0" text-anchor="middle" x="56.063615383111596" y="491">smbus-eeprom</text><rect fill="#fff" height="25.0" stroke="#000" width="108.0" x="4.275661844176369" y="507.14701816448246"/><text fill="#000" font-family="DejaVu Sans Mono" font-size="10.0pt" stroke-width="0.0" text-anchor="middle" x="58.27566184417637" y="525">smbus-eeprom</text><rect fill="#fff" height="25.0" stroke="#000" width="108.0" x="166.0903180949192" y="540.1653606535758"/><text fill="#000" font-family="DejaVu Sans Mono" font-size="10.0pt" stroke-width="0.0" text-anchor="middle" x="220.0903180949192" y="558">smbus-eeprom</text><rect fill="#fff" height="25.0" stroke="#000" width="108.0" x="-0.5158479824585811" y="439.14701816448905"/><text fill="#000" font-family="DejaVu Sans Mono" font-size="10.0pt" stroke-width="0.0" text-anchor="middle" x="53.48415201754142" y="457">smbus-eeprom</text><rect fill="#fff" height="25.0" stroke="#000" width="44.0" x="-122.86124885200002" y="679.637973436"/><text fill="#000" font-family="DejaVu Sans Mono" font-size="10.0pt" stroke-width="0.0" text-anchor="middle" x="-100.86124885200002" y="697">HPET</text><rect fill="#fff" height="25.0" stroke="#000" width="60.0" x="-129.28919911399998" y="606.2014866725001"/><text fill="#000" font-family="DejaVu Sans Mono" font-size="10.0pt" stroke-width="0.0" text-anchor="middle" x="-99.28919911399998" y="624">ioapic</text><rect fill="#fff" height="25.0" stroke="#000" width="92.0" x="524.6020027099348" y="619.9306933532623"/><text fill="#000" font-family="DejaVu Sans Mono" font-size="10.0pt" stroke-width="0.0" text-anchor="middle" x="570.6020027099348" y="637">IO_PORT_F0</text><rect fill="#fff" height="25.0" stroke="#000" width="76.0" x="-136.40988046700676" y="639.1892008504442"/><text fill="#000" font-family="DejaVu Sans Mono" font-size="10.0pt" stroke-width="0.0" text-anchor="middle" x="-98.40988046700676" y="657">A20_LINE</text></svg>