<?xml version="1.0" ?><!DOCTYPE svg  PUBLIC '-//W3C//DTD SVG 1.1//EN'  'http://www.w3.org/Graphics/SVG/1.1/DTD/svg11.dtd'><svg height="989.000" viewBox="-258.000 -315.000 666.000 989.000" width="666.000" xmlns="http://www.w3.org/2000/svg"><path d="M-229.409542374,-7.310799149555862 -178.40988046700676,-7.310799149555862" fill="none" stroke="#000"/><path d="M164.60200270993533,-201.56930664673763 227.60200270993482,-201.56930664673763" fill="none" stroke="#000"/><path d="M-229.409542374,-82.29851332749999 -181.28919911399998,-82.29851332749999" fill="none" stroke="#000"/><path d="M-229.409542374,-43.86202656399999 -189.861248852,-43.86202656399999" fill="none" stroke="#000"/><path d="M-133.51584798245858,96.64701816448905 -41.49900522014198,96.64701816448905" fill="none" stroke="#000"/><path d="M-41.49900522014198,207.66536065357582 46.09031809491921,207.66536065357582" fill="none" stroke="#000"/><path d="M-131.72433815582363,170.64701816448246 -41.49900522014198,170.64701816448246" fill="none" stroke="#000"/><path d="M-134.9363846168884,133.64701816448678 -41.49900522014198,133.64701816448678" fill="none" stroke="#000"/><path d="M-41.49900522014198,170.6653606535781 45.083426226659384,170.6653606535781" fill="none" stroke="#000"/><path d="M-41.49900522014198,134.66536065358264 45.903310909375165,134.66536065358264" fill="none" stroke="#000"/><path d="M-132.18201886190081,207.6470181644802 -41.49900522014198,207.6470181644802" fill="none" stroke="#000"/><path d="M-41.49900522014198,96.66536065358491 47.33188326825966,96.66536065358491" fill="none" stroke="#000"/><path d="M111.60853768682773,-58.72770774499037 164.60200270993533,-58.72770774499037" fill="none" stroke="#000"/><path d="M110.97151933764894,-92.2246924775331 164.60200270993533,-92.2246924775331" fill="none" stroke="#000"/><path d="M164.60200270993533,-58.78614248454198 219.0006942719412,-58.78614248454198" fill="none" stroke="#000"/><path d="M108.6085376790071,-24.233441263565567 164.60200270993533,-24.233441263565567" fill="none" stroke="#000"/><path d="M111.11957749427171,11.749404493731163 164.60200270993533,11.749404493731163" fill="none" stroke="#000"/><path d="M164.60200270993533,-92.28315094919543 214.0006942719865,-92.28315094919543" fill="none" stroke="#000"/><path d="M82.60853766979835,-166.74132883172604 164.60200270993533,-166.74132883172604" fill="none" stroke="#000"/><path d="M91.60200270993562,-129.16254171599996 164.60200270993533,-129.16254171599996" fill="none" stroke="#000"/><path d="M164.60200270993533,-166.24820768737519 228.60853768591267,-166.24820768737519" fill="none" stroke="#000"/><path d="M164.60200270993533,-129.26958744680667 212.00069427202823,-129.26958744680667" fill="none" stroke="#000"/><path d="M164.60200270993533,-23.777456243979714 241.5903042101359,-23.777456243979714" fill="none" stroke="#000"/><path d="M92.84664786783648,-203.1649417808129 164.60200270993533,-203.1649417808129" fill="none" stroke="#000"/><path d="M90.990896563,-240.94276891700002 164.60200270993533,-240.94276891700002" fill="none" stroke="#000"/><path d="M-5.676673410999996,338.92378499999995 255.608537687,338.92378499999995" fill="none" stroke="#000"/><path d="M165.42613167431728,485.4310687129955 255.60853768700002,485.4310687129955" fill="none" stroke="#000"/><path d="M162.12739902719483,373.4310687129978 255.60853768700002,373.4310687129978" fill="none" stroke="#000"/><path d="M162.77231349457213,450.4310687130021 255.60853768700002,450.4310687130021" fill="none" stroke="#000"/><path d="M163.26586212491736,413.4310687130044 255.60853768700002,413.4310687130044" fill="none" stroke="#000"/><path d="M255.60853768700002,430.5558329600001 338.364092688,430.5558329600001" fill="none" stroke="#000"/><path d="M148.60200270993533,258.48934908169997 255.60853768700002,258.48934908169997" fill="none" stroke="#000"/><path d="M164.60200270993533,-240.89526673216596 225.7939578164162,-240.89526673216596" fill="none" stroke="#000"/><path d="M-229.409542374,536.333959289 218.60853768700002,536.333959289" fill="none" stroke="#000"/><path d="M-229.409542374,-220.127310304 -229.409542374,598.833959289" fill="none" stroke="#000"/><path d="M-41.49900522014198,-23.85444564225861 -41.49900522014198,401.42378499999995" fill="none" stroke="#000"/><path d="M306.8640926880003,269.76614741545563 306.8640926880003,493.0558329600001" fill="none" stroke="#000"/><path d="M369.8640926879998,268.1050235245443 369.8640926879998,493.0558329600001" fill="none" stroke="#000"/><path d="M164.60200270993533,-303.442768917 164.60200270993533,320.9893490817" fill="none" stroke="#000"/><path d="M255.60853768700002,195.98934908169997 255.60853768700002,662.14083018" fill="none" stroke="#000"/><polygon fill="#fff" fill-rule="evenodd" points="255.60853768700002,562.14083018 281.608537687,574.64083018 281.608537687,599.64083018 255.60853768700002,612.14083018 229.60853768700002,599.64083018 229.60853768700002,574.64083018" stroke="#000" stroke-linejoin="round"/><text fill="#000" font-family="DejaVu Sans Mono" font-size="10.0pt" stroke-width="0.0" text-anchor="middle" x="255.60853768700002" y="592">pci.0</text><polygon fill="#fff" fill-rule="evenodd" points="164.60200270993533,93.7396673701005 190.60200270993533,106.2396673701005 190.60200270993533,131.2396673701005 164.60200270993533,143.7396673701005 138.60200270993533,131.2396673701005 138.60200270993533,106.2396673701005" stroke="#000" stroke-linejoin="round"/><text fill="#000" font-family="DejaVu Sans Mono" font-size="10.0pt" stroke-width="0.0" text-anchor="middle" x="164.60200270993533" y="124">isa.0</text><polygon fill="#fff" fill-rule="evenodd" points="369.8640926879998,318.1050235245443 395.8640926879998,330.6050235245443 395.8640926879998,355.6050235245443 369.8640926879998,368.1050235245443 343.8640926879998,355.6050235245443 343.8640926879998,330.6050235245443" stroke="#000" stroke-linejoin="round"/><text fill="#000" font-family="DejaVu Sans Mono" font-size="10.0pt" stroke-width="0.0" text-anchor="middle" x="369.8640926879998" y="348">ide.0</text><polygon fill="#fff" fill-rule="evenodd" points="306.8640926880003,319.76614741545563 332.8640926880003,332.26614741545563 332.8640926880003,357.26614741545563 306.8640926880003,369.76614741545563 280.8640926880003,357.26614741545563 280.8640926880003,332.26614741545563" stroke="#000" stroke-linejoin="round"/><text fill="#000" font-family="DejaVu Sans Mono" font-size="10.0pt" stroke-width="0.0" text-anchor="middle" x="306.8640926880003" y="350">ide.1</text><polygon fill="#fff" fill-rule="evenodd" points="-41.49900522014198,26.14555435774139 -23.49900522014198,38.64555435774139 -23.49900522014198,63.64555435774139 -41.49900522014198,76.14555435774139 -59.49900522014198,63.64555435774139 -59.49900522014198,38.64555435774139" stroke="#000" stroke-linejoin="round"/><text fill="#000" font-family="DejaVu Sans Mono" font-size="10.0pt" stroke-width="0.0" text-anchor="middle" x="-41.49900522014198" y="56">i2c</text><polygon fill="#fff" fill-rule="evenodd" points="-229.409542374,-170.127310304 -211.409542374,-157.627310304 -211.409542374,-132.627310304 -229.409542374,-120.12731030399999 -247.409542374,-132.627310304 -247.409542374,-157.627310304" stroke="#000" stroke-linejoin="round"/><text fill="#000" font-family="DejaVu Sans Mono" font-size="10.0pt" stroke-width="0.0" text-anchor="middle" x="-229.409542374" y="-140">bus</text><rect fill="#fff" height="25.0" stroke="#000" width="132.0" x="152.60853768700002" y="523.833959289"/><text fill="#000" font-family="DejaVu Sans Mono" font-size="10.0pt" stroke-width="0.0" text-anchor="middle" x="218.60853768700002" y="541">Q35_HOST_DEVICE</text><rect fill="#fff" height="25.0" stroke="#000" width="92.0" x="179.7939578164162" y="-253.39526673216596"/><text fill="#000" font-family="DejaVu Sans Mono" font-size="10.0pt" stroke-width="0.0" text-anchor="middle" x="225.7939578164162" y="-236">IO_PORT_80</text><rect fill="#fff" height="25.0" stroke="#000" width="132.0" x="82.60200270993533" y="245.98934908169997"/><text fill="#000" font-family="DejaVu Sans Mono" font-size="10.0pt" stroke-width="0.0" text-anchor="middle" x="148.60200270993533" y="263">ICH9_LPC_DEVICE</text><rect fill="#fff" height="25.0" stroke="#000" width="102.99999999999949" x="286.8640926880003" y="418.0558329600001"/><text fill="#000" font-family="DejaVu Sans Mono" font-size="10.0pt" stroke-width="0.0" text-anchor="middle" x="338.364092688" y="436">ICH9_AHCI</text><rect fill="#fff" height="25.0" stroke="#000" width="124.0" x="101.26586212491736" y="400.9310687130044"/><text fill="#000" font-family="DejaVu Sans Mono" font-size="10.0pt" stroke-width="0.0" text-anchor="middle" x="163.26586212491736" y="418">ich9-usb-ehci1</text><rect fill="#fff" height="25.0" stroke="#000" width="124.0" x="100.77231349457213" y="437.9310687130021"/><text fill="#000" font-family="DejaVu Sans Mono" font-size="10.0pt" stroke-width="0.0" text-anchor="middle" x="162.77231349457213" y="455">ich9-usb-uhci4</text><rect fill="#fff" height="25.0" stroke="#000" width="124.0" x="100.12739902719483" y="360.9310687129978"/><text fill="#000" font-family="DejaVu Sans Mono" font-size="10.0pt" stroke-width="0.0" text-anchor="middle" x="162.12739902719483" y="378">ich9-usb-uhci5</text><rect fill="#fff" height="25.0" stroke="#000" width="124.0" x="103.42613167431728" y="472.9310687129955"/><text fill="#000" font-family="DejaVu Sans Mono" font-size="10.0pt" stroke-width="0.0" text-anchor="middle" x="165.42613167431728" y="490">ich9-usb-uhci6</text><rect fill="#fff" height="25.0" stroke="#000" width="132.0" x="-71.676673411" y="326.42378499999995"/><text fill="#000" font-family="DejaVu Sans Mono" font-size="10.0pt" stroke-width="0.0" text-anchor="middle" x="-5.676673410999996" y="344">ICH9_SMB_DEVICE</text><rect fill="#fff" height="25.0" stroke="#000" width="84.0" x="48.99089656300001" y="-253.44276891700002"/><text fill="#000" font-family="DejaVu Sans Mono" font-size="10.0pt" stroke-width="0.0" text-anchor="middle" x="90.990896563" y="-236">isa-i8259</text><rect fill="#fff" height="25.0" stroke="#000" width="84.0" x="50.84664786783648" y="-215.6649417808129"/><text fill="#000" font-family="DejaVu Sans Mono" font-size="10.0pt" stroke-width="0.0" text-anchor="middle" x="92.84664786783648" y="-198">isa-i8259</text><rect fill="#fff" height="25.0" stroke="#000" width="108.0" x="187.5903042101359" y="-36.277456243979714"/><text fill="#000" font-family="DejaVu Sans Mono" font-size="10.0pt" stroke-width="0.0" text-anchor="middle" x="241.5903042101359" y="-19">MC146818_RTC</text><rect fill="#fff" height="25.0" stroke="#000" width="52.0" x="186.00069427202823" y="-141.76958744680667"/><text fill="#000" font-family="DejaVu Sans Mono" font-size="10.0pt" stroke-width="0.0" text-anchor="middle" x="212.00069427202823" y="-124">I8254</text><rect fill="#fff" height="25.0" stroke="#000" width="92.0" x="182.60853768591267" y="-178.74820768737519"/><text fill="#000" font-family="DejaVu Sans Mono" font-size="10.0pt" stroke-width="0.0" text-anchor="middle" x="228.60853768591267" y="-161">PC_SPEAKER</text><rect fill="#fff" height="25.0" stroke="#000" width="92.0" x="45.60200270993562" y="-141.66254171599996"/><text fill="#000" font-family="DejaVu Sans Mono" font-size="10.0pt" stroke-width="0.0" text-anchor="middle" x="91.60200270993562" y="-124">ISA_SERIAL</text><rect fill="#fff" height="25.0" stroke="#000" width="108.0" x="28.608537669798352" y="-179.24132883172604"/><text fill="#000" font-family="DejaVu Sans Mono" font-size="10.0pt" stroke-width="0.0" text-anchor="middle" x="82.60853766979835" y="-162">isa-parallel</text><rect fill="#fff" height="25.0" stroke="#000" width="52.0" x="188.0006942719865" y="-104.78315094919543"/><text fill="#000" font-family="DejaVu Sans Mono" font-size="10.0pt" stroke-width="0.0" text-anchor="middle" x="214.0006942719865" y="-87">i8042</text><rect fill="#fff" height="25.0" stroke="#000" width="60.0" x="81.11957749427171" y="-0.7505955062688372"/><text fill="#000" font-family="DejaVu Sans Mono" font-size="10.0pt" stroke-width="0.0" text-anchor="middle" x="111.11957749427171" y="17">VMPORT</text><rect fill="#fff" height="25.0" stroke="#000" width="68.0" x="74.6085376790071" y="-36.73344126356557"/><text fill="#000" font-family="DejaVu Sans Mono" font-size="10.0pt" stroke-width="0.0" text-anchor="middle" x="108.6085376790071" y="-19">vmmouse</text><rect fill="#fff" height="25.0" stroke="#000" width="60.0" x="189.0006942719412" y="-71.28614248454198"/><text fill="#000" font-family="DejaVu Sans Mono" font-size="10.0pt" stroke-width="0.0" text-anchor="middle" x="219.0006942719412" y="-54">port92</text><rect fill="#fff" height="25.0" stroke="#000" width="52.0" x="84.97151933764894" y="-104.7246924775331"/><text fill="#000" font-family="DejaVu Sans Mono" font-size="10.0pt" stroke-width="0.0" text-anchor="middle" x="110.97151933764894" y="-87">I8257</text><rect fill="#fff" height="25.0" stroke="#000" width="52.0" x="85.60853768682773" y="-71.22770774499037"/><text fill="#000" font-family="DejaVu Sans Mono" font-size="10.0pt" stroke-width="0.0" text-anchor="middle" x="111.60853768682773" y="-54">I8257</text><rect fill="#fff" height="25.0" stroke="#000" width="108.0" x="-6.668116731740341" y="84.16536065358491"/><text fill="#000" font-family="DejaVu Sans Mono" font-size="10.0pt" stroke-width="0.0" text-anchor="middle" x="47.33188326825966" y="102">smbus-eeprom</text><rect fill="#fff" height="25.0" stroke="#000" width="108.0" x="-186.18201886190081" y="195.1470181644802"/><text fill="#000" font-family="DejaVu Sans Mono" font-size="10.0pt" stroke-width="0.0" text-anchor="middle" x="-132.18201886190081" y="213">smbus-eeprom</text><rect fill="#fff" height="25.0" stroke="#000" width="108.0" x="-8.096689090624835" y="122.16536065358264"/><text fill="#000" font-family="DejaVu Sans Mono" font-size="10.0pt" stroke-width="0.0" text-anchor="middle" x="45.903310909375165" y="140">smbus-eeprom</text><rect fill="#fff" height="25.0" stroke="#000" width="108.0" x="-8.916573773340616" y="158.1653606535781"/><text fill="#000" font-family="DejaVu Sans Mono" font-size="10.0pt" stroke-width="0.0" text-anchor="middle" x="45.083426226659384" y="176">smbus-eeprom</text><rect fill="#fff" height="25.0" stroke="#000" width="108.0" x="-188.9363846168884" y="121.14701816448678"/><text fill="#000" font-family="DejaVu Sans Mono" font-size="10.0pt" stroke-width="0.0" text-anchor="middle" x="-134.9363846168884" y="139">smbus-eeprom</text><rect fill="#fff" height="25.0" stroke="#000" width="108.0" x="-185.72433815582363" y="158.14701816448246"/><text fill="#000" font-family="DejaVu Sans Mono" font-size="10.0pt" stroke-width="0.0" text-anchor="middle" x="-131.72433815582363" y="176">smbus-eeprom</text><rect fill="#fff" height="25.0" stroke="#000" width="108.0" x="-7.909681905080788" y="195.16536065357582"/><text fill="#000" font-family="DejaVu Sans Mono" font-size="10.0pt" stroke-width="0.0" text-anchor="middle" x="46.09031809491921" y="213">smbus-eeprom</text><rect fill="#fff" height="25.0" stroke="#000" width="108.0" x="-187.51584798245858" y="84.14701816448905"/><text fill="#000" font-family="DejaVu Sans Mono" font-size="10.0pt" stroke-width="0.0" text-anchor="middle" x="-133.51584798245858" y="102">smbus-eeprom</text><rect fill="#fff" height="25.0" stroke="#000" width="44.0" x="-211.861248852" y="-56.36202656399999"/><text fill="#000" font-family="DejaVu Sans Mono" font-size="10.0pt" stroke-width="0.0" text-anchor="middle" x="-189.861248852" y="-39">HPET</text><rect fill="#fff" height="25.0" stroke="#000" width="60.0" x="-211.28919911399998" y="-94.79851332749999"/><text fill="#000" font-family="DejaVu Sans Mono" font-size="10.0pt" stroke-width="0.0" text-anchor="middle" x="-181.28919911399998" y="-77">ioapic</text><rect fill="#fff" height="25.0" stroke="#000" width="92.0" x="181.60200270993482" y="-214.06930664673763"/><text fill="#000" font-family="DejaVu Sans Mono" font-size="10.0pt" stroke-width="0.0" text-anchor="middle" x="227.60200270993482" y="-197">IO_PORT_F0</text><rect fill="#fff" height="25.0" stroke="#000" width="76.0" x="-216.40988046700676" y="-19.810799149555862"/><text fill="#000" font-family="DejaVu Sans Mono" font-size="10.0pt" stroke-width="0.0" text-anchor="middle" x="-178.40988046700676" y="-2">A20_LINE</text></svg>