<?xml version="1.0" ?><!DOCTYPE svg  PUBLIC '-//W3C//DTD SVG 1.1//EN'  'http://www.w3.org/Graphics/SVG/1.1/DTD/svg11.dtd'><svg height="1424.000" viewBox="-263.000 -322.000 671.000 1424.000" width="671.000" xmlns="http://www.w3.org/2000/svg"><polygon fill="#808080" fill-rule="evenodd" points="-143.35972556940936,268.63797343600004 -140.35786921078648,278.49894998004453 -136.0705692322506,275.9261968060991" stroke-linejoin="round"/><path d="M-124.9654726611245,299.29061469887563 -143.35972556940936,268.63797343600004" fill="none" stroke="#808080"/><path d="M-104.75497405204872,329.97744895652414 -124.9654726611245,299.29061469887563" fill="none" stroke="#808080"/><path d="M-84.56295876124136,360.73038184053775 -104.75497405204872,329.97744895652414" fill="none" stroke="#808080"/><path d="M-58.42693748119571,392.17282430848405 -84.56295876124136,360.73038184053775" fill="none" stroke="#808080"/><path d="M-32.30834674106063,423.68305018299185 -58.42693748119571,392.17282430848405" fill="none" stroke="#808080"/><path d="M-5.738288270451054,455.23041255319333 -32.30834674106063,423.68305018299185" fill="none" stroke="#808080"/><polygon fill="#808080" fill-rule="evenodd" points="-3.4220630622359565,455.23041255319333 -7.172006692516544,445.62895835241113 -11.24916824226339,448.52322055498814" stroke-linejoin="round"/><path d="M-69.43100849856066,362.2432830413294 -3.4220630622359565,455.23041255319333" fill="none" stroke="#808080"/><path d="M-140.56279163664547,268.63797343600004 -69.43100849856066,362.2432830413294" fill="none" stroke="#808080"/><polygon fill="#808080" fill-rule="evenodd" points="-15.409880467006744,516.9534323062132 -5.231026616459622,518.5785274693351 -5.663788169172528,513.5972909322397" stroke-linejoin="round"/><path d="M16.295298748362338,514.1989390224462 -15.409880467006744,516.9534323062132" fill="none" stroke="#808080"/><path d="M50.000694271986504,516.0314376566452 16.295298748362338,514.1989390224462" fill="none" stroke="#808080"/><polygon fill="#808080" fill-rule="evenodd" points="-15.409880467006744,528.4433436817116 -6.012278353771959,532.678325915597 -5.124945786441738,527.757691717147" stroke-linejoin="round"/><path d="M44.2485499923006,539.2014830042859 -15.409880467006744,528.4433436817116" fill="none" stroke="#808080"/><path d="M122.00069427194121,539.8996008942877 44.2485499923006,539.2014830042859" fill="none" stroke="#808080"/><polygon fill="#808080" fill-rule="evenodd" points="108.17190307724266,-230.44276891700002 105.77546355608597,-220.4174470956599 110.77519612155858,-220.4691604764497" stroke-linejoin="round"/><path d="M108.4047329047859,-207.932407900133 108.17190307724266,-230.44276891700002" fill="none" stroke="#808080"/><path d="M112.87400331262933,-199.4849217472758 108.4047329047859,-207.932407900133" fill="none" stroke="#808080"/><path d="M114.82932137807818,-192.66494178081294 112.87400331262933,-199.4849217472758" fill="none" stroke="#808080"/><polygon fill="#808080" fill-rule="evenodd" points="100.03686320477357,-230.44276891700002 93.62311326470557,-222.3734559532913 98.17499582881179,-220.30455162428385" stroke-linejoin="round"/><path d="M60.43100705694894,-143.30427560529031 100.03686320477357,-230.44276891700002" fill="none" stroke="#808080"/><path d="M29.08805258483457,-60.87272231909563 60.43100705694894,-143.30427560529031" fill="none" stroke="#808080"/><polygon fill="#808080" fill-rule="evenodd" points="97.64014486795749,-230.44276891700002 90.39747802431879,-223.10834480926962 94.70105017426707,-220.56290442493736" stroke-linejoin="round"/><path d="M82.0,-204.0 97.64014486795749,-230.44276891700002" fill="none" stroke="#808080"/><path d="M52.586933693567154,-158.54448185688838 82.0,-204.0" fill="none" stroke="#808080"/><path d="M15.977227607787976,-86.05291035213013 52.586933693567154,-158.54448185688838" fill="none" stroke="#808080"/><polygon fill="#808080" fill-rule="evenodd" points="95.63821725288167,-230.44276891700002 87.82903281439923,-223.71472028416719 91.91390092849497,-220.8313450934499" stroke-linejoin="round"/><path d="M56.49685004546657,-174.99132320767217 95.63821725288167,-230.44276891700002" fill="none" stroke="#808080"/><path d="M20.908444195962335,-114.88204977466123 56.49685004546657,-174.99132320767217" fill="none" stroke="#808080"/><polygon fill="#808080" fill-rule="evenodd" points="90.27897698838125,-230.44276891700002 81.40838546413309,-225.19275882082528 84.92257745342098,-221.6360110560232" stroke-linejoin="round"/><path d="M39.05704482212832,-179.83369692268343 90.27897698838125,-230.44276891700002" fill="none" stroke="#808080"/><path d="M-3.2428613333879284,-128.38925472649237 39.05704482212832,-179.83369692268343" fill="none" stroke="#808080"/><polygon fill="#808080" fill-rule="evenodd" points="81.8047953426617,-230.44276891700002 72.10144964672281,-226.96497043159235 74.87963078055452,-222.8078428670808" stroke-linejoin="round"/><path d="M28.37231694066127,-194.73419343388247 81.8047953426617,-230.44276891700002" fill="none" stroke="#808080"/><path d="M-12.033246342846123,-154.9959267034478 28.37231694066127,-194.73419343388247" fill="none" stroke="#808080"/><polygon fill="#808080" fill-rule="evenodd" points="82.29079387306268,115.6290596157459 92.15069879030298,118.63443397229126 92.40500379135489,113.64090526340813" stroke-linejoin="round"/><path d="M140.48778028633342,118.59285246722511 82.29079387306268,115.6290596157459" fill="none" stroke="#808080"/><path d="M202.58440198308273,124.72847547027719 140.48778028633342,118.59285246722511" fill="none" stroke="#808080"/><path d="M261.6020027099348,141.73474378382565 202.58440198308273,124.72847547027719" fill="none" stroke="#808080"/><polygon fill="#808080" fill-rule="evenodd" points="-52.41021401763358,-221.31954167028982 -45.96716580232233,-213.27360296214803 -42.93884737676281,-217.25220667619354" stroke-linejoin="round"/><path d="M74.31723284493117,-124.86081143706531 -52.41021401763358,-221.31954167028982" fill="none" stroke="#808080"/><path d="M193.84131928328705,-19.0106509183 74.31723284493117,-124.86081143706531" fill="none" stroke="#808080"/><polygon fill="#808080" fill-rule="evenodd" points="-53.0148192925503,-220.59161630892334 -47.13792842713905,-212.12331342369032 -43.844243641783656,-215.88518005273477" stroke-linejoin="round"/><path d="M63.90150904124654,-118.22607022084873 -53.0148192925503,-220.59161630892334" fill="none" stroke="#808080"/><path d="M191.15630826050582,-19.0106509183 63.90150904124654,-118.22607022084873" fill="none" stroke="#808080"/><polygon fill="#808080" fill-rule="evenodd" points="-179.92499982092318,32.2014866725 -173.7420314303901,23.95400815590665 -178.35060583708497,22.014667562313832" stroke-linejoin="round"/><path d="M-126.79549561959203,-94.05342394587281 -179.92499982092318,32.2014866725" fill="none" stroke="#808080"/><path d="M-69.31079698770961,-216.4159219014705 -126.79549561959203,-94.05342394587281" fill="none" stroke="#808080"/><polygon fill="#808080" fill-rule="evenodd" points="-27.29958202229801,-165.35416512326938 -19.98204819014605,-158.0944338186472 -17.426590379988777,-162.39206518726252" stroke-linejoin="round"/><path d="M87.90833934303777,-96.84922433308462 -27.29958202229801,-165.35416512326938" fill="none" stroke="#808080"/><path d="M190.5301333695913,-19.0106509183 87.90833934303777,-96.84922433308462" fill="none" stroke="#808080"/><polygon fill="#808080" fill-rule="evenodd" points="-27.80987132745299,-164.59299721759228 -20.993177098610264,-156.86107120976848 -18.156587710086438,-160.9785656713208" stroke-linejoin="round"/><path d="M78.64226650858993,-91.25689260567403 -27.80987132745299,-164.59299721759228" fill="none" stroke="#808080"/><path d="M187.28563180550543,-19.0106509183 78.64226650858993,-91.25689260567403" fill="none" stroke="#808080"/><polygon fill="#808080" fill-rule="evenodd" points="-12.270257140163075,-139.3636887022129 -4.951450647222741,-132.105240416326 -2.396746335386594,-136.4033197407552" stroke-linejoin="round"/><path d="M86.67985847845999,-80.54944449066556 -12.270257140163075,-139.3636887022129" fill="none" stroke="#808080"/><path d="M185.50013749083615,-19.0106509183 86.67985847845999,-80.54944449066556" fill="none" stroke="#808080"/><polygon fill="#808080" fill-rule="evenodd" points="-1.6615446942785805,-112.20955609139591 6.3529396642148495,-105.72742369013595 8.46047439910266,-110.26154955310462" stroke-linejoin="round"/><path d="M95.83068007146257,-66.89359965679417 -1.6615446942785805,-112.20955609139591" fill="none" stroke="#808080"/><path d="M182.08005110116883,-19.0106509183 95.83068007146257,-66.89359965679417" fill="none" stroke="#808080"/><polygon fill="#808080" fill-rule="evenodd" points="24.317877037489605,-97.25606935225615 32.56593324478233,-91.07387161994929 34.504843212068764,-95.68262721541727" stroke-linejoin="round"/><path d="M106.3867434000062,-62.72958173580349 24.317877037489605,-97.25606935225615" fill="none" stroke="#808080"/><path d="M182.95352497815333,-19.0106509183 106.3867434000062,-62.72958173580349" fill="none" stroke="#808080"/><polygon fill="#808080" fill-rule="evenodd" points="115.53408542782206,-157.66494178081294 110.7139669845284,-148.55360498577457 115.56872764611042,-147.35723592952323" stroke-linejoin="round"/><path d="M83.86152027759933,-29.140451332613246 115.53408542782206,-157.66494178081294" fill="none" stroke="#808080"/><path d="M70.48711584224218,98.1172542216431 83.86152027759933,-29.140451332613246" fill="none" stroke="#808080"/><polygon fill="#808080" fill-rule="evenodd" points="-155.30608314854112,268.63797343600004 -158.62042586031245,278.3983593089524 -153.63738042459707,278.8097693059092" stroke-linejoin="round"/><path d="M-163.93717254050122,373.1787257706425 -155.30608314854112,268.63797343600004" fill="none" stroke="#808080"/><path d="M-169.48159341865326,477.7225437560203 -163.93717254050122,373.1787257706425" fill="none" stroke="#808080"/><polygon fill="#808080" fill-rule="evenodd" points="-171.12333054229995,67.20148667250001 -166.17418499023762,76.24338682150086 -162.50142557330338,72.85062419123615" stroke-linejoin="round"/><path d="M-22.041273068865088,228.5869386334491 -171.12333054229995,67.20148667250001" fill="none" stroke="#808080"/><path d="M137.95894926357312,384.61659083742165 -22.041273068865088,228.5869386334491" fill="none" stroke="#808080"/><polygon fill="#808080" fill-rule="evenodd" points="28.528581868489283,19.172335517093725 20.27832413493125,25.351594965431026 24.156829491037985,28.50709749318336" stroke-linejoin="round"/><path d="M-59.62052639669341,127.51856105032749 28.528581868489283,19.172335517093725" fill="none" stroke="#808080"/><path d="M-140.5201998117199,233.637973436 -59.62052639669341,127.51856105032749" fill="none" stroke="#808080"/><polygon fill="#808080" fill-rule="evenodd" points="-166.60878011793787,67.20148667250001 -160.59005203415234,75.56957559730544 -157.36021349115987,71.75275191966456" stroke-linejoin="round"/><path d="M-32.457062815024706,180.72215824341993 -166.60878011793787,67.20148667250001" fill="none" stroke="#808080"/><path d="M97.76344660772605,295.5005662457616 -32.457062815024706,180.72215824341993" fill="none" stroke="#808080"/><polygon fill="#808080" fill-rule="evenodd" points="114.4926794211988,324.80470140057236 119.70488050004192,315.91184134805235 114.90680505428625,314.5052596700697" stroke-linejoin="round"/><path d="M159.4210836659573,171.54671674308887 114.4926794211988,324.80470140057236" fill="none" stroke="#808080"/><path d="M208.12309073939826,15.989349081699999 159.4210836659573,171.54671674308887" fill="none" stroke="#808080"/><polygon fill="#808080" fill-rule="evenodd" points="153.50551091417103,380.8682732661155 157.14805098660162,371.22556089766147 152.18176986351375,370.6458611422181" stroke-linejoin="round"/><path d="M160.57299220483364,320.32124251094115 153.50551091417103,380.8682732661155" fill="none" stroke="#808080"/><path d="M170.0856984906177,260.37713559229013 160.57299220483364,320.32124251094115" fill="none" stroke="#808080"/><path d="M179.59531294997473,200.43325452908482 170.0856984906177,260.37713559229013" fill="none" stroke="#808080"/><path d="M188.70802179284664,139.00600612449577 179.59531294997473,200.43325452908482" fill="none" stroke="#808080"/><path d="M197.89657078597935,77.49773594227275 188.70802179284664,139.00600612449577" fill="none" stroke="#808080"/><path d="M210.1233206409766,15.989349081699999 197.89657078597935,77.49773594227275" fill="none" stroke="#808080"/><polygon fill="#808080" fill-rule="evenodd" points="140.95633025645625,349.4079089627042 145.39051302110516,340.10264039002504 140.48989454400333,339.11070362697603" stroke-linejoin="round"/><path d="M174.7830539498881,182.2885185669852 140.95633025645625,349.4079089627042" fill="none" stroke="#808080"/><path d="M209.9059489943324,15.989349081699999 174.7830539498881,182.2885185669852" fill="none" stroke="#808080"/><polygon fill="#808080" fill-rule="evenodd" points="114.9862520652274,291.5714577736116 120.45402266226226,282.833409667873 115.69873289520471,281.28834681112" stroke-linejoin="round"/><path d="M159.55751403441346,154.39304783349826 114.9862520652274,291.5714577736116" fill="none" stroke="#808080"/><path d="M207.53557478427507,15.989349081699999 159.55751403441346,154.39304783349826" fill="none" stroke="#808080"/><polygon fill="#808080" fill-rule="evenodd" points="116.31553593292762,261.88336435273504 122.10968151927207,253.35823227608984 117.41619047304556,251.63453224447426" stroke-linejoin="round"/><path d="M161.54376076293156,138.7306902314861 116.31553593292762,261.88336435273504" fill="none" stroke="#808080"/><path d="M207.1059208370478,15.989349081699999 161.54376076293156,138.7306902314861" fill="none" stroke="#808080"/><polygon fill="#808080" fill-rule="evenodd" points="110.0792105842401,233.14382017243994 116.26676406953536,224.8997810006134 111.65926875511164,222.9578780865717" stroke-linejoin="round"/><path d="M155.90905844746482,124.40470259674795 110.0792105842401,233.14382017243994" fill="none" stroke="#808080"/><path d="M205.58370711365941,15.989349081699999 155.90905844746482,124.40470259674795" fill="none" stroke="#808080"/><polygon fill="#808080" fill-rule="evenodd" points="120.0860886687006,205.02285527658822 126.53335708391657,196.9802978486205 121.99012201014165,194.89247240945625" stroke-linejoin="round"/><path d="M163.66862654199628,110.18460349757879 120.0860886687006,205.02285527658822" fill="none" stroke="#808080"/><path d="M205.77862572307288,15.989349081699999 163.66862654199628,110.18460349757879" fill="none" stroke="#808080"/><polygon fill="#808080" fill-rule="evenodd" points="97.47622068975598,221.14641984885228 87.2491149192174,219.85944371923028 87.84666800769396,224.82360833238045" stroke-linejoin="round"/><path d="M-9.66800956420144,234.04372900155306 97.47622068975598,221.14641984885228" fill="none" stroke="#808080"/><path d="M-126.86124885199999,247.937097985738 -9.66800956420144,234.04372900155306" fill="none" stroke="#808080"/><polygon fill="#808080" fill-rule="evenodd" points="-163.26957456652954,67.20148667250001 -156.65935203310815,75.11065591197442 -153.71506327728744,71.06947245630855" stroke-linejoin="round"/><path d="M-27.02445865175749,166.46571637752285 -163.26957456652954,67.20148667250001" fill="none" stroke="#808080"/><path d="M97.90969236392273,266.1365040340833 -27.02445865175749,166.46571637752285" fill="none" stroke="#808080"/><polygon fill="#808080" fill-rule="evenodd" points="94.21326111929896,303.2979390809177 84.96829947904821,298.7393554993331 83.91072622186145,303.6262296337552" stroke-linejoin="round"/><path d="M-16.382645210431317,279.36376977936106 94.21326111929896,303.2979390809177" fill="none" stroke="#808080"/><path d="M-126.86124885199999,256.68135605034246 -16.382645210431317,279.36376977936106" fill="none" stroke="#808080"/><polygon fill="#808080" fill-rule="evenodd" points="94.64951175619142,334.86949340022466 85.97523068323478,329.30111411471023 84.37532055745818,334.03823218263267" stroke-linejoin="round"/><path d="M-16.550210782285248,297.3129960695843 94.64951175619142,334.86949340022466" fill="none" stroke="#808080"/><path d="M-126.86124885199999,260.2175465616055 -16.550210782285248,297.3129960695843" fill="none" stroke="#808080"/><polygon fill="#808080" fill-rule="evenodd" points="60.99089656300001,-246.5716355294057 50.92224757168575,-248.77896592826005 51.06805079473245,-243.78109223836458" stroke-linejoin="round"/><path d="M24.175287848271694,-245.49761190614248 60.99089656300001,-246.5716355294057" fill="none" stroke="#808080"/><path d="M-12.640320866454331,-239.2676090113322 24.175287848271694,-245.49761190614248" fill="none" stroke="#808080"/><path d="M-49.248837310752194,-230.22636877912524 -12.640320866454331,-239.2676090113322" fill="none" stroke="#808080"/><polygon fill="#808080" fill-rule="evenodd" points="60.99089656300001,-236.19224158138795 50.68313249953057,-236.1921327325925 51.89586184760718,-231.34143303787695" stroke-linejoin="round"/><path d="M11.607755320396876,-223.84590219650286 60.99089656300001,-236.19224158138795" fill="none" stroke="#808080"/><path d="M-37.10878935745768,-203.48083129053185 11.607755320396876,-223.84590219650286" fill="none" stroke="#808080"/><polygon fill="#808080" fill-rule="evenodd" points="109.26906779246845,178.38200479093803 116.32697919850017,170.86962257325186 111.96139798946766,168.43206217249414" stroke-linejoin="round"/><path d="M154.39747502405712,97.55868384161995 109.26906779246845,178.38200479093803" fill="none" stroke="#808080"/><path d="M203.14388025444842,15.989349081699999 154.39747502405712,97.55868384161995" fill="none" stroke="#808080"/><polygon fill="#808080" fill-rule="evenodd" points="89.52145757426483,158.12227446016675 97.25293114319186,151.30506708082274 93.1352484271562,148.46875097536812" stroke-linejoin="round"/><path d="M136.2481117896404,90.28585239465492 89.52145757426483,158.12227446016675" fill="none" stroke="#808080"/><path d="M198.8553289015647,15.989349081699999 136.2481117896404,90.28585239465492" fill="none" stroke="#808080"/><polygon fill="#808080" fill-rule="evenodd" points="93.96185107428545,129.67426316228125 102.46838340671918,123.85284514969536 98.72812406756891,120.53464381826606" stroke-linejoin="round"/><path d="M147.81128633292738,68.97545889552921 93.96185107428545,129.67426316228125" fill="none" stroke="#808080"/><path d="M197.2677555846705,15.989349081699999 147.81128633292738,68.97545889552921" fill="none" stroke="#808080"/><polygon fill="#808080" fill-rule="evenodd" points="75.20882512730232,52.01474490220734 85.08209704421978,49.05357931166549 82.52704595256273,44.75570612612103" stroke-linejoin="round"/><path d="M113.4568316228422,29.276612218621736 75.20882512730232,52.01474490220734" fill="none" stroke="#808080"/><path d="M156.6777971957924,15.989349081699999 113.4568316228422,29.276612218621736" fill="none" stroke="#808080"/><polygon fill="#808080" fill-rule="evenodd" points="74.70735001743,23.831094908555656 84.89081098471956,22.235124129471597 82.94171168076358,17.630668471815813" stroke-linejoin="round"/><path d="M114.28977153958112,7.075570265932554 74.70735001743,23.831094908555656" fill="none" stroke="#808080"/><path d="M142.60200270993533,4.627784367025562 114.28977153958112,7.075570265932554" fill="none" stroke="#808080"/><polygon fill="#808080" fill-rule="evenodd" points="53.58767040969545,-20.411965296592935 63.549048166363235,-17.76225716380467 63.62404284571444,-22.76169471197636" stroke-linejoin="round"/><path d="M98.51408777073378,-19.73804103372823 53.58767040969545,-20.411965296592935" fill="none" stroke="#808080"/><path d="M142.60200270993533,-12.755486650001917 98.51408777073378,-19.73804103372823" fill="none" stroke="#808080"/><polygon fill="#808080" fill-rule="evenodd" points="21.080472048707726,-68.83308638380738 29.97182744817911,-63.61831897190002 31.379793830315354,-68.41598826716977" stroke-linejoin="round"/><path d="M104.30367755036937,-44.40966985622707 21.080472048707726,-68.83308638380738" fill="none" stroke="#808080"/><path d="M169.01541920181305,-19.0106509183 104.30367755036937,-44.40966985622707" fill="none" stroke="#808080"/><polygon fill="#808080" fill-rule="evenodd" points="89.92655491348549,158.53522278204906 98.03818567065967,152.17507762181367 94.09086668264605,149.10609199022997" stroke-linejoin="round"/><path d="M146.70576261517326,85.5059969757406 89.92655491348549,158.53522278204906" fill="none" stroke="#808080"/><path d="M200.14843686947836,15.989349081699999 146.70576261517326,85.5059969757406" fill="none" stroke="#808080"/><polygon fill="#808080" fill-rule="evenodd" points="-152.28919911399998,65.21763011177838 -144.16046371470185,71.55589965544699 -142.13407044701052,66.98493363887509" stroke-linejoin="round"/><path d="M-42.941001478104944,113.69369637878144 -152.28919911399998,65.21763011177838" fill="none" stroke="#808080"/><path d="M65.10615452515977,163.22238254289914 -42.941001478104944,113.69369637878144" fill="none" stroke="#808080"/><polygon fill="#808080" fill-rule="evenodd" points="-152.28919911399998,65.98860053451688 -144.27754010468738,72.47422463081632 -142.16802982517146,67.94101755628104" stroke-linejoin="round"/><path d="M-30.300869000614995,122.75539546005982 -152.28919911399998,65.98860053451688" fill="none" stroke="#808080"/><path d="M86.51910335038514,183.75592616338994 -30.300869000614995,122.75539546005982" fill="none" stroke="#808080"/><polygon fill="#808080" fill-rule="evenodd" points="-155.09731690140595,67.20148667250001 -147.50559270263878,74.17398433760201 -145.11756135421044,69.78111440111132" stroke-linejoin="round"/><path d="M-24.49536529150418,138.19870696796755 -155.09731690140595,67.20148667250001" fill="none" stroke="#808080"/><path d="M98.92817421418648,210.48498015200133 -24.49536529150418,138.19870696796755" fill="none" stroke="#808080"/><polygon fill="#808080" fill-rule="evenodd" points="69.58176029312058,147.08944523645167 59.46318279694763,149.05525027610906 61.578688403394985,153.5856626225837" stroke-linejoin="round"/><path d="M-25.097831187783953,191.30069826949162 69.58176029312058,147.08944523645167" fill="none" stroke="#808080"/><path d="M-126.86124885199999,238.59088157712407 -25.097831187783953,191.30069826949162" fill="none" stroke="#808080"/><polygon fill="#808080" fill-rule="evenodd" points="65.56027257664334,175.4558483399578 55.28853777066216,176.31693142282188 56.90219272800775,181.0493850864761" stroke-linejoin="round"/><path d="M-33.08042966751471,209.0899987162829 65.56027257664334,175.4558483399578" fill="none" stroke="#808080"/><path d="M-126.86124885199999,241.7383409024744 -33.08042966751471,209.0899987162829" fill="none" stroke="#808080"/><polygon fill="#808080" fill-rule="evenodd" points="85.88198071721344,195.12932123815227 75.57910753807866,194.81182438042742 76.64179997904753,199.69758785975262" stroke-linejoin="round"/><path d="M-18.53171111905732,217.84013020743643 85.88198071721344,195.12932123815227" fill="none" stroke="#808080"/><path d="M-126.86124885199999,244.49462134722415 -18.53171111905732,217.84013020743643" fill="none" stroke="#808080"/><polygon fill="#808080" fill-rule="evenodd" points="-168.25613623046894,67.20148667250001 -162.58691448716766,75.81019881923137 -159.20272309380013,72.12954009923885" stroke-linejoin="round"/><path d="M-17.01835583907796,206.25746379216 -168.25613623046894,67.20148667250001" fill="none" stroke="#808080"/><path d="M126.4532709519865,353.11763332811313 -17.01835583907796,206.25746379216" fill="none" stroke="#808080"/><polygon fill="#808080" fill-rule="evenodd" points="134.9532854062611,389.09337596790533 127.01205547925386,382.52170439619664 124.85376649574474,387.0318916055775" stroke-linejoin="round"/><path d="M4.409507622405883,326.62341976064766 134.9532854062611,389.09337596790533" fill="none" stroke="#808080"/><path d="M-126.86124885199999,264.01531790673977 4.409507622405883,326.62341976064766" fill="none" stroke="#808080"/><polygon fill="#808080" fill-rule="evenodd" points="122.76554043124021,358.9087586891804 114.418008207534,352.8615522453597 112.55432661323087,357.50123875578856" stroke-linejoin="round"/><path d="M-1.6556329209804197,308.930931481045 122.76554043124021,358.9087586891804" fill="none" stroke="#808080"/><path d="M-126.86124885199999,261.3899595908565 -1.6556329209804197,308.930931481045" fill="none" stroke="#808080"/><polygon fill="#808080" fill-rule="evenodd" points="94.74044034709047,275.00347525142763 85.08396893833358,271.39756899476197 84.52312733622702,276.36601509966704" stroke-linejoin="round"/><path d="M-15.07166978720409,262.60780898514383 94.74044034709047,275.00347525142763" fill="none" stroke="#808080"/><path d="M-126.86124885199999,253.3693049373536 -15.07166978720409,262.60780898514383" fill="none" stroke="#808080"/><polygon fill="#808080" fill-rule="evenodd" points="87.76572508590613,247.64290930842176 77.77563822326933,245.10358568253798 77.75596673610481,250.10354698564748" stroke-linejoin="round"/><path d="M-21.34225439247424,247.21364274259432 87.76572508590613,247.64290930842176" fill="none" stroke="#808080"/><path d="M-126.86124885199999,250.3384131227476 -21.34225439247424,247.21364274259432" fill="none" stroke="#808080"/><polygon fill="#808080" fill-rule="evenodd" points="-160.546543701595,67.20148667250001 -153.54782777761824,74.76904740337453 -150.81000107179221,70.58523276492964" stroke-linejoin="round"/><path d="M-32.92614784297805,150.71439491159066 -160.546543701595,67.20148667250001" fill="none" stroke="#808080"/><path d="M90.29528462491334,237.76215270142495 -32.92614784297805,150.71439491159066" fill="none" stroke="#808080"/><polygon fill="#808080" fill-rule="evenodd" points="-169.8319772211278,67.20148667250001 -164.5394966484889,76.04680460846137 -160.99963886364108,72.51559987592998" stroke-linejoin="round"/><path d="M-40.295253099397115,197.05563448830256 -169.8319772211278,67.20148667250001" fill="none" stroke="#808080"/><path d="M98.22056707462878,328.50771223634996 -40.295253099397115,197.05563448830256" fill="none" stroke="#808080"/><polygon fill="#808080" fill-rule="evenodd" points="55.495018723232626,121.74772065290169 45.56065526791262,124.49697923251955 48.02317265306455,128.84853161389157" stroke-linejoin="round"/><path d="M-44.62654542516858,178.4059131176115 55.495018723232626,121.74772065290169" fill="none" stroke="#808080"/><path d="M-127.57837852492021,233.637973436 -44.62654542516858,178.4059131176115" fill="none" stroke="#808080"/><polygon fill="#808080" fill-rule="evenodd" points="61.49412056758692,93.13531308195047 51.836222061446584,96.73739531936431 54.66754293859902,100.85851435314638" stroke-linejoin="round"/><path d="M-40.8942704192773,163.47892281581227 61.49412056758692,93.13531308195047" fill="none" stroke="#808080"/><path d="M-131.30884714805813,233.637973436 -40.8942704192773,163.47892281581227" fill="none" stroke="#808080"/><polygon fill="#808080" fill-rule="evenodd" points="50.30513376758512,66.6523972152944 41.02488570039614,71.13870926545712 44.22788526131848,74.97808340882102" stroke-linejoin="round"/><path d="M-49.17952912654356,149.64752081354146 50.30513376758512,66.6523972152944" fill="none" stroke="#808080"/><path d="M-135.81097862598955,233.637973436 -49.17952912654356,149.64752081354146" fill="none" stroke="#808080"/><polygon fill="#808080" fill-rule="evenodd" points="50.53163852260452,37.61483042183185 41.75429137828081,43.019289424177266 45.330195278716744,46.51398702123014" stroke-linejoin="round"/><path d="M-43.990920107172165,134.33381016086435 50.53163852260452,37.61483042183185" fill="none" stroke="#808080"/><path d="M-137.4000997018157,233.637973436 -43.990920107172165,134.33381016086435" fill="none" stroke="#808080"/><polygon fill="#808080" fill-rule="evenodd" points="14.992574513963644,-34.40492333922588 7.661806972051357,-27.15855547342958 11.934305678533415,-24.561296379093953" stroke-linejoin="round"/><path d="M-65.88318646200374,98.63593689268762 14.992574513963644,-34.40492333922588" fill="none" stroke="#808080"/><path d="M-143.76554044886882,233.637973436 -65.88318646200374,98.63593689268762" fill="none" stroke="#808080"/><polygon fill="#808080" fill-rule="evenodd" points="-152.28919911399998,60.8666468958895 -143.52199711844008,66.28754803583391 -142.00242034617918,61.52405284498873" stroke-linejoin="round"/><path d="M-40.85182469696846,96.4156794741753 -152.28919911399998,60.8666468958895" fill="none" stroke="#808080"/><path d="M67.8013842090746,134.84793022696505 -40.85182469696846,96.4156794741753" fill="none" stroke="#808080"/><polygon fill="#808080" fill-rule="evenodd" points="93.55446657282437,129.18303921384182 101.63548919382605,122.78404918424658 97.67349122448691,119.73403736608054" stroke-linejoin="round"/><path d="M136.63359199259105,73.22279459529821 93.55446657282437,129.18303921384182" fill="none" stroke="#808080"/><path d="M195.57865080508518,15.989349081699999 136.63359199259105,73.22279459529821" fill="none" stroke="#808080"/><polygon fill="#808080" fill-rule="evenodd" points="116.98976608003626,-157.66494178081294 112.91125244675766,-148.19838345462276 117.84592855711523,-147.39279566557283" stroke-linejoin="round"/><path d="M91.57999828948444,-2.015891745372084 116.98976608003626,-157.66494178081294" fill="none" stroke="#808080"/><path d="M81.10173596630078,153.97654314311742 91.57999828948444,-2.015891745372084" fill="none" stroke="#808080"/><polygon fill="#808080" fill-rule="evenodd" points="31.141267662612943,-10.4136667453004 23.217134637292755,-3.8213897640874634 27.2516335726071,-0.8679479852559562" stroke-linejoin="round"/><path d="M-57.90170410433298,111.2219711622459 31.141267662612943,-10.4136667453004" fill="none" stroke="#808080"/><path d="M-141.85910466695861,233.637973436 -57.90170410433298,111.2219711622459" fill="none" stroke="#808080"/><polygon fill="#808080" fill-rule="evenodd" points="-28.67102143377275,-132.84213376468853 -34.13602395536921,-124.10235416569724 -29.380245023891376,-122.55879763776848" stroke-linejoin="round"/><path d="M-88.03183561565685,50.05166010264077 -28.67102143377275,-132.84213376468853" fill="none" stroke="#808080"/><path d="M-148.13229240270547,233.637973436 -88.03183561565685,50.05166010264077" fill="none" stroke="#808080"/><polygon fill="#808080" fill-rule="evenodd" points="-66.39011458785565,-215.68894098247424 -70.7648895851997,-206.35559518781872 -65.85804744685076,-205.39491822373395" stroke-linejoin="round"/><path d="M-110.03652396151261,7.24347928880643 -66.39011458785565,-215.68894098247424" fill="none" stroke="#808080"/><path d="M-150.71672241131424,233.637973436 -110.03652396151261,7.24347928880643" fill="none" stroke="#808080"/><polygon fill="#808080" fill-rule="evenodd" points="-54.491314359963766,-186.10221630101734 -59.19587187829299,-176.9306767052498 -54.32637588989306,-175.79577194318514" stroke-linejoin="round"/><path d="M-103.20119852905891,22.895572311069998 -54.491314359963766,-186.10221630101734" fill="none" stroke="#808080"/><path d="M-149.97699738828442,233.637973436 -103.20119852905891,22.895572311069998" fill="none" stroke="#808080"/><polygon fill="#808080" fill-rule="evenodd" points="-19.455469423717208,-104.7503894356094 -25.402288353478408,-96.3310459566537 -20.740618606939112,-94.52305392840793" stroke-linejoin="round"/><path d="M-85.75010881399652,66.18162241803257 -19.455469423717208,-104.7503894356094" fill="none" stroke="#808080"/><path d="M-147.41678266251904,233.637973436 -85.75010881399652,66.18162241803257" fill="none" stroke="#808080"/><polygon fill="#808080" fill-rule="evenodd" points="-152.28919911399998,58.20645180551293 -143.16229703832872,62.99703198969808 -141.98165954879116,58.138421579478056" stroke-linejoin="round"/><path d="M-51.23061568413878,82.7635869044457 -152.28919911399998,58.20645180551293" fill="none" stroke="#808080"/><path d="M52.80348200517035,110.10712842258314 -51.23061568413878,82.7635869044457" fill="none" stroke="#808080"/><polygon fill="#808080" fill-rule="evenodd" points="-152.28919911399998,53.79777160051254 -142.64759965351936,57.443256457655664 -142.06638318668502,52.47715261070677" stroke-linejoin="round"/><path d="M-45.77617378421051,66.2637058946678 -152.28919911399998,53.79777160051254" fill="none" stroke="#808080"/><path d="M57.8441691719713,82.32336192806375 -45.77617378421051,66.2637058946678" fill="none" stroke="#808080"/><polygon fill="#808080" fill-rule="evenodd" points="-152.28919911399998,50.135727721863105 -142.32098351023075,52.759594653849476 -142.25895384856295,47.75997943654791" stroke-linejoin="round"/><path d="M-54.35180388501897,51.35082592975231 -152.28919911399998,50.135727721863105" fill="none" stroke="#808080"/><path d="M45.72633250942765,56.62896639035072 -54.35180388501897,51.35082592975231" fill="none" stroke="#808080"/><polygon fill="#808080" fill-rule="evenodd" points="-152.28919911399998,45.638542131283984 -142.06762883709177,46.96876807984552 -142.644177835052,42.00212019088147" stroke-linejoin="round"/><path d="M-52.21429749866556,34.02143426754819 -152.28919911399998,45.638542131283984" fill="none" stroke="#808080"/><path d="M45.076767257648676,28.484627895497145 -52.21429749866556,34.02143426754819" fill="none" stroke="#808080"/><polygon fill="#808080" fill-rule="evenodd" points="-152.28919911399998,42.320320667910735 -141.98854101020865,42.7029988993242 -143.0202992664601,37.8106094114914" stroke-linejoin="round"/><path d="M-66.76624762601463,24.284346321189183 -152.28919911399998,42.320320667910735" fill="none" stroke="#808080"/><path d="M22.408368678302494,10.903425901569472 -66.76624762601463,24.284346321189183" fill="none" stroke="#808080"/><polygon fill="#808080" fill-rule="evenodd" points="-43.18399166314011,-158.66244326428296 -48.27577568413775,-149.70009226225716 -43.45916532777294,-148.35835284084953" stroke-linejoin="round"/><path d="M-97.90863443360954,37.78947348724155 -43.18399166314011,-158.66244326428296" fill="none" stroke="#808080"/><path d="M-149.27171223675776,233.637973436 -97.90863443360954,37.78947348724155" fill="none" stroke="#808080"/><polygon fill="#808080" fill-rule="evenodd" points="-152.28919911399998,37.731039398834945 -142.01826794772145,36.86042296344658 -143.63631464276048,32.12946905406709" stroke-linejoin="round"/><path d="M-62.43167471108056,6.998617741485844 -152.28919911399998,37.731039398834945" fill="none" stroke="#808080"/><path d="M25.139077730950227,-17.219443521699183 -62.43167471108056,6.998617741485844" fill="none" stroke="#808080"/><polygon fill="#808080" fill-rule="evenodd" points="-152.28919911399998,32.68620854478543 -142.2026069864894,30.562377277184066 -144.3887148921266,26.065608189838063" stroke-linejoin="round"/><path d="M-75.70514546279743,-4.545190684443874 -152.28919911399998,32.68620854478543" fill="none" stroke="#808080"/><path d="M8.847519275182105,-40.032776350942605 -75.70514546279743,-4.545190684443874" fill="none" stroke="#808080"/><polygon fill="#808080" fill-rule="evenodd" points="-39.7407481131865,-192.06251493204797 -32.99576985474978,-184.26794834414738 -30.121265373200888,-188.35906359375298" stroke-linejoin="round"/><path d="M78.664223157763,-108.8686668514237 -39.7407481131865,-192.06251493204797" fill="none" stroke="#808080"/><path d="M191.6063359528857,-19.0106509183 78.664223157763,-108.8686668514237" fill="none" stroke="#808080"/><polygon fill="#808080" fill-rule="evenodd" points="113.09971033409823,-157.66494178081294 107.16976988076262,-149.23370188267853 111.83505223910065,-147.43505224559522" stroke-linejoin="round"/><path d="M80.1586113531886,-72.22332782140273 113.09971033409823,-157.66494178081294" fill="none" stroke="#808080"/><path d="M64.72614051679011,11.67262686800412 80.1586113531886,-72.22332782140273" fill="none" stroke="#808080"/><polygon fill="#808080" fill-rule="evenodd" points="107.94478990022833,-157.66494178081294 100.25387518958317,-150.80201012491094 104.38830358184825,-147.99015986765463" stroke-linejoin="round"/><path d="M67.93832592782019,-98.84109079699549 107.94478990022833,-157.66494178081294" fill="none" stroke="#808080"/><path d="M46.54217751711489,-36.15875340500883 67.93832592782019,-98.84109079699549" fill="none" stroke="#808080"/><polygon fill="#808080" fill-rule="evenodd" points="74.84465820318866,25.838737969577103 85.1346592804241,25.23385960949689 83.63942227835867,20.462668321395526" stroke-linejoin="round"/><path d="M106.90938498060986,15.790017840018466 74.84465820318866,25.838737969577103" fill="none" stroke="#808080"/><path d="M142.60200270993533,10.002305722775908 106.90938498060986,15.790017840018466" fill="none" stroke="#808080"/><polygon fill="#808080" fill-rule="evenodd" points="86.22983165873943,76.58517247055391 95.44465566608285,71.9659714017881 92.18681704462323,68.17301905348128" stroke-linejoin="round"/><path d="M128.00648658367882,40.70241218472669 86.22983165873943,76.58517247055391" fill="none" stroke="#808080"/><path d="M178.1172161983854,15.989349081699999 128.00648658367882,40.70241218472669" fill="none" stroke="#808080"/><path d="M-88.10200100487434,-16.45236329002503 -161.0507267062265,32.2014866725" fill="none" stroke="#808080"/><path d="M-83.31389114118696,-32.772358012366695 -165.22683623426747,32.2014866725" fill="none" stroke="#808080"/><path d="M-100.53976020019445,-36.208760300889175 -169.6182549079865,32.2014866725" fill="none" stroke="#808080"/><path d="M-103.85760642878577,-52.09616689913972 -172.94650239394502,32.2014866725" fill="none" stroke="#808080"/><path d="M-114.23530481709682,-63.86479596924761 -176.03195690744877,32.2014866725" fill="none" stroke="#808080"/><path d="M-119.74517197391265,-78.58162293167851 -178.07504396451313,32.2014866725" fill="none" stroke="#808080"/><path d="M-75.771093120652,86.1377946190779 1.1105226516896423,-60.23750869567411" fill="none" stroke="#808080"/><path d="M-68.89529314329154,70.48652697209837 5.506823120251431,-89.75706797466269" fill="none" stroke="#808080"/><path d="M90.81240880329918,-14.901152185000143 116.6762549493186,-157.66494178081294" fill="none" stroke="#808080"/><path d="M87.36167004715074,-43.843011001166204 115.51768995131071,-157.66494178081294" fill="none" stroke="#808080"/><path d="M80.0261970206988,-55.79550055093384 114.00882302217171,-157.66494178081294" fill="none" stroke="#808080"/><path d="M68.3738913288527,-80.89000844329244 110.29189977581404,-157.66494178081294" fill="none" stroke="#808080"/><path d="M124.69205866455806,62.39694632706599 80.40452138593633,105.08950472356584" fill="none" stroke="#808080"/><path d="M134.96415345060208,56.37953517636346 80.41688247164073,105.11006808485389" fill="none" stroke="#808080"/><path d="M119.22749956255703,46.75221171118719 86.38587446287521,76.90685463981123" fill="none" stroke="#808080"/><path d="M103.4336786739167,34.56753186732622 75.37409046221468,52.70683075137309" fill="none" stroke="#808080"/><path d="M93.12187152191369,9.619795845400361 51.51561933259268,9.532665539731905" fill="none" stroke="#808080"/><path d="M102.48853709792981,-2.027016564561192 51.79193319379264,6.916274649384251" fill="none" stroke="#808080"/><path d="M107.57843307897505,-16.892128106423122 53.54849456949563,-20.2172644704395" fill="none" stroke="#808080"/><path d="M96.1753940258096,-31.766427866415043 35.985526785488055,-43.423044170739125" fill="none" stroke="#808080"/><path d="M108.52202612216001,-32.46243792156624 36.16240314698576,-44.04334656796354" fill="none" stroke="#808080"/><path d="M96.63181151353861,-47.9784410003781 21.114029012372953,-68.9248823518058" fill="none" stroke="#808080"/><path d="M112.26753227578422,-56.42291990377559 24.151296114229126,-96.92227926453606" fill="none" stroke="#808080"/><path d="M88.39860006321014,-62.918172485619706 -2.0427624172044627,-111.51453476840481" fill="none" stroke="#808080"/><path d="M96.38737809785479,-82.254273726763 -11.931670288520806,-139.92669810046382" fill="none" stroke="#808080"/><path d="M37.9552714229372,-135.05042697914 -39.934952700157105,-191.80095731801265" fill="none" stroke="#808080"/><path d="M115.68978917055601,-78.09055430311837 37.9552714229372,-135.05042697914" fill="none" stroke="#808080"/><polygon fill="#808080" fill-rule="evenodd" points="-161.0507267062265,32.2014866725 -151.34417636214351,28.732642424370344 -154.11852075468488,24.572953350464186" stroke-linejoin="round"/><path d="M-4.738292506010142,-64.70178443082037 -88.10200100487434,-16.45236329002503" fill="none" stroke="#808080"/><polygon fill="#808080" fill-rule="evenodd" points="-165.22683623426747,32.2014866725 -155.83864071462884,27.945692400564745 -158.9458610213794,24.02839971743306" stroke-linejoin="round"/><path d="M0.009505385721158888,-93.38198271142916 -83.31389114118696,-32.772358012366695" fill="none" stroke="#808080"/><polygon fill="#808080" fill-rule="evenodd" points="-169.6182549079865,32.2014866725 -160.75374878171468,26.94120805466148 -164.27205708731773,23.388532067926327" stroke-linejoin="round"/><path d="M-24.464687449812878,-107.4368442447451 -100.53976020019445,-36.208760300889175" fill="none" stroke="#808080"/><polygon fill="#808080" fill-rule="evenodd" points="-172.94650239394502,32.2014866725 -164.67407164763867,26.051942823760868 -168.5412017819049,22.88250998417425" stroke-linejoin="round"/><path d="M-33.16696578158404,-134.82315402926423 -103.85760642878577,-52.09616689913972" fill="none" stroke="#808080"/><polygon fill="#808080" fill-rule="evenodd" points="-176.03195690744877,32.2014866725 -168.51936819961335,25.143795059309205 -172.72446880674258,22.43877585717381" stroke-linejoin="round"/><path d="M-47.111391570435,-160.11088448925315 -114.23530481709682,-63.86479596924761" fill="none" stroke="#808080"/><polygon fill="#808080" fill-rule="evenodd" points="-178.07504396451313,32.2014866725 -171.20403640907534,24.517786055406898 -175.62824935305304,22.18833551368243" stroke-linejoin="round"/><path d="M-57.89156501197013,-187.1303907655542 -119.74517197391265,-78.58162293167851" fill="none" stroke="#808080"/><polygon fill="#808080" fill-rule="evenodd" points="1.1105226516896423,-60.23750869567411 -5.752735418670212,-52.546885271032885 -1.3261763870320058,-50.22189599376251" stroke-linejoin="round"/><path d="M-145.5789685835956,233.637973436 -75.771093120652,86.1377946190779" fill="none" stroke="#808080"/><polygon fill="#808080" fill-rule="evenodd" points="5.506823120251431,-89.75706797466269 -0.9719483663438497,-81.73986646637566 3.563060753625966,-79.63423300307046" stroke-linejoin="round"/><path d="M-145.6304582659998,233.637973436 -68.89529314329154,70.48652697209837" fill="none" stroke="#808080"/><polygon fill="#808080" fill-rule="evenodd" points="116.6762549493186,-157.66494178081294 112.43366255520259,-148.27077285656057 117.35357644827617,-147.37945513277097" stroke-linejoin="round"/><path d="M84.13730043286418,124.12563316924201 90.81240880329918,-14.901152185000143" fill="none" stroke="#808080"/><polygon fill="#808080" fill-rule="evenodd" points="115.51768995131071,-157.66494178081294 110.68952759078296,-148.5578649599893 115.54322990182088,-147.3572093574849" stroke-linejoin="round"/><path d="M75.88965395960953,68.61117129965419 87.36167004715074,-43.843011001166204" fill="none" stroke="#808080"/><polygon fill="#808080" fill-rule="evenodd" points="114.00882302217171,-157.66494178081294 108.47282865134586,-148.96995665568565 113.21587981267938,-147.38772226060613" stroke-linejoin="round"/><path d="M64.86336141160993,41.431450124238324 80.0261970206988,-55.79550055093384" fill="none" stroke="#808080"/><polygon fill="#808080" fill-rule="evenodd" points="110.29189977581404,-157.66494178081294 103.30553766311127,-150.08597454047 107.6940354365318,-147.68991792747377" stroke-linejoin="round"/><path d="M43.882510560525866,-6.564359693262471 68.3738913288527,-80.89000844329244" fill="none" stroke="#808080"/><polygon fill="#808080" fill-rule="evenodd" points="80.40452138593633,105.08950472356584 89.3391022676378,99.94914827013437 85.86898383288164,96.34938743797267" stroke-linejoin="round"/><path d="M189.25553862961158,15.989349081699999 124.69205866455806,62.39694632706599" fill="none" stroke="#808080"/><polygon fill="#808080" fill-rule="evenodd" points="80.41688247164073,105.11006808485389 89.5399478071734,100.31218533476482 86.20881882648058,96.5834349121717" stroke-linejoin="round"/><path d="M189.83005698172508,15.989349081699999 134.96415345060208,56.37953517636346" fill="none" stroke="#808080"/><polygon fill="#808080" fill-rule="evenodd" points="86.38587446287521,76.90685463981123 95.44267642420355,71.98503198623268 92.06101847412798,68.3020454930874" stroke-linejoin="round"/><path d="M179.3820307667446,15.989349081699999 119.22749956255703,46.75221171118719" fill="none" stroke="#808080"/><polygon fill="#808080" fill-rule="evenodd" points="75.37409046221468,52.70683075137309 85.12933542173211,49.37738698704701 82.41486247857661,45.17838274307717" stroke-linejoin="round"/><path d="M160.16400994610822,15.989349081699999 103.4336786739167,34.56753186732622" fill="none" stroke="#808080"/><polygon fill="#808080" fill-rule="evenodd" points="51.51561933259268,9.532665539731905 61.51036200712676,12.053601649562395 61.52083280298416,7.053612613331005" stroke-linejoin="round"/><path d="M142.60200270993533,5.048619165739341 93.12187152191369,9.619795845400361" fill="none" stroke="#808080"/><polygon fill="#808080" fill-rule="evenodd" points="51.79193319379264,6.916274649384251 62.07418821091575,7.641003400605396 61.20555997418181,2.717032951227327" stroke-linejoin="round"/><path d="M142.60200270993533,-1.8406015744388675 102.48853709792981,-2.027016564561192" fill="none" stroke="#808080"/><polygon fill="#808080" fill-rule="evenodd" points="53.54849456949563,-20.2172644704395 63.37604515072195,-17.107722772144022 63.683176469775546,-22.098280892520577" stroke-linejoin="round"/><path d="M142.60200270993533,-11.811048123921328 107.57843307897505,-16.892128106423122" fill="none" stroke="#808080"/><polygon fill="#808080" fill-rule="evenodd" points="35.985526785488055,-43.423044170739125 45.32778479210204,-39.06733351255061 46.27844180694204,-43.97612676956761" stroke-linejoin="round"/><path d="M145.6822247615384,-19.0106509183 96.1753940258096,-31.766427866415043" fill="none" stroke="#808080"/><polygon fill="#808080" fill-rule="evenodd" points="36.16240314698576,-44.04334656796354 45.641649416706976,-39.99440965094737 46.431826051806205,-44.93157694458278" stroke-linejoin="round"/><path d="M154.1902605028694,-19.0106509183 108.52202612216001,-32.46243792156624" fill="none" stroke="#808080"/><polygon fill="#808080" fill-rule="evenodd" points="21.114029012372953,-68.9248823518058 30.082018487022015,-63.84303576000636 31.41841812143951,-68.66113040593527" stroke-linejoin="round"/><path d="M169.55044909997724,-19.0106509183 96.63181151353861,-47.9784410003781" fill="none" stroke="#808080"/><polygon fill="#808080" fill-rule="evenodd" points="24.151296114229126,-96.92227926453606 32.19349731342993,-90.47456650173613 34.28157376660627,-95.01768621463061" stroke-linejoin="round"/><path d="M181.3077037242806,-19.0106509183 112.26753227578422,-56.42291990377559" fill="none" stroke="#808080"/><polygon fill="#808080" fill-rule="evenodd" points="-2.0427624172044627,-111.51453476840481 5.582818110921199,-104.57908081000593 7.949434029211773,-108.98352505364142" stroke-linejoin="round"/><path d="M177.92136472952637,-19.0106509183 88.39860006321014,-62.918172485619706" fill="none" stroke="#808080"/><polygon fill="#808080" fill-rule="evenodd" points="-11.931670288520806,-139.92669810046382 -4.279756214625388,-133.02030895665493 -1.9299159203500793,-137.43372606717148" stroke-linejoin="round"/><path d="M188.19744617204847,-19.0106509183 96.38737809785479,-82.254273726763" fill="none" stroke="#808080"/><polygon fill="#808080" fill-rule="evenodd" points="-39.934952700157105,-191.80095731801265 -33.324861367582585,-183.89167842705027 -30.380505575667875,-187.93281304131622" stroke-linejoin="round"/><path d="M191.22715420263327,-19.0106509183 115.68978917055601,-78.09055430311837" fill="none" stroke="#808080"/><path d="M-234.409542374,520.6892008504442 -58.40988046700676,520.6892008504442" fill="none" stroke="#000"/><path d="M259.60200270993533,156.43069335326237 312.6020027099348,156.43069335326237" fill="none" stroke="#000"/><path d="M-234.409542374,49.7014866725 -187.28919911399998,49.7014866725" fill="none" stroke="#000"/><path d="M-234.409542374,251.137973436 -153.861248852,251.137973436" fill="none" stroke="#000"/><path d="M-38.51584798245858,773.647018164489 53.50099477985802,773.647018164489" fill="none" stroke="#000"/><path d="M53.50099477985802,909.6653606535758 131.0903180949192,909.6653606535758" fill="none" stroke="#000"/><path d="M-27.72433815582363,863.6470181644825 53.50099477985802,863.6470181644825" fill="none" stroke="#000"/><path d="M-26.936384616888418,818.6470181644868 53.50099477985802,818.6470181644868" fill="none" stroke="#000"/><path d="M53.50099477985802,864.6653606535781 131.08342622665938,864.6653606535781" fill="none" stroke="#000"/><path d="M53.50099477985802,819.6653606535826 128.90331090937516,819.6653606535826" fill="none" stroke="#000"/><path d="M-27.182018861900815,908.6470181644802 53.50099477985802,908.6470181644802" fill="none" stroke="#000"/><path d="M53.50099477985802,773.6653606535849 126.33188326825966,773.6653606535849" fill="none" stroke="#000"/><path d="M259.60200270993533,284.27229225500963 291.60853768682773,284.27229225500963" fill="none" stroke="#000"/><path d="M259.60200270993533,254.7753075224669 291.97151933764894,254.7753075224669" fill="none" stroke="#000"/><path d="M157.0006942719412,540.213857515458 259.60200270993533,540.213857515458" fill="none" stroke="#000"/><path d="M259.60200270993533,315.76655873643443 299.6085376790071,315.76655873643443" fill="none" stroke="#000"/><path d="M259.60200270993533,345.74940449373116 295.1195774942717,345.74940449373116" fill="none" stroke="#000"/><path d="M81.0006942719865,517.7168490508045 259.60200270993533,517.7168490508045" fill="none" stroke="#000"/><path d="M195.60853766979835,-138.74132883172604 259.60200270993533,-138.74132883172604" fill="none" stroke="#000"/><path d="M259.60200270993533,220.83745828400004 311.6020027099356,220.83745828400004" fill="none" stroke="#000"/><path d="M259.60200270993533,188.75179231262481 312.60853768591267,188.75179231262481" fill="none" stroke="#000"/><path d="M9.000694272028237,472.73041255319333 259.60200270993533,472.73041255319333" fill="none" stroke="#000"/><path d="M-170.4096957898641,495.2225437560203 259.60200270993533,495.2225437560203" fill="none" stroke="#000"/><path d="M119.84664786783648,-175.16494178081294 259.60200270993533,-175.16494178081294" fill="none" stroke="#000"/><path d="M107.990896563,-247.94276891700002 259.60200270993533,-247.94276891700002" fill="none" stroke="#000"/><path d="M38.323326589000004,953.923785 369.60853768699997,953.923785" fill="none" stroke="#000"/><path d="M301.4261316743173,772.4310687129955 369.608537687,772.4310687129955" fill="none" stroke="#000"/><path d="M301.1273990271948,739.4310687129978 369.608537687,739.4310687129978" fill="none" stroke="#000"/><path d="M300.77231349457213,706.4310687130021 369.608537687,706.4310687130021" fill="none" stroke="#000"/><path d="M300.26586212491736,672.4310687130044 369.608537687,672.4310687130044" fill="none" stroke="#000"/><path d="M-162.13590731199994,1027.55583296 369.60853768699997,1027.55583296" fill="none" stroke="#000"/><path d="M213.60200270993533,-1.5106509183000014 369.608537687,-1.5106509183000014" fill="none" stroke="#000"/><path d="M259.60200270993533,122.104733267834 312.7939578164162,122.104733267834" fill="none" stroke="#000"/><path d="M-234.409542374,632.333959289 323.6085376870001,632.333959289" fill="none" stroke="#000"/><path d="M-234.409542374,-292.127310304 -234.409542374,694.833959289" fill="none" stroke="#000"/><path d="M53.50099477985802,642.1455543577414 53.50099477985802,1016.423785" fill="none" stroke="#000"/><path d="M-198.1359073119997,859.7661474154556 -198.1359073119997,1090.05583296" fill="none" stroke="#000"/><path d="M-126.1359073120002,861.1050235245443 -126.1359073120002,1090.05583296" fill="none" stroke="#000"/><path d="M259.60200270993533,-310.442768917 259.60200270993533,602.7138575154581" fill="none" stroke="#000"/><path d="M369.608537687,-64.0106509183 369.608537687,1090.05583296" fill="none" stroke="#000"/><circle cx="-64.2456647313" cy="-230.534860786" fill="#fff" r="10.0" stroke="#000"/><circle cx="-51.880399442877334" cy="-200.87323939678615" fill="#fff" r="10.0" stroke="#000"/><circle cx="-40.00813950188158" cy="-173.3223874336797" fill="#fff" r="10.0" stroke="#000"/><circle cx="-24.952399128170484" cy="-147.37388686430722" fill="#fff" r="10.0" stroke="#000"/><circle cx="-14.999133345364378" cy="-119.07313598635068" fill="#fff" r="10.0" stroke="#000"/><circle cx="10.814167996996314" cy="-103.78675401389" fill="#fff" r="10.0" stroke="#000"/><circle cx="7.009149549438489" cy="-74.02903510579833" fill="#fff" r="10.0" stroke="#000"/><circle cx="21.652274642521913" cy="-47.8454737073351" fill="#fff" r="10.0" stroke="#000"/><circle cx="38.86312761845478" cy="-23.27340542158641" fill="#fff" r="10.0" stroke="#000"/><ellipse cx="36.79420590579036" cy="6.655168933797388" fill="#fff" rx="9.999999999999998" ry="10.0" stroke="#000"/><ellipse cx="59.84466826419796" cy="25.856111230006746" fill="#fff" rx="10.000000000000004" ry="10.0" stroke="#000"/><ellipse cx="60.70576627834916" cy="55.84375052035435" fill="#fff" rx="10.000000000000004" ry="9.999999999999996" stroke="#000"/><ellipse cx="72.81284679007376" cy="83.2922222716212" fill="#fff" rx="9.999999999999996" ry="10.0" stroke="#000"/><ellipse cx="67.554679387882" cy="112.82782241057242" fill="#fff" rx="10.000000000000004" ry="10.0" stroke="#000"/><circle cx="82.21472612971931" cy="139.00191321664926" fill="#fff" r="10.0" stroke="#000"/><circle cx="79.01809436639073" cy="168.8311194643433" fill="#fff" r="10.0" stroke="#000"/><circle cx="100.05541875534152" cy="190.21875567201388" fill="#fff" r="10.0" stroke="#000"/><circle cx="112.07614206425066" cy="217.70515614803347" fill="#fff" r="10.0" stroke="#000"/><circle cx="102.69626907308417" cy="246.2010853777902" fill="#fff" r="10.0" stroke="#000"/><circle cx="109.73612157952569" cy="275.36339798645605" fill="#fff" r="10.0" stroke="#000"/><circle cx="109.07139862775914" cy="305.35603280562725" fill="#fff" r="10.0" stroke="#000"/><circle cx="109.12254448060186" cy="338.81047345068725" fill="#fff" r="10.0" stroke="#000"/><circle cx="136.926098806" cy="363.856342596" fill="#fff" r="10.0" stroke="#000"/><circle cx="148.706847777" cy="395.079987874" fill="#fff" r="10.0" stroke="#000"/><polygon fill="#fff" fill-rule="evenodd" points="369.608537687,850.14083018 395.608537687,862.64083018 395.608537687,887.64083018 369.608537687,900.14083018 343.608537687,887.64083018 343.608537687,862.64083018" stroke="#000" stroke-linejoin="round"/><text fill="#000" font-family="DejaVu Sans Mono" font-size="10.0pt" stroke-width="0.0" text-anchor="middle" x="369.608537687" y="880">pci.0</text><polygon fill="#fff" fill-rule="evenodd" points="259.60200270993533,412.7396673701005 285.60200270993533,425.2396673701005 285.60200270993533,450.2396673701005 259.60200270993533,462.7396673701005 233.60200270993533,450.2396673701005 233.60200270993533,425.2396673701005" stroke="#000" stroke-linejoin="round"/><text fill="#000" font-family="DejaVu Sans Mono" font-size="10.0pt" stroke-width="0.0" text-anchor="middle" x="259.60200270993533" y="443">isa.0</text><polygon fill="#fff" fill-rule="evenodd" points="-126.1359073120002,911.1050235245443 -100.1359073120002,923.6050235245443 -100.1359073120002,948.6050235245443 -126.1359073120002,961.1050235245443 -152.1359073120002,948.6050235245443 -152.1359073120002,923.6050235245443" stroke="#000" stroke-linejoin="round"/><text fill="#000" font-family="DejaVu Sans Mono" font-size="10.0pt" stroke-width="0.0" text-anchor="middle" x="-126.1359073120002" y="941">ide.0</text><polygon fill="#fff" fill-rule="evenodd" points="-198.1359073119997,909.7661474154556 -172.1359073119997,922.2661474154556 -172.1359073119997,947.2661474154556 -198.1359073119997,959.7661474154556 -224.1359073119997,947.2661474154556 -224.1359073119997,922.2661474154556" stroke="#000" stroke-linejoin="round"/><text fill="#000" font-family="DejaVu Sans Mono" font-size="10.0pt" stroke-width="0.0" text-anchor="middle" x="-198.1359073119997" y="940">ide.1</text><polygon fill="#fff" fill-rule="evenodd" points="53.50099477985802,692.1455543577414 71.50099477985802,704.6455543577414 71.50099477985802,729.6455543577414 53.50099477985802,742.1455543577414 35.50099477985802,729.6455543577414 35.50099477985802,704.6455543577414" stroke="#000" stroke-linejoin="round"/><text fill="#000" font-family="DejaVu Sans Mono" font-size="10.0pt" stroke-width="0.0" text-anchor="middle" x="53.50099477985802" y="722">i2c</text><polygon fill="#fff" fill-rule="evenodd" points="-234.409542374,-242.127310304 -216.409542374,-229.627310304 -216.409542374,-204.627310304 -234.409542374,-192.127310304 -252.409542374,-204.627310304 -252.409542374,-229.627310304" stroke="#000" stroke-linejoin="round"/><text fill="#000" font-family="DejaVu Sans Mono" font-size="10.0pt" stroke-width="0.0" text-anchor="middle" x="-234.409542374" y="-212">bus</text><rect fill="#fff" height="25.0" stroke="#000" width="132.0" x="257.608537687" y="619.833959289"/><text fill="#000" font-family="DejaVu Sans Mono" font-size="10.0pt" stroke-width="0.0" text-anchor="middle" x="323.608537687" y="637">Q35_HOST_DEVICE</text><rect fill="#fff" height="25.0" stroke="#000" width="92.0" x="266.7939578164162" y="109.604733267834"/><text fill="#000" font-family="DejaVu Sans Mono" font-size="10.0pt" stroke-width="0.0" text-anchor="middle" x="312.7939578164162" y="127">IO_PORT_80</text><rect fill="#fff" height="25.0" stroke="#000" width="132.0" x="147.60200270993533" y="-14.010650918300001"/><text fill="#000" font-family="DejaVu Sans Mono" font-size="10.0pt" stroke-width="0.0" text-anchor="middle" x="213.60200270993533" y="3">ICH9_LPC_DEVICE</text><rect fill="#fff" height="25.0" stroke="#000" width="111.99999999999949" x="-218.1359073119997" y="1015.0558329600001"/><text fill="#000" font-family="DejaVu Sans Mono" font-size="10.0pt" stroke-width="0.0" text-anchor="middle" x="-162.13590731199994" y="1033">ICH9_AHCI</text><rect fill="#fff" height="25.0" stroke="#000" width="124.0" x="238.26586212491736" y="659.9310687130044"/><text fill="#000" font-family="DejaVu Sans Mono" font-size="10.0pt" stroke-width="0.0" text-anchor="middle" x="300.26586212491736" y="677">ich9-usb-ehci1</text><rect fill="#fff" height="25.0" stroke="#000" width="124.0" x="238.77231349457213" y="693.9310687130021"/><text fill="#000" font-family="DejaVu Sans Mono" font-size="10.0pt" stroke-width="0.0" text-anchor="middle" x="300.77231349457213" y="711">ich9-usb-uhci4</text><rect fill="#fff" height="25.0" stroke="#000" width="124.0" x="239.12739902719483" y="726.9310687129978"/><text fill="#000" font-family="DejaVu Sans Mono" font-size="10.0pt" stroke-width="0.0" text-anchor="middle" x="301.1273990271948" y="744">ich9-usb-uhci5</text><rect fill="#fff" height="25.0" stroke="#000" width="124.0" x="239.42613167431728" y="759.9310687129955"/><text fill="#000" font-family="DejaVu Sans Mono" font-size="10.0pt" stroke-width="0.0" text-anchor="middle" x="301.4261316743173" y="777">ich9-usb-uhci6</text><rect fill="#fff" height="25.0" stroke="#000" width="132.0" x="-27.676673410999996" y="941.423785"/><text fill="#000" font-family="DejaVu Sans Mono" font-size="10.0pt" stroke-width="0.0" text-anchor="middle" x="38.323326589000004" y="959">ICH9_SMB_DEVICE</text><rect fill="#fff" height="25.0" stroke="#000" width="84.0" x="65.990896563" y="-260.442768917"/><text fill="#000" font-family="DejaVu Sans Mono" font-size="10.0pt" stroke-width="0.0" text-anchor="middle" x="107.990896563" y="-243">isa-i8259</text><rect fill="#fff" height="25.0" stroke="#000" width="84.0" x="77.84664786783648" y="-187.66494178081294"/><text fill="#000" font-family="DejaVu Sans Mono" font-size="10.0pt" stroke-width="0.0" text-anchor="middle" x="119.84664786783648" y="-170">isa-i8259</text><rect fill="#fff" height="25.0" stroke="#000" width="108.0" x="-224.4096957898641" y="482.7225437560203"/><text fill="#000" font-family="DejaVu Sans Mono" font-size="10.0pt" stroke-width="0.0" text-anchor="middle" x="-170.4096957898641" y="500">MC146818_RTC</text><rect fill="#fff" height="25.0" stroke="#000" width="52.0" x="-16.999305727971763" y="460.23041255319333"/><text fill="#000" font-family="DejaVu Sans Mono" font-size="10.0pt" stroke-width="0.0" text-anchor="middle" x="9.000694272028237" y="478">I8254</text><rect fill="#fff" height="25.0" stroke="#000" width="92.0" x="266.60853768591267" y="176.25179231262481"/><text fill="#000" font-family="DejaVu Sans Mono" font-size="10.0pt" stroke-width="0.0" text-anchor="middle" x="312.60853768591267" y="194">PC_SPEAKER</text><rect fill="#fff" height="25.0" stroke="#000" width="92.0" x="265.6020027099356" y="208.33745828400004"/><text fill="#000" font-family="DejaVu Sans Mono" font-size="10.0pt" stroke-width="0.0" text-anchor="middle" x="311.6020027099356" y="226">ISA_SERIAL</text><rect fill="#fff" height="25.0" stroke="#000" width="108.0" x="141.60853766979835" y="-151.24132883172604"/><text fill="#000" font-family="DejaVu Sans Mono" font-size="10.0pt" stroke-width="0.0" text-anchor="middle" x="195.60853766979835" y="-134">isa-parallel</text><rect fill="#fff" height="24.999999999999943" stroke="#000" width="52.0" x="55.000694271986504" y="505.21684905080457"/><text fill="#000" font-family="DejaVu Sans Mono" font-size="10.0pt" stroke-width="0.0" text-anchor="middle" x="81.0006942719865" y="523">i8042</text><rect fill="#fff" height="25.0" stroke="#000" width="60.0" x="265.1195774942717" y="333.24940449373116"/><text fill="#000" font-family="DejaVu Sans Mono" font-size="10.0pt" stroke-width="0.0" text-anchor="middle" x="295.1195774942717" y="351">VMPORT</text><rect fill="#fff" height="25.0" stroke="#000" width="68.0" x="265.6085376790071" y="303.26655873643443"/><text fill="#000" font-family="DejaVu Sans Mono" font-size="10.0pt" stroke-width="0.0" text-anchor="middle" x="299.6085376790071" y="321">vmmouse</text><rect fill="#fff" height="25.0" stroke="#000" width="59.999999999999986" x="127.00069427194121" y="527.713857515458"/><text fill="#000" font-family="DejaVu Sans Mono" font-size="10.0pt" stroke-width="0.0" text-anchor="middle" x="157.0006942719412" y="545">port92</text><rect fill="#fff" height="25.0" stroke="#000" width="52.0" x="265.97151933764894" y="242.2753075224669"/><text fill="#000" font-family="DejaVu Sans Mono" font-size="10.0pt" stroke-width="0.0" text-anchor="middle" x="291.97151933764894" y="260">I8257</text><rect fill="#fff" height="25.0" stroke="#000" width="52.0" x="265.60853768682773" y="271.77229225500963"/><text fill="#000" font-family="DejaVu Sans Mono" font-size="10.0pt" stroke-width="0.0" text-anchor="middle" x="291.60853768682773" y="289">I8257</text><rect fill="#fff" height="25.0" stroke="#000" width="108.00000000000001" x="72.33188326825966" y="761.1653606535849"/><text fill="#000" font-family="DejaVu Sans Mono" font-size="10.0pt" stroke-width="0.0" text-anchor="middle" x="126.33188326825966" y="779">smbus-eeprom</text><rect fill="#fff" height="25.0" stroke="#000" width="108.0" x="-81.18201886190081" y="896.1470181644802"/><text fill="#000" font-family="DejaVu Sans Mono" font-size="10.0pt" stroke-width="0.0" text-anchor="middle" x="-27.182018861900815" y="914">smbus-eeprom</text><rect fill="#fff" height="25.0" stroke="#000" width="108.0" x="74.90331090937516" y="807.1653606535826"/><text fill="#000" font-family="DejaVu Sans Mono" font-size="10.0pt" stroke-width="0.0" text-anchor="middle" x="128.90331090937516" y="825">smbus-eeprom</text><rect fill="#fff" height="25.0" stroke="#000" width="108.0" x="77.08342622665938" y="852.1653606535781"/><text fill="#000" font-family="DejaVu Sans Mono" font-size="10.0pt" stroke-width="0.0" text-anchor="middle" x="131.08342622665938" y="870">smbus-eeprom</text><rect fill="#fff" height="25.0" stroke="#000" width="108.0" x="-80.93638461688842" y="806.1470181644868"/><text fill="#000" font-family="DejaVu Sans Mono" font-size="10.0pt" stroke-width="0.0" text-anchor="middle" x="-26.936384616888418" y="824">smbus-eeprom</text><rect fill="#fff" height="25.0" stroke="#000" width="108.0" x="-81.72433815582363" y="851.1470181644825"/><text fill="#000" font-family="DejaVu Sans Mono" font-size="10.0pt" stroke-width="0.0" text-anchor="middle" x="-27.72433815582363" y="869">smbus-eeprom</text><rect fill="#fff" height="25.0" stroke="#000" width="108.0" x="77.09031809491921" y="897.1653606535758"/><text fill="#000" font-family="DejaVu Sans Mono" font-size="10.0pt" stroke-width="0.0" text-anchor="middle" x="131.0903180949192" y="915">smbus-eeprom</text><rect fill="#fff" height="25.0" stroke="#000" width="108.0" x="-92.51584798245858" y="761.147018164489"/><text fill="#000" font-family="DejaVu Sans Mono" font-size="10.0pt" stroke-width="0.0" text-anchor="middle" x="-38.51584798245858" y="779">smbus-eeprom</text><rect fill="#fff" height="25.00000000000003" stroke="#000" width="44.0" x="-175.861248852" y="238.637973436"/><text fill="#000" font-family="DejaVu Sans Mono" font-size="10.0pt" stroke-width="0.0" text-anchor="middle" x="-153.861248852" y="256">HPET</text><rect fill="#fff" height="25.0" stroke="#000" width="60.0" x="-217.28919911399998" y="37.2014866725"/><text fill="#000" font-family="DejaVu Sans Mono" font-size="10.0pt" stroke-width="0.0" text-anchor="middle" x="-187.28919911399998" y="55">ioapic</text><rect fill="#fff" height="25.0" stroke="#000" width="92.0" x="266.6020027099348" y="143.93069335326237"/><text fill="#000" font-family="DejaVu Sans Mono" font-size="10.0pt" stroke-width="0.0" text-anchor="middle" x="312.6020027099348" y="161">IO_PORT_F0</text><rect fill="#fff" height="25.000000000000057" stroke="#000" width="76.0" x="-96.40988046700674" y="508.18920085044414"/><text fill="#000" font-family="DejaVu Sans Mono" font-size="10.0pt" stroke-width="0.0" text-anchor="middle" x="-58.409880467006744" y="526">A20_LINE</text></svg>